<svg width="234" height="60" viewBox="0 0 234 60" fill="none" xmlns="http://www.w3.org/2000/svg">
<path d="M99.0942 39.9446C99.0942 41.7727 98.2787 42.4716 96.2718 42.4716H89.1846V36.2346H96.2718C98.2787 36.2346 99.0942 37.0949 99.0942 38.7617V39.9446ZM44.7805 0H0V60H44.7805V0ZM96.2718 32.1481H81.4704V35.9657L84.1047 36.2883V51.5586H89.1846V46.5579H96.2718C102.105 46.5579 104.112 44.0308 104.112 40.1059V38.6003C104.112 34.8904 102.23 32.1481 96.2718 32.1481ZM205.589 32.1481H207.47V51.5586H202.39V37.7934L191.916 51.5586H186.084V32.1481H191.164V45.4317L198.815 35.2667C200.76 32.6857 202.453 32.1481 205.589 32.1481ZM62.2161 8.43644H76.0767V10.8559C76.0767 12.7916 75.8885 14.4045 75.3867 15.8563H71.0592V12.5227H62.2161C59.5819 12.5227 58.9545 13.1142 58.9545 15.5876V20.6955C58.9545 23.1688 59.5819 23.7604 62.2161 23.7604H76.0767V27.8467H62.2161C55.7563 27.8467 53.8747 26.2337 53.8747 20.6955V15.5876C53.8747 9.99562 55.7563 8.43644 62.2161 8.43644ZM202.39 8.43644H207.47V27.8467H202.39V20.0502H191.164V27.8467H186.084V8.43644H191.164V15.9639H202.39V8.43644ZM68.4878 47.4723H59.7071V43.7084H68.4878C70.1813 43.7084 70.8084 44.4074 70.8084 45.5363C70.8084 46.6655 70.1813 47.4723 68.4878 47.4723ZM69.8047 37.9551C69.8047 39.1382 69.1152 39.7832 67.3588 39.7832H59.7071V36.2883H67.3588C69.1152 36.2883 69.8047 36.826 69.8047 37.9551ZM72.705 41.3012C73.8957 40.6782 74.8851 39.3541 74.8851 37.3099C74.8851 34.6752 73.129 32.1481 67.9233 32.1481H54.6273V51.5586H68.4252C73.4424 51.5586 75.8885 49.3541 75.8885 45.7515C75.8885 43.3291 74.2658 41.9014 72.705 41.3012ZM167.77 32.1481H181.756V34.5678C181.756 36.5035 181.568 38.1164 181.066 39.5682H176.738V36.2346H167.77C165.136 36.2346 164.509 36.826 164.509 39.2994V44.4074C164.509 46.8807 165.136 47.4723 167.77 47.4723H181.756V51.5586H167.77C161.31 51.5586 159.428 49.9455 159.428 44.4074V39.2994C159.428 33.7073 161.31 32.1481 167.77 32.1481ZM124.934 44.4074C124.934 46.8807 124.306 47.4723 121.672 47.4723H115.652C113.017 47.4723 112.39 46.8807 112.39 44.4074V39.2994C112.39 36.826 113.017 36.2346 115.652 36.2346H121.672C124.306 36.2346 124.934 36.826 124.934 39.2994V44.4074ZM121.672 32.1481H115.652C109.191 32.1481 107.31 33.7073 107.31 39.2994V44.4074C107.31 49.9455 109.191 51.5586 115.652 51.5586H121.672C128.195 51.5586 130.014 49.9455 130.014 44.4074V39.2994C130.014 33.7073 128.195 32.1481 121.672 32.1481ZM87.9419 12.5227H96.8991V23.1688H86.0326C86.7271 22.1287 87.0201 20.6786 87.2405 18.8136L87.9419 12.5227ZM101.979 8.43644H83.4773L82.3486 18.276C81.7842 22.9539 80.9686 23.7065 79.4633 23.7065H79.1499V29.6748H83.9791L84.1673 27.2014H99.0942L99.2824 29.6748H104.112V23.6528H101.979V8.43644ZM141.93 32.1481H155.854V34.5678C155.854 36.5035 155.665 38.1164 155.164 39.5682H150.836V36.2346H141.93C139.296 36.2346 138.669 36.826 138.669 39.2994V44.4074C138.669 46.8807 139.296 47.4723 141.93 47.4723H155.854V51.5586H141.93C135.47 51.5586 133.589 49.9455 133.589 44.4074V39.2994C133.589 33.7073 135.47 32.1481 141.93 32.1481ZM228.92 20.6955C228.92 23.1688 228.293 23.7604 225.659 23.7604H220.077C217.442 23.7604 216.815 23.1688 216.815 20.6955V15.5876C216.815 13.1142 217.442 12.5227 220.077 12.5227H225.659C228.293 12.5227 228.92 13.1142 228.92 15.5876V20.6955ZM225.659 8.43644H220.077C213.616 8.43644 211.735 9.99562 211.735 15.5876V20.6955C211.735 26.2337 214.244 27.8467 220.704 27.8467H225.031C231.554 27.8467 234 26.2337 234 20.6955V15.5876C234 9.99562 232.181 8.43644 225.659 8.43644ZM107.686 20.6955V15.5876C107.686 9.99562 109.505 8.43644 116.028 8.43644H129.324V12.5227H115.777C113.143 12.5227 112.766 12.899 112.766 15.3724V16.0176H125.624V20.0502H112.766V20.9107C112.766 23.3841 113.143 23.7604 115.777 23.7604H129.512V27.8467H116.028C109.505 27.8467 107.686 26.2337 107.686 20.6955ZM168.272 12.5227H176.237V17.3081H165.01V15.5876C165.01 13.3832 165.324 12.5227 168.272 12.5227ZM165.01 21.3407H176.237V27.8467H181.317V8.43644H168.272C161.875 8.43644 159.93 9.94193 159.93 15.5876V27.8467H165.01V21.3407ZM29.9164 32.1481H34.9964V51.5586H18.7527C12.2299 51.5586 9.78408 49.4615 9.78408 43.8698V32.1481H14.864V43.9771C14.864 46.4507 15.993 47.4723 18.6273 47.4723H29.9164V32.1481ZM4.8919 4.18859H39.8886V55.8064H4.8919V4.18859ZM132.586 27.8467V23.7065C134.655 23.7065 135.157 22.6312 135.596 19.0287L136.976 8.43644H155.164V27.8467H150.084V12.5227H141.324L140.425 19.9428C139.673 26.3412 137.665 28.0619 132.586 27.8467ZM231.742 32.1481H233.623V51.5586H228.544V37.7934L218.069 51.5586H212.237V32.1481H217.317V45.4317L224.969 35.2667C226.913 32.6857 228.606 32.1481 231.742 32.1481ZM27.4079 16.9318H14.864V12.5227H27.4079C29.289 12.5227 30.1672 13.3832 30.1672 14.6735C30.1672 15.9639 29.4145 16.9318 27.4079 16.9318ZM35.2475 14.1895C35.2475 10.9635 33.4288 8.43644 28.0974 8.43644H9.78408V27.8467H14.864V21.0181H26.5924C29.2266 21.0181 29.9164 21.6633 29.9164 23.9217V27.8467H34.9964V23.2225C34.9964 20.9162 34.0421 19.5631 31.9223 19.1029C34.1277 18.4638 35.2475 16.6356 35.2475 14.1895Z" fill="white"/>
</svg>
