<svg width="285" height="49" viewBox="0 0 285 49" fill="none" xmlns="http://www.w3.org/2000/svg">
<g clip-path="url(#clip0_872_52516)">
<path d="M48.595 37.387H24.2467C23.5548 37.4955 22.889 37.7308 22.2826 38.0811C21.6142 38.4818 21.0374 39.0182 20.5894 39.6557L15.6791 48.1214H54.8259L48.595 37.387Z" fill="white"/>
<path d="M34.931 34.0006C35.6452 34.3993 36.4359 34.6417 37.2508 34.7118H47.0377L27.3961 0.713867L21.1312 11.5498L33.0854 32.2567C33.5618 32.9693 34.1926 33.5653 34.931 34.0006Z" fill="white"/>
<path d="M25.026 25.0619C25.0291 24.2426 24.8498 23.4329 24.5011 22.6915L19.6246 14.2598L0 48.1222H12.5299L24.3826 27.6016C24.7929 26.817 25.0133 25.9471 25.026 25.0619Z" fill="white"/>
<path d="M82.9672 22.9958C82.9672 22.5048 83.3397 6.40322 83.3397 6.40322L78.9543 22.9958H75.5678L71.1146 6.40322C71.1146 6.40322 71.4702 22.3355 71.4702 22.9958H67.8297V2.79688H73.3158L77.261 17.7979L81.1555 2.79688H86.6246V22.9958H82.9672Z" fill="white"/>
<path d="M107.756 22.9958H103.98V9.78947L94.938 20.5916V22.9958H91.1621V2.79688H94.938V15.9524L103.98 5.13338V2.79688H107.756V22.9958Z" fill="white"/>
<path d="M124.806 22.9958V13.8191H116.137V22.9958H112.327V2.79688H116.137V10.399H124.806V2.79688H128.684V22.9958H124.806Z" fill="white"/>
<path d="M149.205 2.79688V22.9958H145.429V6.23391H136.963V22.9958H133.187V2.79688H149.205Z" fill="white"/>
<path d="M161.667 2.79688C165.849 2.79688 168.847 5.37042 168.847 9.56936C168.847 13.2434 166.73 16.1725 161.464 16.1725H157.603V23.0466H153.828V2.79688H161.667ZM157.603 13.0403H160.99C163.682 13.0403 165.02 11.7874 165.02 9.40005C165.02 6.14926 162.395 6.01381 160.567 6.01381H157.603V13.0403Z" fill="white"/>
<path d="M180.428 2.28906C186.575 2.28906 190.097 7.36843 190.097 12.7864C190.097 17.3748 187.607 23.5208 180.344 23.5208C174.4 23.5208 170.726 18.5938 170.726 12.9219C170.726 7.24991 174.603 2.28906 180.428 2.28906ZM180.428 19.9991C183.425 19.9991 186.253 17.6795 186.253 13.0912C186.253 9.50176 184.407 5.79382 180.394 5.79382C177.008 5.79382 174.62 8.40123 174.62 12.8372C174.62 15.9526 176.094 19.9991 180.462 19.9991H180.428Z" fill="white"/>
<path d="M208.688 22.9958C208.688 22.5048 209.06 6.40322 209.06 6.40322L204.692 22.9958H201.305L196.937 6.40322C196.937 6.40322 197.309 22.3355 197.309 22.9958H193.618V2.79688H199.104L203.066 17.7979L206.944 2.79688H212.413V22.9958H208.688Z" fill="white"/>
<path d="M224.536 6.19874V22.9945H220.76V6.19874H215.257V2.8125H230.106V6.19874H224.536Z" fill="white"/>
<path d="M241.773 2.28906C247.936 2.28906 251.441 7.36843 251.441 12.7864C251.441 17.3748 248.952 23.5208 241.688 23.5208C235.745 23.5208 232.088 18.5938 232.088 12.9219C232.088 7.24991 235.948 2.28906 241.773 2.28906ZM241.773 19.9991C244.77 19.9991 247.615 17.6795 247.615 13.0912C247.615 9.50176 245.718 5.74303 241.722 5.74303C238.336 5.74303 235.931 8.35044 235.931 12.7864C235.965 15.9526 237.489 19.9991 241.807 19.9991H241.773Z" fill="white"/>
<path d="M262.938 2.79688C267.12 2.79688 270.117 5.37042 270.117 9.56936C270.117 13.2434 268 16.1725 262.751 16.1725H258.891V23.0466H255.115V2.79688H262.938ZM258.891 13.0403H262.193C264.885 13.0403 266.239 11.7874 266.239 9.40005C266.239 6.14926 263.598 6.01381 261.769 6.01381H258.891V13.0403Z" fill="white"/>
<path d="M285 2.79688V6.18312H276.703V22.945H272.927V2.79688H285Z" fill="white"/>
<path d="M75.6691 27.9893C79.8345 27.9893 82.8485 30.5628 82.8485 34.7617C82.8485 38.4358 80.7319 41.3818 75.466 41.3818H71.6054V48.1205H67.8295V27.9893H75.6691ZM71.6054 38.2326H74.9918C77.6841 38.2326 79.0217 36.9797 79.0217 34.6094C79.0217 31.3416 76.3972 31.2231 74.5685 31.2231H71.6054V38.2326Z" fill="white"/>
<path d="M94.4303 27.4827C100.577 27.4827 104.099 32.562 104.099 37.98C104.099 42.5515 101.627 48.7144 94.3457 48.7144C88.4024 48.7144 84.7281 43.7874 84.7281 38.1155C84.7281 32.4435 88.6056 27.4827 94.4303 27.4827ZM94.4303 45.1927C97.4273 45.1927 100.255 42.8731 100.255 38.2848C100.255 34.6954 98.3756 30.9536 94.3626 30.9536C90.9761 30.9536 88.5887 33.544 88.5887 37.98C88.6225 41.1292 90.1464 45.1927 94.4642 45.1927H94.4303Z" fill="white"/>
<path d="M124.637 42.5508C124.013 44.3621 122.835 45.9316 121.27 47.0374C119.705 48.1433 117.833 48.7297 115.917 48.7138C111.142 48.7138 106.469 45.446 106.469 37.8947C106.469 33.4079 109.008 27.482 116.052 27.482C117.935 27.391 119.79 27.9655 121.291 29.1047C122.793 30.2439 123.845 31.8752 124.265 33.7127L120.522 34.6947C120.4 33.6445 119.889 32.678 119.09 31.9855C118.291 31.293 117.262 30.9247 116.205 30.9529C112.903 30.9529 110.566 33.4587 110.566 37.9624C110.566 40.7053 111.684 45.1413 116.171 45.1413C117.321 45.0919 118.423 44.6658 119.308 43.9284C120.192 43.1911 120.809 42.1835 121.064 41.0609L124.637 42.5508Z" fill="white"/>
<path d="M144.922 42.5501C144.296 44.3643 143.116 45.9356 141.548 47.0417C139.98 48.1478 138.103 48.7326 136.185 48.7131C131.41 48.7131 126.753 45.4454 126.753 37.8941C126.753 33.4073 129.293 27.4814 136.337 27.4814C138.219 27.3938 140.072 27.9695 141.573 29.1082C143.073 30.2469 144.127 31.8762 144.549 33.712L140.79 34.6941C140.675 33.6407 140.167 32.6696 139.366 31.9757C138.565 31.2817 137.532 30.9161 136.472 30.9523C133.188 30.9523 130.851 33.4581 130.851 37.9618C130.851 40.7046 131.952 45.1406 136.456 45.1406C137.604 45.0904 138.703 44.6636 139.585 43.9261C140.466 43.1886 141.08 42.1815 141.332 41.0602L144.922 42.5501Z" fill="white"/>
<path d="M164.241 48.1205H160.465V34.9141L151.44 45.7162V48.1205H147.647V27.9893H151.44V41.094L160.465 30.2919V27.9893H164.241V48.1205Z" fill="white"/>
<path d="M185.423 48.1205H181.647V34.9141L172.606 45.7162V48.1205H168.83V27.9893H172.606V41.094L181.647 30.2919V27.9893H185.423V48.1205Z" fill="white"/>
</g>
<defs>
<clipPath id="clip0_872_52516">
<rect width="285" height="48" fill="white" transform="translate(0 0.713867)"/>
</clipPath>
</defs>
</svg>
