<svg width="431" height="60" viewBox="0 0 431 60" fill="none" xmlns="http://www.w3.org/2000/svg">
<g clip-path="url(#clip0_872_52517)">
<path d="M23.7436 46.1617L31.1018 38.676L23.7436 31.1903L16.3854 38.676L23.7436 46.1617Z" fill="white"/>
<path d="M23.7922 14.0836L29.3585 8.4209L23.7922 2.75817L18.2259 8.4209L23.7922 14.0836Z" fill="white"/>
<path d="M8.94927 46.1078L16.3075 38.6221L8.94927 31.1364L1.59105 38.6221L8.94927 46.1078Z" fill="white"/>
<path d="M8.94927 15.9066L16.3075 8.4209L8.94927 0.935209L1.59105 8.4209L8.94927 15.9066Z" fill="white"/>
<path d="M23.7437 59.0638L28.8665 53.8523L23.7437 48.6408L18.6209 53.8523L23.7437 59.0638Z" fill="white"/>
<path d="M23.743 29.2604L29.3083 23.5986L23.743 17.9368L18.1776 23.5986L23.743 29.2604Z" fill="white"/>
<path d="M8.94995 58.8185L13.96 53.7217L8.94995 48.6249L3.93993 53.7217L8.94995 58.8185Z" fill="white"/>
<path d="M8.94927 31.0091L16.3075 23.5234L8.94927 16.0377L1.59105 23.5234L8.94927 31.0091Z" fill="white"/>
<path d="M38.5362 40.6173L40.3918 38.7295L38.5362 36.8417L36.6805 38.7295L38.5362 40.6173Z" fill="white"/>
<path d="M38.5368 12.3027L42.2478 8.52747L38.5368 4.75219L34.8258 8.52747L38.5368 12.3027Z" fill="white"/>
<path d="M53.4178 40.6173L55.2734 38.7295L53.4178 36.8417L51.5621 38.7295L53.4178 40.6173Z" fill="white"/>
<path d="M45.9955 48.1251L47.8512 46.2373L45.9955 44.3495L44.1399 46.2373L45.9955 48.1251Z" fill="white"/>
<path d="M33.0069 48.1251L34.8625 46.2373L33.0069 44.3495L31.1512 46.2373L33.0069 48.1251Z" fill="white"/>
<path d="M53.4208 12.2622L57.0919 8.52747L53.4208 4.79273L49.7496 8.52747L53.4208 12.2622Z" fill="white"/>
<path d="M38.5364 55.6759L40.3921 53.7881L38.5364 51.9003L36.6808 53.7881L38.5364 55.6759Z" fill="white"/>
<path d="M38.5339 27.4018L42.2848 23.5859L38.5339 19.7701L34.7831 23.5859L38.5339 27.4018Z" fill="white"/>
<path d="M53.4174 55.6759L55.2731 53.7881L53.4174 51.9003L51.5618 53.7881L53.4174 55.6759Z" fill="white"/>
<path d="M53.418 27.3612L57.129 23.5859L53.418 19.8107L49.707 23.5859L53.418 27.3612Z" fill="white"/>
<path d="M45.9962 19.8121L49.7072 16.0369L45.9962 12.2616L42.2852 16.0369L45.9962 19.8121Z" fill="white"/>
<path d="M45.9962 34.9139L49.7072 31.1387L45.9962 27.3634L42.2852 31.1387L45.9962 34.9139Z" fill="white"/>
<path d="M33.0072 34.9139L36.7181 31.1387L33.0072 27.3634L29.2962 31.1387L33.0072 34.9139Z" fill="white"/>
<path d="M31.1514 19.8121L34.8624 16.0369L31.1514 12.2616L27.4404 16.0369L31.1514 19.8121Z" fill="white"/>
</g>
<path d="M88.2312 23.153V6.9529H93.4339C95.4055 6.9529 96.6907 7.03394 97.2895 7.19601C98.2095 7.43913 98.9799 7.96955 99.6006 8.7873C100.221 9.59767 100.532 10.6475 100.532 11.9367C100.532 12.9313 100.353 13.7674 99.9949 14.4452C99.6371 15.123 99.1807 15.6571 98.6257 16.0475C98.0781 16.4306 97.5195 16.6848 96.9499 16.81C96.1759 16.9647 95.055 17.0421 93.5873 17.0421H91.4733V23.153H88.2312ZM91.4733 9.69344V14.2905H93.2477C94.5256 14.2905 95.38 14.2058 95.8108 14.0363C96.2416 13.8669 96.5775 13.6017 96.8185 13.2407C97.0667 12.8797 97.1909 12.4598 97.1909 11.9809C97.1909 11.3915 97.0193 10.9053 96.6761 10.5222C96.3329 10.1391 95.8984 9.89972 95.3727 9.80395C94.9856 9.73028 94.208 9.69344 93.0396 9.69344H91.4733Z" fill="white"/>
<path d="M101.623 23.153V6.9529H113.529V9.69344H104.865V13.2849H112.927V16.0144H104.865V20.4235H113.836V23.153H101.623Z" fill="white"/>
<path d="M115.015 23.153V6.9529H126.921V9.69344H118.257V13.2849H126.318V16.0144H118.257V20.4235H127.227V23.153H115.015Z" fill="white"/>
<path d="M138.681 17.1968L141.824 18.2024C141.342 19.9705 140.539 21.2855 139.414 22.1474C138.297 23.002 136.877 23.4293 135.154 23.4293C133.021 23.4293 131.269 22.6963 129.896 21.2302C128.523 19.7568 127.837 17.7456 127.837 15.1966C127.837 12.5003 128.527 10.408 129.907 8.9199C131.287 7.42439 133.102 6.67664 135.351 6.67664C137.315 6.67664 138.911 7.26232 140.137 8.43368C140.867 9.12618 141.415 10.1207 141.78 11.4173L138.571 12.1909C138.381 11.351 137.983 10.688 137.377 10.2018C136.778 9.71554 136.048 9.47243 135.186 9.47243C133.996 9.47243 133.029 9.9034 132.284 10.7653C131.546 11.6273 131.178 13.0233 131.178 14.9535C131.178 17.0016 131.543 18.4602 132.273 19.3295C133.003 20.1989 133.952 20.6335 135.121 20.6335C135.982 20.6335 136.724 20.3572 137.344 19.8047C137.965 19.2522 138.41 18.3829 138.681 17.1968Z" fill="white"/>
<path d="M146.092 23.153V9.69344H141.327V6.9529H154.088V9.69344H149.334V23.153H146.092Z" fill="white"/>
<path d="M154.62 23.153V6.9529H159.823C161.795 6.9529 163.08 7.03394 163.679 7.19601C164.599 7.43913 165.369 7.96955 165.99 8.7873C166.61 9.59767 166.921 10.6475 166.921 11.9367C166.921 12.9313 166.742 13.7674 166.384 14.4452C166.026 15.123 165.57 15.6571 165.015 16.0475C164.467 16.4306 163.909 16.6848 163.339 16.81C162.565 16.9647 161.444 17.0421 159.976 17.0421H157.863V23.153H154.62ZM157.863 9.69344V14.2905H159.637C160.915 14.2905 161.769 14.2058 162.2 14.0363C162.631 13.8669 162.967 13.6017 163.208 13.2407C163.456 12.8797 163.58 12.4598 163.58 11.9809C163.58 11.3915 163.408 10.9053 163.065 10.5222C162.722 10.1391 162.288 9.89972 161.762 9.80395C161.375 9.73028 160.597 9.69344 159.429 9.69344H157.863Z" fill="white"/>
<path d="M87.7526 36.9586H100.524V53.1588H97.2818V39.6771H90.9947V53.1588H87.7526V36.9586Z" fill="white"/>
<path d="M102.71 53.1588V36.9586H107.913C109.884 36.9586 111.17 37.0397 111.768 37.2017C112.688 37.4449 113.459 37.9753 114.08 38.793C114.7 39.6034 115.011 40.6532 115.011 41.9424C115.011 42.937 114.832 43.7732 114.474 44.4509C114.116 45.1287 113.66 45.6628 113.105 46.0533C112.557 46.4363 111.998 46.6905 111.429 46.8157C110.655 46.9705 109.534 47.0478 108.066 47.0478H105.952V53.1588H102.71ZM105.952 39.6992V44.2962H107.727C109.005 44.2962 109.859 44.2115 110.29 44.0421C110.721 43.8726 111.056 43.6074 111.297 43.2464C111.546 42.8854 111.67 42.4655 111.67 41.9866C111.67 41.3973 111.498 40.9111 111.155 40.528C110.812 40.1449 110.377 39.9055 109.852 39.8097C109.465 39.736 108.687 39.6992 107.519 39.6992H105.952Z" fill="white"/>
<path d="M115.587 45.1582C115.587 43.5079 115.831 42.1229 116.321 41.0031C116.686 40.178 117.182 39.4376 117.81 38.782C118.445 38.1263 119.139 37.6401 119.891 37.3233C120.892 36.896 122.045 36.6824 123.352 36.6824C125.718 36.6824 127.61 37.4228 129.026 38.9035C130.45 40.3843 131.162 42.4434 131.162 45.0808C131.162 47.6961 130.457 49.7442 129.048 51.2249C127.639 52.6983 125.755 53.435 123.396 53.435C121.009 53.435 119.11 52.702 117.701 51.236C116.291 49.7626 115.587 47.7366 115.587 45.1582ZM118.927 45.0477C118.927 46.8821 119.347 48.2744 120.187 49.2248C121.027 50.1678 122.093 50.6392 123.385 50.6392C124.678 50.6392 125.737 50.1714 126.562 49.2358C127.394 48.2928 127.81 46.8821 127.81 45.0035C127.81 43.147 127.405 41.762 126.595 40.8484C125.791 39.9349 124.722 39.4782 123.385 39.4782C122.049 39.4782 120.972 39.9423 120.154 40.8705C119.336 41.7914 118.927 43.1838 118.927 45.0477Z" fill="white"/>
<path d="M132.746 36.9586H143.622V39.6771H135.988V53.1588H132.746V36.9586Z" fill="white"/>
<path d="M144.188 53.1588V36.9586H149.39C151.362 36.9586 152.647 37.0397 153.246 37.2017C154.166 37.4449 154.936 37.9753 155.557 38.793C156.178 39.6034 156.488 40.6532 156.488 41.9424C156.488 42.937 156.309 43.7732 155.951 44.4509C155.593 45.1287 155.137 45.6628 154.582 46.0533C154.034 46.4363 153.476 46.6905 152.906 46.8157C152.132 46.9705 151.011 47.0478 149.544 47.0478H147.43V53.1588H144.188ZM147.43 39.6992V44.2962H149.204C150.482 44.2962 151.336 44.2115 151.767 44.0421C152.198 43.8726 152.534 43.6074 152.775 43.2464C153.023 42.8854 153.147 42.4655 153.147 41.9866C153.147 41.3973 152.976 40.9111 152.632 40.528C152.289 40.1449 151.855 39.9055 151.329 39.8097C150.942 39.736 150.164 39.6992 148.996 39.6992H147.43Z" fill="white"/>
<path d="M170.536 53.1588H167.01L165.608 49.4789H159.189L157.864 53.1588H154.424L160.679 36.9586H164.107L170.536 53.1588ZM164.567 46.7494L162.354 40.7379L160.186 46.7494H164.567Z" fill="white"/>
<path d="M171.102 53.1588V36.9586H175.954L178.867 48.0092L181.748 36.9586H186.611V53.1588H183.599V40.4064L180.412 53.1588H177.29L174.114 40.4064V53.1588H171.102Z" fill="white"/>
<path d="M188.666 53.1588V36.9586H193.518L196.432 48.0092L199.313 36.9586H204.176V53.1588H201.164V40.4064L197.976 53.1588H194.855L191.678 40.4064V53.1588H188.666Z" fill="white"/>
<path d="M206.285 53.1588V36.9586H209.527V43.3348H215.88V36.9586H219.122V53.1588H215.88V46.0754H209.527V53.1588H206.285Z" fill="white"/>
<path d="M220.706 45.1582C220.706 43.5079 220.951 42.1229 221.44 41.0031C221.805 40.178 222.302 39.4376 222.93 38.782C223.565 38.1263 224.259 37.6401 225.011 37.3233C226.011 36.896 227.165 36.6824 228.472 36.6824C230.838 36.6824 232.729 37.4228 234.146 38.9035C235.57 40.3843 236.282 42.4434 236.282 45.0808C236.282 47.6961 235.577 49.7442 234.168 51.2249C232.758 52.6983 230.874 53.435 228.516 53.435C226.128 53.435 224.229 52.702 222.82 51.236C221.411 49.7626 220.706 47.7366 220.706 45.1582ZM224.047 45.0477C224.047 46.8821 224.467 48.2744 225.307 49.2248C226.146 50.1678 227.212 50.6392 228.505 50.6392C229.797 50.6392 230.856 50.1714 231.681 49.2358C232.514 48.2928 232.93 46.8821 232.93 45.0035C232.93 43.147 232.525 41.762 231.714 40.8484C230.911 39.9349 229.841 39.4782 228.505 39.4782C227.169 39.4782 226.092 39.9423 225.274 40.8705C224.456 41.7914 224.047 43.1838 224.047 45.0477Z" fill="white"/>
<path d="M237.865 36.9586H248.742V39.6771H241.108V53.1588H237.865V36.9586Z" fill="white"/>
<path d="M248.343 45.1582C248.343 43.5079 248.588 42.1229 249.077 41.0031C249.442 40.178 249.939 39.4376 250.567 38.782C251.202 38.1263 251.896 37.6401 252.648 37.3233C253.648 36.896 254.802 36.6824 256.109 36.6824C258.475 36.6824 260.366 37.4228 261.783 38.9035C263.207 40.3843 263.919 42.4434 263.919 45.0808C263.919 47.6961 263.214 49.7442 261.805 51.2249C260.395 52.6983 258.511 53.435 256.153 53.435C253.765 53.435 251.866 52.702 250.457 51.236C249.048 49.7626 248.343 47.7366 248.343 45.1582ZM251.684 45.0477C251.684 46.8821 252.104 48.2744 252.944 49.2248C253.783 50.1678 254.849 50.6392 256.142 50.6392C257.434 50.6392 258.493 50.1714 259.318 49.2358C260.151 48.2928 260.567 46.8821 260.567 45.0035C260.567 43.147 260.162 41.762 259.351 40.8484C258.548 39.9349 257.478 39.4782 256.142 39.4782C254.806 39.4782 253.729 39.9423 252.911 40.8705C252.093 41.7914 251.684 43.1838 251.684 45.0477Z" fill="white"/>
<path d="M269.803 45.1582C269.803 43.5079 270.047 42.1229 270.536 41.0031C270.902 40.178 271.398 39.4376 272.026 38.782C272.661 38.1263 273.355 37.6401 274.107 37.3233C275.108 36.896 276.261 36.6824 277.568 36.6824C279.934 36.6824 281.826 37.4228 283.242 38.9035C284.666 40.3843 285.378 42.4434 285.378 45.0808C285.378 47.6961 284.673 49.7442 283.264 51.2249C281.855 52.6983 279.971 53.435 277.612 53.435C275.224 53.435 273.326 52.702 271.917 51.236C270.507 49.7626 269.803 47.7366 269.803 45.1582ZM273.143 45.0477C273.143 46.8821 273.563 48.2744 274.403 49.2248C275.243 50.1678 276.309 50.6392 277.601 50.6392C278.894 50.6392 279.953 50.1714 280.778 49.2358C281.61 48.2928 282.026 46.8821 282.026 45.0035C282.026 43.147 281.621 41.762 280.811 40.8484C280.007 39.9349 278.938 39.4782 277.601 39.4782C276.265 39.4782 275.188 39.9423 274.37 40.8705C273.552 41.7914 273.143 43.1838 273.143 45.0477Z" fill="white"/>
<path d="M286.863 36.9586H298.868V39.6771H290.105V43.4343H294.443C295.64 43.4343 296.633 43.5816 297.422 43.8763C298.211 44.171 298.882 44.7161 299.437 45.5118C300 46.3074 300.281 47.2394 300.281 48.3076C300.281 49.4053 300 50.3446 299.437 51.1255C298.875 51.9064 298.233 52.4405 297.51 52.7278C296.794 53.0151 295.772 53.1588 294.443 53.1588H286.863V36.9586ZM290.105 50.4403H293.26C294.268 50.4403 294.976 50.3925 295.385 50.2967C295.794 50.1935 296.148 49.9652 296.447 49.6115C296.754 49.2579 296.907 48.8233 296.907 48.3076C296.907 47.5561 296.641 47.011 296.108 46.6721C295.582 46.3258 294.68 46.1527 293.402 46.1527H290.105V50.4403Z" fill="white"/>
<path d="M301.799 53.1588V36.9586H313.705V39.6992H305.041V43.2906H313.103V46.0201H305.041V50.4293H314.012V53.1588H301.799Z" fill="white"/>
<path d="M325.913 47.2025L329.057 48.2081C328.575 49.9762 327.772 51.2912 326.647 52.1532C325.53 53.0078 324.11 53.435 322.386 53.435C320.254 53.435 318.502 52.702 317.129 51.236C315.756 49.7626 315.07 47.7514 315.07 45.2024C315.07 42.506 315.76 40.4138 317.14 38.9256C318.52 37.4301 320.335 36.6824 322.584 36.6824C324.548 36.6824 326.143 37.2681 327.37 38.4394C328.1 39.1319 328.648 40.1265 329.013 41.4231L325.804 42.1966C325.614 41.3568 325.216 40.6937 324.61 40.2075C324.011 39.7213 323.281 39.4782 322.419 39.4782C321.229 39.4782 320.262 39.9091 319.517 40.7711C318.779 41.633 318.41 43.0291 318.41 44.9593C318.41 47.0073 318.776 48.466 319.506 49.3353C320.236 50.2046 321.185 50.6392 322.354 50.6392C323.215 50.6392 323.956 50.363 324.577 49.8105C325.198 49.2579 325.643 48.3886 325.913 47.2025Z" fill="white"/>
<path d="M330.772 36.9586H343.544V53.1588H340.301V39.6771H334.014V53.1588H330.772V36.9586Z" fill="white"/>
<path d="M345.73 53.1588V36.9586H357.636V39.6992H348.972V43.2906H357.033V46.0201H348.972V50.4293H357.943V53.1588H345.73Z" fill="white"/>
<path d="M359.307 36.9586H362.549V40.8263C362.549 42.0787 362.593 42.9112 362.681 43.3238C362.776 43.729 363.05 44.0826 363.502 44.3846C363.955 44.6867 364.62 44.8377 365.496 44.8377C366.19 44.8377 366.807 44.764 367.347 44.6167C367.887 44.462 368.355 44.2373 368.749 43.9426V36.9586H371.991V53.1588H368.749V46.6389C368.092 46.9336 367.446 47.1583 366.81 47.313C366.175 47.4604 365.551 47.534 364.937 47.534C363.338 47.534 361.998 47.1546 360.917 46.3958C359.844 45.6297 359.307 44.3073 359.307 42.4287V36.9586Z" fill="white"/>
<path d="M374.221 53.1588V36.9586H386.127V39.6992H377.463V43.2906H385.525V46.0201H377.463V50.4293H386.434V53.1588H374.221Z" fill="white"/>
<path d="M388.072 53.1588V36.9586H391.315V43.3348H397.667V36.9586H400.91V53.1588H397.667V46.0754H391.315V53.1588H388.072Z" fill="white"/>
<path d="M403.194 36.9586H406.228V47.744L412.735 36.9586H415.966V53.1588H412.932V42.5834L406.437 53.1588H403.194V36.9586Z" fill="white"/>
<path d="M427.758 53.1588V46.3958H427.101C426.078 46.3958 425.356 46.5505 424.932 46.86C424.516 47.1694 423.8 48.0939 422.785 49.6336L420.441 53.1588H416.564L418.524 49.9983C419.298 48.7459 419.915 47.8692 420.375 47.3683C420.836 46.86 421.412 46.4069 422.106 46.0091C420.609 45.7733 419.528 45.2503 418.864 44.4399C418.199 43.6221 417.867 42.646 417.867 41.5115C417.867 40.5243 418.112 39.6513 418.601 38.8925C419.098 38.1263 419.748 37.6143 420.551 37.3565C421.361 37.0912 422.57 36.9586 424.176 36.9586H431V53.1588H427.758ZM427.758 39.6992H425.228C423.943 39.6992 423.096 39.7286 422.687 39.7876C422.285 39.8465 421.938 40.0454 421.646 40.3843C421.354 40.7232 421.208 41.1652 421.208 41.7104C421.208 42.2776 421.347 42.7307 421.624 43.0696C421.909 43.4011 422.267 43.6074 422.698 43.6884C423.136 43.7695 424.023 43.81 425.359 43.81H427.758V39.6992Z" fill="white"/>
<defs>
<clipPath id="clip0_872_52517">
<rect width="57.3843" height="60" fill="white"/>
</clipPath>
</defs>
</svg>
