<svg width="214" height="210" viewBox="0 0 214 210" fill="none" xmlns="http://www.w3.org/2000/svg">
<g clip-path="url(#clip0_1723_73142)">
<rect width="156.426" height="156.426" rx="40" transform="matrix(0.704734 -0.709472 0.704734 0.709472 10 94.4453)" fill="url(#paint0_linear_1723_73142)"/>
</g>
<g filter="url(#filter0_b_1723_73142)">
<ellipse cx="97.5004" cy="112.394" rx="97.5004" ry="97.6053" fill="url(#paint1_linear_1723_73142)" fill-opacity="0.3"/>
<path d="M193.501 112.394C193.501 165.473 150.518 208.5 97.5004 208.5C44.4824 208.5 1.5 165.473 1.5 112.394C1.5 59.3153 44.4824 16.2891 97.5004 16.2891C150.518 16.2891 193.501 59.3153 193.501 112.394Z" stroke="url(#paint2_linear_1723_73142)" stroke-width="3"/>
</g>
<path d="M91.7486 82.3362L91.7485 82.3366C91.4035 83.511 90.8005 84.5934 89.9835 85.5044C89.1666 86.4153 88.1563 87.1316 87.0266 87.6006C85.897 88.0696 84.6768 88.2793 83.4555 88.2142C82.2343 88.1491 81.0432 87.8109 79.9697 87.2245L79.9663 87.2226L78.5539 86.4464C78.5531 86.446 78.5524 86.4456 78.5517 86.4452C74.0114 83.972 69.0234 88.9464 71.5083 93.5142L71.5093 93.516L72.2815 94.9401C72.2816 94.9402 72.2816 94.9404 72.2817 94.9406C74.7731 99.5321 72.4117 105.255 67.403 106.736L67.4019 106.736L65.8491 107.194C65.8491 107.194 65.849 107.194 65.849 107.194C60.8836 108.662 60.8837 115.721 65.8491 117.189L67.4019 117.646L67.4023 117.646C68.5753 117.993 69.6559 118.597 70.565 119.416C71.474 120.235 72.1883 121.247 72.6558 122.379C73.1234 123.51 73.3323 124.731 73.2674 125.954C73.2026 127.176 72.8655 128.369 72.2808 129.444L72.279 129.447L71.5044 130.863C71.5041 130.863 71.5037 130.864 71.5033 130.865C69.0208 135.442 74.0176 140.408 78.5481 137.932L78.5499 137.931L79.9697 137.158C81.0432 136.572 82.2343 136.234 83.4555 136.168C84.6768 136.103 85.897 136.313 87.0266 136.782C88.1563 137.251 89.1666 137.967 89.9835 138.878C90.8005 139.789 91.4035 140.872 91.7485 142.046L91.7486 142.046L92.2053 143.603C92.2054 143.603 92.2055 143.603 92.2055 143.604C93.6711 148.58 100.704 148.58 102.17 143.604C102.17 143.603 102.17 143.603 102.17 143.603L102.627 142.046L102.627 142.046C102.972 140.872 103.575 139.789 104.392 138.878C105.209 137.967 106.219 137.251 107.349 136.782C108.478 136.313 109.699 136.103 110.92 136.168C112.141 136.234 113.332 136.572 114.406 137.158L114.409 137.16L115.821 137.936C115.822 137.937 115.822 137.937 115.823 137.937C120.363 140.411 125.352 135.437 122.867 130.869L122.866 130.867L122.094 129.444C121.51 128.369 121.173 127.176 121.108 125.954C121.043 124.731 121.252 123.51 121.719 122.379C122.187 121.247 122.901 120.235 123.81 119.416C124.719 118.597 125.8 117.993 126.973 117.646L126.973 117.646L128.526 117.189C133.492 115.72 133.492 108.662 128.526 107.194L126.973 106.736L126.973 106.736C125.8 106.39 124.719 105.785 123.81 104.966C122.901 104.147 122.187 103.135 121.719 102.004C121.252 100.873 121.043 99.6514 121.108 98.429C121.173 97.2066 121.51 96.0141 122.094 94.9389L122.096 94.9355L122.871 93.52C122.871 93.5191 122.872 93.5183 122.872 93.5175C125.354 88.94 120.358 83.9746 115.827 86.4503L115.825 86.4513L114.406 87.2245C114.405 87.2247 114.405 87.2249 114.404 87.2251C113.331 87.8111 112.141 88.1492 110.92 88.2142C109.699 88.2793 108.478 88.0696 107.349 87.6006C106.219 87.1316 105.209 86.4153 104.392 85.5044C103.575 84.5934 102.972 83.511 102.627 82.3366L102.627 82.3362L102.17 80.78L91.7486 82.3362ZM91.7486 82.3362L92.2053 80.78C92.2054 80.7797 92.2055 80.7794 92.2056 80.7791M91.7486 82.3362L92.2056 80.7791M92.2056 80.7791C92.2056 80.779 92.2056 80.7789 92.2056 80.7788L92.2056 80.7791ZM97.1876 127.112H98.6876V127.027C102.086 126.683 105.279 125.174 107.715 122.733C110.507 119.935 112.074 116.142 112.074 112.187C112.074 108.232 110.507 104.438 107.715 101.64C104.924 98.8427 101.137 97.2703 97.1876 97.2703C93.2372 97.2703 89.4492 98.8432 86.6569 101.642C83.8646 104.44 82.2966 108.235 82.2966 112.191C82.2966 116.148 83.8646 119.942 86.6569 122.741C89.4492 125.54 93.2372 127.112 97.1876 127.112Z" stroke="#03060A" stroke-width="3"/>
<path d="M185.478 100.539H138.326C138.326 100.539 138.326 100.539 138.326 100.539C138.042 100.539 137.764 100.62 137.524 100.773C137.284 100.926 137.092 101.145 136.971 101.404C136.849 101.664 136.804 101.952 136.841 102.237C136.878 102.521 136.994 102.788 137.177 103.008L160.753 131.372L185.478 100.539ZM185.478 100.539L185.479 100.539C185.479 100.539 185.479 100.539 185.478 100.539ZM162.536 131.771C162.735 131.678 162.911 131.542 163.051 131.373L162.536 131.771ZM162.536 131.771C162.338 131.864 162.121 131.912 161.902 131.912M162.536 131.771L161.902 131.912M161.902 131.912C161.683 131.912 161.467 131.864 161.268 131.771M161.902 131.912L161.268 131.771M161.268 131.771C161.07 131.678 160.894 131.542 160.753 131.373L161.268 131.771ZM57.3139 124.709C57.3141 124.709 57.3143 124.709 57.3145 124.709C57.5982 124.709 57.8763 124.628 58.1162 124.475C58.3563 124.322 58.5483 124.103 58.6695 123.844C58.7906 123.584 58.8356 123.296 58.799 123.011C58.7625 122.727 58.6459 122.46 58.4634 122.24C58.4634 122.24 58.4634 122.24 58.4634 122.24L34.8872 93.8757L57.3139 124.709ZM57.3139 124.709H10.1616H57.3139ZM34.3717 93.4773C34.5701 93.5704 34.7459 93.7061 34.8867 93.8751H32.5888C32.7295 93.7061 32.9054 93.5704 33.1037 93.4773C33.3023 93.3842 33.5187 93.3359 33.7377 93.3359C33.9567 93.3359 34.1732 93.3842 34.3717 93.4773ZM9.01211 122.24L32.5883 93.8757L10.161 124.709C9.87726 124.709 9.59919 124.628 9.35929 124.475C9.1192 124.322 8.92712 124.103 8.806 123.844C8.68486 123.584 8.63984 123.296 8.67643 123.011C8.713 122.727 8.82959 122.46 9.01211 122.24Z" stroke="#03060A" stroke-width="3"/>
<path d="M97.5325 50.9613H97.5323C78.4532 50.9613 61.3899 59.674 50.1203 73.3584L50.1047 73.3774L50.0896 73.397C49.7212 73.8756 49.2606 74.2749 48.7355 74.5712C48.2104 74.8675 47.6313 75.0549 47.0328 75.1224C46.4342 75.1898 45.8282 75.136 45.2508 74.964C44.6733 74.792 44.1361 74.5053 43.671 74.1208C43.206 73.7363 42.8226 73.2618 42.5438 72.7255C42.2651 72.1891 42.0967 71.6019 42.0489 70.9988C42.001 70.3956 42.0747 69.789 42.2654 69.2151C42.4561 68.6412 42.76 68.1118 43.1587 67.6583L43.1745 67.6403L43.1898 67.6218C51.7877 57.1889 63.1942 49.451 76.0525 45.3279C88.9106 41.2049 102.68 40.8701 115.722 44.3633C128.765 47.8566 140.532 55.0309 149.625 65.0336C158.318 74.5975 164.217 86.3622 166.692 99.0376H157.507C154.488 85.6097 147.066 73.5676 136.408 64.8476C125.433 55.8685 111.701 50.963 97.5325 50.9613ZM45.4397 160.08C36.7461 150.516 30.8476 138.751 28.3722 126.076H37.5582C40.0175 137.002 45.4047 147.059 53.1501 155.157C61.1781 163.55 71.4121 169.497 82.6698 172.308C93.9275 175.119 105.749 174.681 116.769 171.044C127.789 167.407 137.556 160.72 144.944 151.755L144.96 151.736L144.975 151.716C145.343 151.238 145.804 150.838 146.329 150.542C146.854 150.246 147.433 150.058 148.032 149.991C148.63 149.923 149.236 149.977 149.814 150.149C150.391 150.321 150.928 150.608 151.394 150.993C151.859 151.377 152.242 151.851 152.521 152.388C152.799 152.924 152.968 153.511 153.016 154.115C153.064 154.718 152.99 155.324 152.799 155.898C152.608 156.472 152.305 157.002 151.906 157.455L151.89 157.473L151.875 157.492C143.277 167.924 131.87 175.662 119.012 179.785C106.154 183.908 92.3848 184.243 79.3423 180.75C66.2997 177.257 54.5323 170.082 45.4397 160.08Z" stroke="#03060A" stroke-width="3"/>
<defs>
<filter id="filter0_b_1723_73142" x="-40" y="-25.2109" width="275.001" height="275.211" filterUnits="userSpaceOnUse" color-interpolation-filters="sRGB">
<feFlood flood-opacity="0" result="BackgroundImageFix"/>
<feGaussianBlur in="BackgroundImageFix" stdDeviation="20"/>
<feComposite in2="SourceAlpha" operator="in" result="effect1_backgroundBlur_1723_73142"/>
<feBlend mode="normal" in="SourceGraphic" in2="effect1_backgroundBlur_1723_73142" result="shape"/>
</filter>
<linearGradient id="paint0_linear_1723_73142" x1="61.843" y1="-100.854" x2="242.049" y2="38.934" gradientUnits="userSpaceOnUse">
<stop stop-color="#FFF7AD"/>
<stop offset="1" stop-color="#FFB800"/>
</linearGradient>
<linearGradient id="paint1_linear_1723_73142" x1="22.8081" y1="-147.349" x2="301.36" y2="-24.6986" gradientUnits="userSpaceOnUse">
<stop stop-color="white" stop-opacity="0.97"/>
<stop offset="1" stop-color="white" stop-opacity="0"/>
</linearGradient>
<linearGradient id="paint2_linear_1723_73142" x1="178.983" y1="226.133" x2="103.518" y2="-29.8323" gradientUnits="userSpaceOnUse">
<stop stop-color="white"/>
<stop offset="1" stop-color="white" stop-opacity="0"/>
</linearGradient>
<clipPath id="clip0_1723_73142">
<rect width="188" height="189.204" fill="white" transform="translate(26)"/>
</clipPath>
</defs>
</svg>
