<svg width="214" height="210" viewBox="0 0 214 210" fill="none" xmlns="http://www.w3.org/2000/svg">
<g clip-path="url(#clip0_1723_73138)">
<rect width="156.426" height="156.426" rx="40" transform="matrix(0.704734 -0.709472 0.704734 0.709472 10 94.4453)" fill="url(#paint0_linear_1723_73138)"/>
</g>
<g filter="url(#filter0_b_1723_73138)">
<ellipse cx="97.5004" cy="112.394" rx="97.5004" ry="97.6053" fill="url(#paint1_linear_1723_73138)" fill-opacity="0.3"/>
<path d="M193.501 112.394C193.501 165.473 150.518 208.5 97.5004 208.5C44.4824 208.5 1.5 165.473 1.5 112.394C1.5 59.3153 44.4824 16.2891 97.5004 16.2891C150.518 16.2891 193.501 59.3153 193.501 112.394Z" stroke="url(#paint2_linear_1723_73138)" stroke-width="3"/>
</g>
<path d="M105.966 69.6482H107.192L107.436 68.4466C108.292 64.2283 110.58 60.4359 113.912 57.712C117.244 54.988 121.415 53.5 125.719 53.5C130.022 53.5 134.193 54.988 137.525 57.712C140.857 60.4359 143.145 64.2283 144.002 68.4466L144.246 69.6482H145.472H160.5V74.7121H145.472H144.246L144.002 75.9137C143.145 80.132 140.857 83.9244 137.525 86.6483C134.193 89.3723 130.022 90.8603 125.719 90.8603C121.415 90.8603 117.244 89.3723 113.912 86.6483C110.58 83.9244 108.292 80.132 107.436 75.9137L107.192 74.7121H105.966H34.5V69.6482H105.966ZM49.5281 109.968H50.7542L50.9981 108.766C51.8545 104.548 54.1427 100.756 57.4747 98.0318C60.8068 95.3079 64.9779 93.8199 69.2812 93.8199C73.5846 93.8199 77.7557 95.3079 81.0878 98.0318C84.4198 100.756 86.708 104.548 87.5644 108.766L87.8083 109.968H89.0344H160.5V115.032H89.0344H87.8083L87.5644 116.234C86.708 120.452 84.4198 124.244 81.0878 126.968C77.7557 129.692 73.5846 131.18 69.2812 131.18C64.9779 131.18 60.8068 129.692 57.4747 126.968C54.1427 124.244 51.8545 120.452 50.9981 116.234L50.7542 115.032H49.5281H34.5V109.968H49.5281ZM105.966 150.288H107.192L107.436 149.086C108.292 144.868 110.58 141.076 113.912 138.352C117.244 135.628 121.415 134.14 125.719 134.14C130.022 134.14 134.193 135.628 137.525 138.352C140.857 141.076 143.145 144.868 144.002 149.086L144.246 150.288H145.472H160.5V155.352H145.472H144.246L144.002 156.553C143.145 160.772 140.857 164.564 137.525 167.288C134.193 170.012 130.022 171.5 125.719 171.5C121.415 171.5 117.244 170.012 113.912 167.288C110.58 164.564 108.292 160.772 107.436 156.553L107.192 155.352H105.966H34.5V150.288H105.966ZM125.719 58.5842C123.934 58.5842 122.166 58.9359 120.517 59.6192C118.867 60.3024 117.369 61.3039 116.106 62.5664C114.844 63.829 113.843 65.3278 113.16 66.9773C112.477 68.6268 112.125 70.3947 112.125 72.1801C112.125 73.9655 112.477 75.7335 113.16 77.383C113.843 79.0325 114.844 80.5313 116.106 81.7938C117.369 83.0564 118.867 84.0578 120.517 84.7411C122.166 85.4244 123.934 85.7761 125.719 85.7761C129.324 85.7761 132.782 84.3436 135.331 81.7938C137.88 79.2441 139.312 75.7859 139.312 72.1801C139.312 68.5744 137.88 65.1162 135.331 62.5664C132.782 60.0167 129.324 58.5842 125.719 58.5842ZM69.2812 98.904C65.6759 98.904 62.2182 100.337 59.6689 102.886C57.1196 105.436 55.6875 108.894 55.6875 112.5C55.6875 116.106 57.1196 119.564 59.6689 122.114C62.2182 124.663 65.6759 126.096 69.2812 126.096C72.8866 126.096 76.3443 124.663 78.8936 122.114C81.4429 119.564 82.875 116.106 82.875 112.5C82.875 108.894 81.4429 105.436 78.8936 102.886C76.3443 100.337 72.8866 98.904 69.2812 98.904ZM125.719 139.224C122.113 139.224 118.656 140.656 116.106 143.206C113.557 145.756 112.125 149.214 112.125 152.82C112.125 156.426 113.557 159.884 116.106 162.434C118.656 164.983 122.113 166.416 125.719 166.416C129.324 166.416 132.782 164.983 135.331 162.434C137.88 159.884 139.312 156.426 139.312 152.82C139.312 149.214 137.88 145.756 135.331 143.206C132.782 140.656 129.324 139.224 125.719 139.224Z" stroke="#03060A" stroke-width="3"/>
<defs>
<filter id="filter0_b_1723_73138" x="-40" y="-25.2109" width="275.001" height="275.211" filterUnits="userSpaceOnUse" color-interpolation-filters="sRGB">
<feFlood flood-opacity="0" result="BackgroundImageFix"/>
<feGaussianBlur in="BackgroundImageFix" stdDeviation="20"/>
<feComposite in2="SourceAlpha" operator="in" result="effect1_backgroundBlur_1723_73138"/>
<feBlend mode="normal" in="SourceGraphic" in2="effect1_backgroundBlur_1723_73138" result="shape"/>
</filter>
<linearGradient id="paint0_linear_1723_73138" x1="61.843" y1="-100.854" x2="242.049" y2="38.934" gradientUnits="userSpaceOnUse">
<stop stop-color="#FFF7AD"/>
<stop offset="1" stop-color="#FFB800"/>
</linearGradient>
<linearGradient id="paint1_linear_1723_73138" x1="22.8081" y1="-147.349" x2="301.36" y2="-24.6986" gradientUnits="userSpaceOnUse">
<stop stop-color="white" stop-opacity="0.97"/>
<stop offset="1" stop-color="white" stop-opacity="0"/>
</linearGradient>
<linearGradient id="paint2_linear_1723_73138" x1="178.983" y1="226.133" x2="103.518" y2="-29.8323" gradientUnits="userSpaceOnUse">
<stop stop-color="white"/>
<stop offset="1" stop-color="white" stop-opacity="0"/>
</linearGradient>
<clipPath id="clip0_1723_73138">
<rect width="188" height="189.204" fill="white" transform="translate(26)"/>
</clipPath>
</defs>
</svg>
