<svg width="214" height="210" viewBox="0 0 214 210" fill="none" xmlns="http://www.w3.org/2000/svg">
<g clip-path="url(#clip0_1723_73134)">
<rect width="156.426" height="156.426" rx="40" transform="matrix(0.704734 -0.709472 0.704734 0.709472 10 94.4453)" fill="url(#paint0_linear_1723_73134)"/>
</g>
<g filter="url(#filter0_b_1723_73134)">
<ellipse cx="97.5004" cy="112.394" rx="97.5004" ry="97.6053" fill="url(#paint1_linear_1723_73134)" fill-opacity="0.3"/>
<path d="M193.501 112.394C193.501 165.473 150.518 208.5 97.5004 208.5C44.4824 208.5 1.5 165.473 1.5 112.394C1.5 59.3153 44.4824 16.2891 97.5004 16.2891C150.518 16.2891 193.501 59.3153 193.501 112.394Z" stroke="url(#paint2_linear_1723_73134)" stroke-width="3"/>
</g>
<path d="M68.5411 76.7909L68.5314 76.8109L68.5225 76.8312C68.1808 77.6157 68.1098 77.7808 67.9225 78.3356L63.9943 79.7938C71.2582 60.6213 89.7204 47 111.349 47C139.319 47 162.001 69.784 162.001 97.8995C162.001 118.97 149.262 137.044 131.108 144.78C130.667 144.968 129.696 145.351 128.671 145.706C128.45 145.783 128.232 145.857 128.019 145.926C128.309 145.29 128.57 144.689 128.799 144.151C128.936 143.829 129.06 143.536 129.17 143.274C129.36 142.822 129.512 142.462 129.63 142.201C129.868 142.08 130.255 141.89 130.984 141.559C147.522 134.04 159.023 117.316 159.023 97.8995C159.023 71.4511 137.683 50.0024 111.349 50.0024C92.5585 50.0024 76.3068 60.9245 68.5411 76.7909Z" stroke="#03060A" stroke-width="2"/>
<mask id="path-5-inside-1_1723_73134" fill="white">
<path fill-rule="evenodd" clip-rule="evenodd" d="M68.8748 76.9671L68.8809 76.9546C76.5866 61.2106 92.7105 50.3771 111.349 50.3771C137.47 50.3771 158.645 71.6536 158.645 97.8995C158.645 117.166 147.233 133.759 130.826 141.218C129.959 141.613 129.569 141.809 129.341 141.928C129.21 142.207 129.035 142.621 128.813 143.15C128.704 143.409 128.584 143.695 128.451 144.005C128.132 144.754 127.754 145.621 127.321 146.533C127.777 146.402 128.285 146.237 128.795 146.06C129.828 145.702 130.807 145.316 131.257 145.125C149.547 137.331 162.379 119.123 162.379 97.8995C162.379 69.5815 139.532 46.6253 111.349 46.6253C89.2676 46.6253 70.4664 60.7154 63.3566 80.4306L68.2239 78.6238C68.453 77.9369 68.4993 77.8292 68.8692 76.9798L68.8748 76.9671ZM68.7196 79.1064C68.8725 78.6456 68.9503 78.4112 69.0383 78.1808C69.1294 77.9421 69.2315 77.7077 69.4393 77.2305C77.0444 61.6922 92.9566 51.0024 111.349 51.0024C137.126 51.0024 158.023 71.9989 158.023 97.8995C158.023 116.912 146.762 133.287 130.57 140.649C129.535 141.119 129.167 141.313 128.948 141.428C128.921 141.443 128.896 141.456 128.872 141.468C128.724 141.756 128.507 142.272 128.226 142.939C127.801 143.949 127.23 145.306 126.532 146.736C126.42 146.966 126.304 147.199 126.186 147.432C126.404 147.404 126.668 147.35 126.96 147.278C128.464 146.904 130.723 146.031 131.5 145.7C150.011 137.812 163.001 119.383 163.001 97.8995C163.001 69.2362 139.876 46 111.349 46C88.8128 46 69.6538 60.4992 62.5957 80.7131C62.5072 80.9666 62.4206 81.2209 62.3359 81.4761L68.7196 79.1064Z"/>
</mask>
<path d="M68.8809 76.9546L70.6773 77.8338L70.6773 77.8338L68.8809 76.9546ZM68.8748 76.9671L67.0784 76.0879L67.0589 76.1277L67.0412 76.1684L68.8748 76.9671ZM130.826 141.218L131.654 143.039L130.826 141.218ZM129.341 141.928L128.416 140.154L127.817 140.467L127.53 141.078L129.341 141.928ZM128.813 143.15L130.656 143.926L130.656 143.926L128.813 143.15ZM128.451 144.005L126.611 143.221L126.611 143.221L128.451 144.005ZM127.321 146.533L125.514 145.676L123.614 149.68L127.874 148.455L127.321 146.533ZM128.795 146.06L129.451 147.95H129.451L128.795 146.06ZM131.257 145.125L132.041 146.965L132.041 146.965L131.257 145.125ZM63.3566 80.4306L61.4752 79.7522L60.0137 83.8049L64.0527 82.3056L63.3566 80.4306ZM68.2239 78.6238L68.9199 80.4988L69.818 80.1654L70.1211 79.2567L68.2239 78.6238ZM68.8692 76.9798L67.0356 76.1811L67.0356 76.1812L68.8692 76.9798ZM69.0383 78.1808L67.1699 77.4673L67.1698 77.4673L69.0383 78.1808ZM68.7196 79.1064L69.4156 80.9814L70.3156 80.6473L70.6179 79.7362L68.7196 79.1064ZM69.4393 77.2305L67.643 76.3513L67.6235 76.3912L67.6057 76.4319L69.4393 77.2305ZM130.57 140.649L129.742 138.828L130.57 140.649ZM128.948 141.428L129.881 143.198L129.881 143.198L128.948 141.428ZM128.872 141.468L127.948 139.695L127.386 139.987L127.095 140.551L128.872 141.468ZM128.226 142.939L130.069 143.714L128.226 142.939ZM126.532 146.736L128.33 147.613V147.613L126.532 146.736ZM126.186 147.432L124.404 146.523L122.69 149.884L126.434 149.416L126.186 147.432ZM126.96 147.278L127.443 149.219L127.443 149.219L126.96 147.278ZM131.5 145.7L132.284 147.54L132.284 147.54L131.5 145.7ZM62.5957 80.7131L64.4839 81.3724L64.4839 81.3724L62.5957 80.7131ZM62.3359 81.4761L60.4377 80.8464L59.1256 84.8012L63.032 83.3511L62.3359 81.4761ZM67.0845 76.0754L67.0784 76.0879L70.6711 77.8463L70.6773 77.8338L67.0845 76.0754ZM111.349 48.3771C91.9143 48.3771 75.1114 59.6752 67.0845 76.0754L70.6773 77.8338C78.0618 62.746 93.5067 52.3771 111.349 52.3771V48.3771ZM160.645 97.8995C160.645 70.558 138.583 48.3771 111.349 48.3771V52.3771C136.356 52.3771 156.645 72.7491 156.645 97.8995H160.645ZM131.654 143.039C148.752 135.265 160.645 117.975 160.645 97.8995H156.645C156.645 116.358 145.714 132.253 129.999 139.398L131.654 143.039ZM130.265 143.701C130.453 143.603 130.809 143.423 131.654 143.039L129.999 139.398C129.108 139.803 128.685 140.014 128.416 140.154L130.265 143.701ZM130.656 143.926C130.886 143.379 131.042 143.01 131.151 142.778L127.53 141.078C127.378 141.403 127.184 141.864 126.97 142.374L130.656 143.926ZM130.291 144.789C130.426 144.474 130.548 144.184 130.656 143.926L126.97 142.374C126.861 142.633 126.742 142.915 126.611 143.221L130.291 144.789ZM129.128 147.39C129.577 146.444 129.967 145.55 130.291 144.789L126.611 143.221C126.298 143.958 125.931 144.798 125.514 145.676L129.128 147.39ZM128.14 144.171C127.651 144.34 127.179 144.493 126.768 144.611L127.874 148.455C128.374 148.311 128.918 148.135 129.451 147.95L128.14 144.171ZM130.473 143.285C130.069 143.457 129.133 143.826 128.14 144.171L129.451 147.95C130.522 147.578 131.545 147.176 132.041 146.965L130.473 143.285ZM160.379 97.8995C160.379 118.298 148.048 135.796 130.473 143.285L132.041 146.965C151.046 138.866 164.379 119.948 164.379 97.8995H160.379ZM111.349 48.6253C138.418 48.6253 160.379 70.6771 160.379 97.8995H164.379C164.379 68.4859 140.645 44.6253 111.349 44.6253V48.6253ZM65.238 81.1091C72.0727 62.1568 90.1421 48.6253 111.349 48.6253V44.6253C88.393 44.6253 68.8602 59.274 61.4752 79.7522L65.238 81.1091ZM67.5279 76.7489L62.6606 78.5556L64.0527 82.3056L68.9199 80.4988L67.5279 76.7489ZM67.0356 76.1812C66.6534 77.0587 66.5818 77.2261 66.3267 77.991L70.1211 79.2567C70.234 78.9183 70.2886 78.7628 70.354 78.5971C70.4248 78.4179 70.5127 78.2151 70.7028 77.7785L67.0356 76.1812ZM67.0412 76.1684L67.0356 76.1811L70.7028 77.7786L70.7084 77.7658L67.0412 76.1684ZM67.1698 77.4673C67.0624 77.7486 66.9691 78.0314 66.8214 78.4767L70.6179 79.7362C70.7759 79.2598 70.8381 79.0738 70.9067 78.8942L67.1698 77.4673ZM67.6057 76.4319C67.4049 76.893 67.2812 77.1758 67.1699 77.4673L70.9067 78.8942C70.9776 78.7084 71.0581 78.5224 71.2729 78.0292L67.6057 76.4319ZM111.349 49.0024C92.1605 49.0024 75.5692 60.1568 67.643 76.3513L71.2357 78.1098C78.5196 63.2277 93.7527 53.0024 111.349 53.0024V49.0024ZM160.023 97.8995C160.023 70.9033 138.24 49.0024 111.349 49.0024V53.0024C136.013 53.0024 156.023 73.0945 156.023 97.8995H160.023ZM131.398 142.469C148.281 134.793 160.023 117.72 160.023 97.8995H156.023C156.023 116.103 145.243 131.781 129.742 138.828L131.398 142.469ZM129.881 143.198C130.063 143.102 130.397 142.924 131.398 142.469L129.742 138.828C128.674 139.314 128.27 139.525 128.016 139.659L129.881 143.198ZM129.796 143.242C129.825 143.227 129.854 143.212 129.881 143.198L128.016 139.659C127.987 139.674 127.967 139.685 127.948 139.695L129.796 143.242ZM130.069 143.714C130.368 143.004 130.547 142.585 130.649 142.386L127.095 140.551C126.901 140.927 126.645 141.539 126.383 142.163L130.069 143.714ZM128.33 147.613C129.055 146.126 129.645 144.723 130.069 143.714L126.383 142.163C125.957 143.175 125.405 144.485 124.735 145.859L128.33 147.613ZM127.967 148.34C128.092 148.096 128.213 147.853 128.33 147.613L124.735 145.859C124.627 146.08 124.517 146.301 124.404 146.523L127.967 148.34ZM126.478 145.337C126.224 145.4 126.046 145.433 125.938 145.447L126.434 149.416C126.763 149.375 127.112 149.301 127.443 149.219L126.478 145.337ZM130.716 143.86C129.973 144.177 127.828 145.001 126.478 145.337L127.443 149.219C129.099 148.807 131.473 147.886 132.284 147.54L130.716 143.86ZM161.001 97.8995C161.001 118.557 148.512 136.277 130.716 143.86L132.284 147.54C151.511 139.347 165.001 120.208 165.001 97.8995H161.001ZM111.349 48C138.762 48 161.001 70.3318 161.001 97.8995H165.001C165.001 68.1406 140.989 44 111.349 44V48ZM64.4839 81.3724C71.2721 61.9314 89.6946 48 111.349 48V44C87.931 44 68.0354 59.067 60.7075 80.0538L64.4839 81.3724ZM64.2342 82.1059C64.3156 81.8605 64.3988 81.616 64.4839 81.3724L60.7075 80.0538C60.6156 80.3171 60.5256 80.5813 60.4377 80.8464L64.2342 82.1059ZM68.0236 77.2314L61.6399 79.6012L63.032 83.3511L69.4156 80.9814L68.0236 77.2314Z" fill="#03060A" mask="url(#path-5-inside-1_1723_73134)"/>
<path d="M126.084 122.66L129.039 122.273C129.229 124.022 129.327 125.8 129.327 127.601C129.327 129.403 129.229 131.181 129.039 132.93L126.084 132.543C126.259 130.921 126.349 129.273 126.349 127.601C126.349 125.93 126.259 124.282 126.084 122.66ZM117.613 100.766L119.978 98.9404C122.066 101.79 123.85 104.879 125.283 108.157L122.529 109.304C121.198 106.271 119.545 103.41 117.613 100.766ZM100.52 83.2702C103.781 84.71 106.853 86.5026 109.688 88.6001L107.869 90.9787C105.239 89.0393 102.394 87.3797 99.3761 86.0428L100.52 83.2702ZM76.2506 82.4704L75.864 79.4927C77.604 79.3014 79.3722 79.2031 81.1636 79.2031C82.955 79.2031 84.7232 79.3014 86.4632 79.4927L86.0767 82.4704C84.4641 82.2954 82.825 82.2055 81.1636 82.2055C79.5022 82.2055 77.8631 82.2954 76.2506 82.4704ZM62.9511 86.0428C59.9335 87.3797 57.088 89.0393 54.4579 90.9787L52.6388 88.6001C55.4742 86.5026 58.5461 84.71 61.8068 83.2702L62.9511 86.0428ZM39.7981 109.304L37.0447 108.157C38.4775 104.879 40.2617 101.79 42.3495 98.9404L44.7144 100.766C42.7825 103.41 41.1295 106.271 39.7981 109.304ZM33 127.601C33 125.8 33.0979 124.022 33.2885 122.273L36.2429 122.66C36.0683 124.282 35.9786 125.93 35.9786 127.601C35.9786 129.273 36.0683 130.921 36.2429 132.543L33.2885 132.93C33.0979 131.181 33 129.403 33 127.601ZM44.7144 154.436L42.3495 156.262C40.2617 153.412 38.4775 150.324 37.0447 147.046L39.7981 145.899C41.1295 148.932 42.7825 151.793 44.7144 154.436ZM62.9511 169.16L61.8068 171.933C58.5461 170.493 55.4742 168.7 52.6388 166.603L54.4579 164.224C57.088 166.164 59.9335 167.823 62.9511 169.16ZM86.0767 172.732L86.4632 175.71C84.7232 175.901 82.955 176 81.1636 176C79.3722 176 77.604 175.901 75.864 175.71L76.2506 172.732C77.8631 172.907 79.5022 172.997 81.1636 172.997C82.825 172.997 84.4641 172.907 86.0767 172.732ZM99.3761 169.16C102.394 167.823 105.239 166.164 107.869 164.224L109.688 166.603C106.853 168.7 103.781 170.493 100.52 171.933L99.3761 169.16ZM117.613 154.436C119.545 151.793 121.198 148.932 122.529 145.899L125.283 147.046C123.85 150.324 122.066 153.412 119.978 156.262L117.613 154.436Z" stroke="#03060A" stroke-width="2" stroke-linecap="round" stroke-linejoin="round"/>
<defs>
<filter id="filter0_b_1723_73134" x="-40" y="-25.2109" width="275.001" height="275.211" filterUnits="userSpaceOnUse" color-interpolation-filters="sRGB">
<feFlood flood-opacity="0" result="BackgroundImageFix"/>
<feGaussianBlur in="BackgroundImageFix" stdDeviation="20"/>
<feComposite in2="SourceAlpha" operator="in" result="effect1_backgroundBlur_1723_73134"/>
<feBlend mode="normal" in="SourceGraphic" in2="effect1_backgroundBlur_1723_73134" result="shape"/>
</filter>
<linearGradient id="paint0_linear_1723_73134" x1="61.843" y1="-100.854" x2="242.049" y2="38.934" gradientUnits="userSpaceOnUse">
<stop stop-color="#FFF7AD"/>
<stop offset="1" stop-color="#FFB800"/>
</linearGradient>
<linearGradient id="paint1_linear_1723_73134" x1="22.8081" y1="-147.349" x2="301.36" y2="-24.6986" gradientUnits="userSpaceOnUse">
<stop stop-color="white" stop-opacity="0.97"/>
<stop offset="1" stop-color="white" stop-opacity="0"/>
</linearGradient>
<linearGradient id="paint2_linear_1723_73134" x1="178.983" y1="226.133" x2="103.518" y2="-29.8323" gradientUnits="userSpaceOnUse">
<stop stop-color="white"/>
<stop offset="1" stop-color="white" stop-opacity="0"/>
</linearGradient>
<clipPath id="clip0_1723_73134">
<rect width="188" height="189.204" fill="white" transform="translate(26)"/>
</clipPath>
</defs>
</svg>
