<svg width="214" height="210" viewBox="0 0 214 210" fill="none" xmlns="http://www.w3.org/2000/svg">
<g clip-path="url(#clip0_1723_73130)">
<rect width="156.426" height="156.426" rx="40" transform="matrix(0.704734 -0.709472 0.704734 0.709472 10 94.4453)" fill="url(#paint0_linear_1723_73130)"/>
</g>
<g filter="url(#filter0_b_1723_73130)">
<ellipse cx="97.5004" cy="112.394" rx="97.5004" ry="97.6053" fill="url(#paint1_linear_1723_73130)" fill-opacity="0.3"/>
<path d="M193.501 112.394C193.501 165.473 150.518 208.5 97.5004 208.5C44.4824 208.5 1.5 165.473 1.5 112.394C1.5 59.3153 44.4824 16.2891 97.5004 16.2891C150.518 16.2891 193.501 59.3153 193.501 112.394Z" stroke="url(#paint2_linear_1723_73130)" stroke-width="3"/>
</g>
<path d="M114.961 132.136L115.798 131.603C115.656 131.379 115.58 131.119 115.58 130.853L114.961 132.136ZM114.961 132.136L115.798 131.603C115.941 131.827 116.144 132.006 116.385 132.118C116.625 132.231 116.893 132.272 117.156 132.239C117.419 132.205 117.667 132.096 117.871 131.926C117.871 131.926 117.871 131.926 117.871 131.926L140.498 113.073C140.655 112.942 140.781 112.778 140.868 112.593C140.955 112.407 141 112.205 141 112C141 111.795 140.955 111.593 140.868 111.407C140.781 111.222 140.655 111.058 140.498 110.927L114.961 132.136ZM115.58 93.1466C115.58 92.8812 115.656 92.6213 115.798 92.3974L114.955 91.8607L115.798 92.3974C115.941 92.1733 116.144 91.9946 116.385 91.882C116.625 91.7694 116.893 91.7276 117.156 91.7616C117.419 91.7955 117.667 91.9038 117.871 92.0737L140.498 110.927L115.58 93.1466ZM115.58 93.1466C115.58 93.1468 115.58 93.1469 115.58 93.147M115.58 93.1466V93.147M115.58 93.147L115.58 130.853L115.58 93.147Z" stroke="#03060A" stroke-width="2"/>
<path d="M114.961 83.3856L115.798 82.8527C115.656 82.6288 115.58 82.3689 115.58 82.1035L114.961 83.3856ZM114.961 83.3856L115.798 82.8527C115.941 83.0768 116.144 83.2556 116.385 83.3681C116.625 83.4807 116.893 83.5225 117.156 83.4885C117.419 83.4546 117.667 83.3463 117.871 83.1764C117.871 83.1764 117.871 83.1764 117.871 83.1764L140.498 64.3233C140.655 64.1922 140.781 64.0281 140.868 63.8426C140.955 63.6572 141 63.4549 141 63.2501C141 63.0452 140.955 62.843 140.868 62.6575C140.781 62.4722 140.655 62.3082 140.498 62.1771L114.961 83.3856ZM115.58 44.3966C115.58 44.1312 115.656 43.8713 115.798 43.6474L114.955 43.1107L115.798 43.6474C115.941 43.4233 116.144 43.2446 116.385 43.132C116.625 43.0194 116.893 42.9776 117.156 43.0116C117.419 43.0455 117.667 43.1538 117.871 43.3237L140.498 62.1768L115.58 44.3966ZM115.58 44.3966C115.58 44.3968 115.58 44.3969 115.58 44.397M115.58 44.3966V44.397M115.58 44.397L115.58 82.1031L115.58 44.397Z" stroke="#03060A" stroke-width="2"/>
<path d="M114.961 180.886L115.798 180.353C115.656 180.129 115.58 179.869 115.58 179.603L114.961 180.886ZM114.961 180.886L115.798 180.353C115.941 180.577 116.144 180.756 116.385 180.868C116.625 180.981 116.893 181.022 117.156 180.989C117.419 180.955 117.667 180.846 117.871 180.676C117.871 180.676 117.871 180.676 117.871 180.676L140.498 161.823C140.655 161.692 140.781 161.528 140.868 161.343C140.955 161.157 141 160.955 141 160.75C141 160.545 140.955 160.343 140.868 160.157C140.781 159.972 140.655 159.808 140.498 159.677L114.961 180.886ZM115.58 141.897C115.58 141.631 115.656 141.371 115.798 141.147L114.955 140.611L115.798 141.147C115.941 140.923 116.144 140.745 116.385 140.632C116.625 140.519 116.893 140.478 117.156 140.512C117.419 140.546 117.667 140.654 117.871 140.824L140.498 159.677L115.58 141.897ZM115.58 141.897C115.58 141.897 115.58 141.897 115.58 141.897M115.58 141.897V141.897M115.58 141.897L115.58 179.603L115.58 141.897Z" stroke="#03060A" stroke-width="2"/>
<path d="M74.2877 109.959H75.2877V108.959V61.8666C75.2877 61.5068 75.4303 61.1624 75.683 60.9089C75.9357 60.6555 76.2777 60.5136 76.6338 60.5136H112.857C113.213 60.5136 113.555 60.6555 113.808 60.9089C113.808 60.9087 113.808 60.9088 113.808 60.9093C113.813 60.9147 113.853 60.9651 113.904 61.1007C113.956 61.2396 114 61.4168 114.034 61.6187C114.103 62.0236 114.115 62.4309 114.115 62.6255C114.115 62.8266 114.11 62.9283 114.084 63.0653C114.056 63.2212 113.995 63.4474 113.854 63.8726C113.809 64.0072 113.689 64.1571 113.461 64.2864C113.227 64.4194 112.982 64.4695 112.857 64.4695H80.2263H79.2263V65.4695V108.959V109.959H80.2263H112.857C113.213 109.959 113.555 110.101 113.808 110.354C114.163 110.711 114.203 111.254 114.203 111.937C114.203 112.008 114.204 112.075 114.204 112.14C114.209 112.75 114.211 113.116 113.808 113.52C113.555 113.773 113.213 113.915 112.857 113.915H80.2263H79.2263V114.915V156.146V157.146H80.2263H112.857C113.209 157.146 113.547 157.284 113.799 157.532C113.802 157.537 113.828 157.576 113.866 157.671C113.915 157.793 113.962 157.955 114.001 158.146C114.082 158.532 114.115 158.941 114.115 159.188C114.115 159.431 114.082 159.804 114.005 160.15C113.966 160.322 113.921 160.466 113.875 160.575C113.833 160.674 113.804 160.709 113.805 160.71C113.805 160.71 113.806 160.709 113.808 160.706C113.555 160.96 113.213 161.102 112.857 161.102H76.6338C76.2777 161.102 75.9357 160.96 75.683 160.706C75.4303 160.453 75.2877 160.108 75.2877 159.749V114.915V113.915H74.2877H28.1185C27.8249 113.915 27.5852 113.783 27.3748 113.45C27.1467 113.089 27.0001 112.543 27.0001 111.937C27.0002 111.332 27.1469 110.785 27.3751 110.424C27.5856 110.091 27.8252 109.959 28.1185 109.959H74.2877Z" stroke="#03060A" stroke-width="2"/>
<defs>
<filter id="filter0_b_1723_73130" x="-40" y="-25.2109" width="275.001" height="275.211" filterUnits="userSpaceOnUse" color-interpolation-filters="sRGB">
<feFlood flood-opacity="0" result="BackgroundImageFix"/>
<feGaussianBlur in="BackgroundImageFix" stdDeviation="20"/>
<feComposite in2="SourceAlpha" operator="in" result="effect1_backgroundBlur_1723_73130"/>
<feBlend mode="normal" in="SourceGraphic" in2="effect1_backgroundBlur_1723_73130" result="shape"/>
</filter>
<linearGradient id="paint0_linear_1723_73130" x1="61.843" y1="-100.854" x2="242.049" y2="38.934" gradientUnits="userSpaceOnUse">
<stop stop-color="#FFF7AD"/>
<stop offset="1" stop-color="#FFB800"/>
</linearGradient>
<linearGradient id="paint1_linear_1723_73130" x1="22.8081" y1="-147.349" x2="301.36" y2="-24.6986" gradientUnits="userSpaceOnUse">
<stop stop-color="white" stop-opacity="0.97"/>
<stop offset="1" stop-color="white" stop-opacity="0"/>
</linearGradient>
<linearGradient id="paint2_linear_1723_73130" x1="178.983" y1="226.133" x2="103.518" y2="-29.8323" gradientUnits="userSpaceOnUse">
<stop stop-color="white"/>
<stop offset="1" stop-color="white" stop-opacity="0"/>
</linearGradient>
<clipPath id="clip0_1723_73130">
<rect width="188" height="189.204" fill="white" transform="translate(26)"/>
</clipPath>
</defs>
</svg>
