<svg width="214" height="210" viewBox="0 0 214 210" fill="none" xmlns="http://www.w3.org/2000/svg">
<g clip-path="url(#clip0_1723_73126)">
<rect width="156.426" height="156.426" rx="40" transform="matrix(0.704734 -0.709472 0.704734 0.709472 10 94.4453)" fill="url(#paint0_linear_1723_73126)"/>
</g>
<g filter="url(#filter0_b_1723_73126)">
<ellipse cx="97.5004" cy="112.394" rx="97.5004" ry="97.6053" fill="url(#paint1_linear_1723_73126)" fill-opacity="0.3"/>
<path d="M193.501 112.394C193.501 165.473 150.518 208.5 97.5004 208.5C44.4824 208.5 1.5 165.473 1.5 112.394C1.5 59.3153 44.4824 16.2891 97.5004 16.2891C150.518 16.2891 193.501 59.3153 193.501 112.394Z" stroke="url(#paint2_linear_1723_73126)" stroke-width="3"/>
</g>
<path d="M115.664 100.573C115.613 100.652 115.587 100.742 115.587 100.834L115.587 124.319C115.587 124.411 115.613 124.501 115.664 124.58C115.715 124.659 115.788 124.723 115.876 124.764C115.965 124.805 116.064 124.821 116.162 124.808C116.26 124.796 116.351 124.756 116.425 124.695C116.425 124.695 116.425 124.695 116.425 124.695L130.665 112.952C130.665 112.952 130.665 112.952 130.665 112.952C130.722 112.905 130.767 112.847 130.797 112.782C130.828 112.718 130.844 112.647 130.844 112.577C130.844 112.506 130.828 112.436 130.797 112.371C130.767 112.306 130.722 112.248 130.665 112.201C130.665 112.201 130.665 112.201 130.665 112.201C130.665 112.201 130.665 112.201 130.665 112.201L116.425 100.458C116.351 100.397 116.26 100.358 116.162 100.345C116.064 100.333 115.965 100.348 115.876 100.389C115.788 100.43 115.715 100.494 115.664 100.573Z" stroke="#03060A" stroke-width="2"/>
<path d="M115.664 55.6827C115.613 55.7614 115.587 55.8518 115.587 55.9434L115.587 79.4288C115.587 79.5203 115.613 79.6108 115.664 79.6895C115.715 79.7683 115.788 79.8327 115.876 79.8737C115.965 79.9147 116.064 79.9302 116.162 79.9177C116.26 79.9052 116.351 79.8655 116.425 79.8045C116.425 79.8045 116.425 79.8045 116.425 79.8044L130.665 68.0617C130.665 68.0617 130.665 68.0616 130.665 68.0615C130.722 68.0145 130.767 67.9564 130.797 67.8917C130.828 67.8269 130.844 67.7568 130.844 67.6861C130.844 67.6154 130.828 67.5453 130.797 67.4805C130.767 67.4158 130.722 67.3577 130.665 67.3108C130.665 67.3107 130.665 67.3107 130.665 67.3107C130.665 67.3106 130.665 67.3105 130.665 67.3104L116.425 55.5677C116.351 55.5067 116.26 55.467 116.162 55.4545C116.064 55.442 115.965 55.4575 115.876 55.4985C115.788 55.5395 115.715 55.6038 115.664 55.6827Z" stroke="#03060A" stroke-width="2"/>
<path d="M115.664 144.308C115.613 144.386 115.587 144.477 115.587 144.568L115.587 168.054C115.587 168.145 115.613 168.236 115.664 168.314C115.715 168.393 115.788 168.458 115.876 168.499C115.965 168.54 116.064 168.555 116.162 168.543C116.26 168.53 116.351 168.49 116.425 168.429C116.425 168.429 116.425 168.429 116.425 168.429L130.665 156.687C130.665 156.687 130.665 156.687 130.665 156.687C130.722 156.64 130.767 156.581 130.797 156.517C130.828 156.452 130.844 156.382 130.844 156.311C130.844 156.24 130.828 156.17 130.797 156.105C130.767 156.041 130.722 155.983 130.665 155.936C130.665 155.936 130.665 155.936 130.665 155.936C130.665 155.936 130.665 155.936 130.665 155.935L116.425 144.193C116.351 144.132 116.26 144.092 116.162 144.08C116.064 144.067 115.965 144.082 115.876 144.124C115.788 144.164 115.715 144.229 115.664 144.308Z" stroke="#03060A" stroke-width="2"/>
<path d="M78.479 110.772V109.772V66.4115C78.479 66.102 78.6019 65.8052 78.8205 65.5865C79.0391 65.3678 79.3356 65.245 79.6445 65.245H113.08C113.388 65.245 113.683 65.3668 113.902 65.5838C113.899 65.5815 113.931 65.6192 113.975 65.7349C114.02 65.8564 114.06 66.0141 114.091 66.1969C114.153 66.5634 114.164 66.9334 114.164 67.1103C114.164 67.2936 114.159 67.3815 114.137 67.5004C114.112 67.6383 114.058 67.8423 113.928 68.2328C113.895 68.3324 113.8 68.4572 113.601 68.5701C113.395 68.6866 113.181 68.7289 113.08 68.7289H82.9605H81.9605V69.7289V109.772V110.772H82.9605H113.08C113.389 110.772 113.686 110.895 113.904 111.114C114.206 111.415 114.246 111.88 114.246 112.514C114.246 112.579 114.246 112.641 114.247 112.7C114.25 113.263 114.252 113.567 113.904 113.914C113.686 114.133 113.389 114.256 113.08 114.256H82.9605H81.9605V115.256V153.219V154.219H82.9605H113.08C113.383 154.219 113.673 154.337 113.89 154.546C113.896 154.556 113.915 154.588 113.941 154.654C113.983 154.761 114.025 154.905 114.061 155.078C114.134 155.427 114.164 155.799 114.164 156.02C114.164 156.239 114.135 156.576 114.064 156.889C114.03 157.044 113.99 157.171 113.949 157.266C113.92 157.334 113.9 157.364 113.896 157.37C113.679 157.583 113.386 157.703 113.08 157.703H79.6445C79.3356 157.703 79.0391 157.58 78.8205 157.362L78.1162 158.066L78.8205 157.362C78.6019 157.143 78.479 156.846 78.479 156.537V115.256V114.256H77.479H52.1194C51.8789 114.256 51.6801 114.152 51.4974 113.864C51.2969 113.547 51.164 113.06 51.1641 112.514C51.1641 111.968 51.2971 111.481 51.4976 111.164C51.6804 110.876 51.8793 110.772 52.1194 110.772H77.479H78.479Z" stroke="#03060A" stroke-width="2"/>
<rect x="132.84" y="140.625" width="22.1593" height="31.3772" rx="9" stroke="#03060A" stroke-width="2"/>
<rect x="132.84" y="96.8828" width="22.1593" height="31.3772" rx="9" stroke="#03060A" stroke-width="2"/>
<rect x="132.84" y="52" width="22.1593" height="31.3772" rx="9" stroke="#03060A" stroke-width="2"/>
<rect x="27" y="96.8828" width="22.1593" height="31.3772" rx="9" stroke="#03060A" stroke-width="2"/>
<defs>
<filter id="filter0_b_1723_73126" x="-40" y="-25.2109" width="275.001" height="275.211" filterUnits="userSpaceOnUse" color-interpolation-filters="sRGB">
<feFlood flood-opacity="0" result="BackgroundImageFix"/>
<feGaussianBlur in="BackgroundImageFix" stdDeviation="20"/>
<feComposite in2="SourceAlpha" operator="in" result="effect1_backgroundBlur_1723_73126"/>
<feBlend mode="normal" in="SourceGraphic" in2="effect1_backgroundBlur_1723_73126" result="shape"/>
</filter>
<linearGradient id="paint0_linear_1723_73126" x1="61.843" y1="-100.854" x2="242.049" y2="38.934" gradientUnits="userSpaceOnUse">
<stop stop-color="#FFF7AD"/>
<stop offset="1" stop-color="#FFB800"/>
</linearGradient>
<linearGradient id="paint1_linear_1723_73126" x1="22.8081" y1="-147.349" x2="301.36" y2="-24.6986" gradientUnits="userSpaceOnUse">
<stop stop-color="white" stop-opacity="0.97"/>
<stop offset="1" stop-color="white" stop-opacity="0"/>
</linearGradient>
<linearGradient id="paint2_linear_1723_73126" x1="178.983" y1="226.133" x2="103.518" y2="-29.8323" gradientUnits="userSpaceOnUse">
<stop stop-color="white"/>
<stop offset="1" stop-color="white" stop-opacity="0"/>
</linearGradient>
<clipPath id="clip0_1723_73126">
<rect width="188" height="189.204" fill="white" transform="translate(26)"/>
</clipPath>
</defs>
</svg>
