<svg width="214" height="210" viewBox="0 0 214 210" fill="none" xmlns="http://www.w3.org/2000/svg">
<g clip-path="url(#clip0_1723_73122)">
<rect width="156.426" height="156.426" rx="40" transform="matrix(0.704734 -0.709472 0.704734 0.709472 10 94.4453)" fill="url(#paint0_linear_1723_73122)"/>
</g>
<g filter="url(#filter0_b_1723_73122)">
<ellipse cx="97.5004" cy="112.394" rx="97.5004" ry="97.6053" fill="url(#paint1_linear_1723_73122)" fill-opacity="0.3"/>
<path d="M193.501 112.394C193.501 165.473 150.518 208.5 97.5004 208.5C44.4824 208.5 1.5 165.473 1.5 112.394C1.5 59.3153 44.4824 16.2891 97.5004 16.2891C150.518 16.2891 193.501 59.3153 193.501 112.394Z" stroke="url(#paint2_linear_1723_73122)" stroke-width="3"/>
</g>
<path d="M138.315 163.873H58.6396C56.8568 163.873 55.9616 163.719 55.5146 163.49C55.3694 163.416 55.3293 163.361 55.2992 163.31C55.2809 163.278 55.2516 163.22 55.2215 163.125L62.9602 150.104H131.9L139.587 163.27C139.694 163.507 139.881 163.765 139.553 163.844C139.292 163.869 138.912 163.883 138.362 163.873L138.339 163.873H138.316M97.3725 60.124C108.772 60.0584 119.215 65.4471 126.948 72.5635C130.802 76.1109 133.923 80.0361 136.106 83.8154C138.307 87.6277 139.466 91.1368 139.599 93.8711C139.915 100.35 139.916 117.476 139.836 133.08C139.797 140.685 139.739 147.9 139.689 153.289L109.197 101.058V88.1483L97.2942 77.0584L86.1583 88.2023V101.047L55.1198 153.273V93.7463C55.1198 91.0726 56.1784 87.6261 58.3437 83.8482C60.488 80.107 63.6203 76.2137 67.5142 72.6819C75.3257 65.5971 85.9443 60.1898 97.3725 60.124ZM138.294 168.996C139.195 169.012 140.085 168.984 140.883 168.82C141.722 168.647 142.651 168.285 143.398 167.485C144.129 166.7 144.423 165.772 144.56 164.999C144.693 164.249 144.715 163.416 144.716 162.607L144.722 161.991C144.727 161.58 144.733 160.974 144.742 160.199C144.758 158.649 144.78 156.42 144.805 153.705C144.855 148.274 144.915 140.896 144.955 133.106C145.035 117.569 145.037 100.273 144.712 93.6215C144.526 89.791 142.979 85.4771 140.539 81.252C138.08 76.9939 134.624 72.6673 130.413 68.7924C122.016 61.064 110.38 54.9256 97.343 55.0007C84.3347 55.0756 72.5544 61.196 64.076 68.8857C59.825 72.7413 56.3397 77.0471 53.9026 81.2992C51.4865 85.5146 50 89.8557 50 93.7463V162.592V162.662L50.0038 162.731C50.0651 163.861 50.3217 164.945 50.8841 165.903C51.4611 166.887 52.2695 167.583 53.1815 168.051C54.8489 168.905 56.9025 168.996 58.6396 168.996H138.294ZM128.909 144.98H66.0051L72.4756 134.093H122.553L128.909 144.98ZM119.562 128.97H75.5205L81.3248 119.203H113.861L119.562 128.97ZM110.87 114.08H84.3697L90.1741 104.313H105.168L110.87 114.08ZM104.077 99.19H91.278V90.3245L97.4212 84.1769L104.077 90.3784V99.19Z" stroke="#03060A" stroke-width="3"/>
<defs>
<filter id="filter0_b_1723_73122" x="-40" y="-25.2109" width="275.001" height="275.211" filterUnits="userSpaceOnUse" color-interpolation-filters="sRGB">
<feFlood flood-opacity="0" result="BackgroundImageFix"/>
<feGaussianBlur in="BackgroundImageFix" stdDeviation="20"/>
<feComposite in2="SourceAlpha" operator="in" result="effect1_backgroundBlur_1723_73122"/>
<feBlend mode="normal" in="SourceGraphic" in2="effect1_backgroundBlur_1723_73122" result="shape"/>
</filter>
<linearGradient id="paint0_linear_1723_73122" x1="61.843" y1="-100.854" x2="242.049" y2="38.934" gradientUnits="userSpaceOnUse">
<stop stop-color="#FFF7AD"/>
<stop offset="1" stop-color="#FFB800"/>
</linearGradient>
<linearGradient id="paint1_linear_1723_73122" x1="22.8081" y1="-147.349" x2="301.36" y2="-24.6986" gradientUnits="userSpaceOnUse">
<stop stop-color="white" stop-opacity="0.97"/>
<stop offset="1" stop-color="white" stop-opacity="0"/>
</linearGradient>
<linearGradient id="paint2_linear_1723_73122" x1="178.983" y1="226.133" x2="103.518" y2="-29.8323" gradientUnits="userSpaceOnUse">
<stop stop-color="white"/>
<stop offset="1" stop-color="white" stop-opacity="0"/>
</linearGradient>
<clipPath id="clip0_1723_73122">
<rect width="188" height="189.204" fill="white" transform="translate(26)"/>
</clipPath>
</defs>
</svg>
