<svg width="214" height="210" viewBox="0 0 214 210" fill="none" xmlns="http://www.w3.org/2000/svg">
<g clip-path="url(#clip0_1723_73118)">
<rect width="156.426" height="156.426" rx="40" transform="matrix(0.704734 -0.709472 0.704734 0.709472 10 94.4453)" fill="url(#paint0_linear_1723_73118)"/>
</g>
<g filter="url(#filter0_b_1723_73118)">
<ellipse cx="97.5004" cy="112.394" rx="97.5004" ry="97.6053" fill="url(#paint1_linear_1723_73118)" fill-opacity="0.3"/>
<path d="M193.501 112.394C193.501 165.473 150.518 208.5 97.5004 208.5C44.4824 208.5 1.5 165.473 1.5 112.394C1.5 59.3153 44.4824 16.2891 97.5004 16.2891C150.518 16.2891 193.501 59.3153 193.501 112.394Z" stroke="url(#paint2_linear_1723_73118)" stroke-width="3"/>
</g>
<path fill-rule="evenodd" clip-rule="evenodd" d="M116.318 83.5078L140.688 124.171L152.269 116.606L167.717 132.984L177.607 124.044C178.195 123.512 179.101 123.559 179.631 124.149C180.161 124.738 180.114 125.647 179.526 126.178L167.558 136.999L151.83 120.323L139.762 128.207L116.114 88.7493L91.9935 122.715L76.5673 105.974L45.3915 136.514L32.4494 122.456L17.9136 135.523L16 133.382L32.6395 118.425L45.4976 132.391L76.6725 101.853L91.7048 118.166L116.318 83.5078Z" stroke="#03060A" stroke-width="1.5"/>
<ellipse cx="76.2648" cy="92.4221" rx="6.25703" ry="6.27361" fill="#03060A"/>
<path d="M81.997 85.808C82.2018 85.6032 82.4745 85.49 82.7573 85.4922C83.0402 85.4945 83.3111 85.612 83.513 85.82C83.7149 86.0281 83.8319 86.3103 83.8394 86.6073C83.8469 86.9042 83.7442 87.1925 83.5531 87.4115L77.7503 95.0318C77.6506 95.1447 77.5301 95.2352 77.3963 95.2981C77.2624 95.361 77.1178 95.3948 76.9712 95.3977C76.8246 95.4005 76.6789 95.3723 76.5429 95.3147C76.4069 95.2571 76.2834 95.1713 76.1797 95.0624L72.3315 91.0216C72.2244 90.9167 72.1384 90.7903 72.0788 90.6498C72.0192 90.5093 71.9871 90.3576 71.9845 90.2039C71.982 90.0501 72.0089 89.8973 72.0638 89.7547C72.1186 89.6121 72.2003 89.4825 72.3038 89.3738C72.4074 89.265 72.5308 89.1793 72.6666 89.1217C72.8024 89.0641 72.9479 89.0358 73.0944 89.0385C73.2408 89.0412 73.3852 89.0749 73.519 89.1375C73.6528 89.2001 73.7733 89.2903 73.8731 89.4029L76.9185 92.5991L81.9693 85.8416C81.9784 85.8298 81.9867 85.8186 81.997 85.808Z" fill="#F1A712"/>
<ellipse cx="116.445" cy="73.9299" rx="6.25703" ry="6.27361" fill="#03060A"/>
<path d="M122.073 67.3158C122.289 67.111 122.577 66.9978 122.875 67C123.174 67.0023 123.46 67.1198 123.673 67.3279C123.886 67.5359 124.01 67.8182 124.018 68.1151C124.025 68.412 123.917 68.7003 123.715 68.9193L117.59 76.5396C117.485 76.6525 117.358 76.7431 117.216 76.8059C117.075 76.8688 116.923 76.9027 116.768 76.9055C116.613 76.9084 116.459 76.8801 116.316 76.8225C116.172 76.7649 116.042 76.6791 115.932 76.5702L111.87 72.5294C111.757 72.4246 111.667 72.2981 111.604 72.1576C111.541 72.0171 111.507 71.8655 111.504 71.7117C111.501 71.5579 111.53 71.4051 111.588 71.2625C111.646 71.1199 111.732 70.9903 111.841 70.8816C111.95 70.7728 112.081 70.6871 112.224 70.6295C112.367 70.5719 112.521 70.5436 112.676 70.5463C112.83 70.549 112.983 70.5827 113.124 70.6453C113.265 70.7079 113.392 70.7981 113.498 70.9107L116.712 74.1069L122.044 67.3494C122.053 67.3377 122.062 67.3264 122.073 67.3158Z" fill="#F1A712"/>
<path d="M69.0625 114.625L69.0625 125.389L69.0625 136.154" stroke="#F1A712"/>
<path d="M72.6406 111.398L72.6406 123.777L72.6406 136.156" stroke="#F1A712"/>
<path d="M76.2188 107.812L76.2188 121.985L76.2188 136.158" stroke="#F1A712"/>
<path d="M79.7969 111.398L79.7969 123.777L79.7969 136.156" stroke="#F1A712"/>
<path d="M83.3789 114.625L83.3789 125.389L83.3789 136.154" stroke="#F1A712"/>
<path d="M87.3125 118.938L87.3125 127.549L87.3125 136.16" stroke="#F1A712"/>
<path d="M90.8906 122.883L90.8906 129.521L90.8906 136.159" stroke="#F1A712"/>
<path d="M94.4688 121.445L94.4688 128.801L94.4688 136.157" stroke="#F1A712"/>
<path d="M98.0469 116.781L98.0469 126.469L98.0469 136.157" stroke="#F1A712"/>
<path d="M101.625 112.117L101.625 124.137L101.625 136.157" stroke="#F1A712"/>
<path d="M105.207 106.734L105.207 121.446L105.207 136.157" stroke="#F1A712"/>
<path d="M108.785 102.07L108.785 119.114L108.785 136.157" stroke="#F1A712"/>
<path d="M123.102 103.148L123.102 119.654L123.102 136.159" stroke="#F1A712"/>
<path d="M126.676 109.961L126.676 123.058L126.676 136.154" stroke="#F1A712"/>
<path d="M130.258 114.625L130.258 125.389L130.258 136.154" stroke="#F1A712"/>
<path d="M133.836 120.367L133.836 128.261L133.836 136.155" stroke="#F1A712"/>
<path d="M112.367 96.6875L112.367 116.422L112.367 136.157" stroke="#F1A712"/>
<path d="M119.523 96.6875L119.523 116.422L119.523 136.157" stroke="#F1A712"/>
<path d="M115.945 91.6641L115.945 113.91L115.945 136.157" stroke="#F1A712"/>
<path d="M21.4688 133.648V134.904V136.16" stroke="#03060A"/>
<path d="M51.1719 133.648V134.904V136.16" stroke="#03060A"/>
<path d="M25.0469 131.141L25.0469 133.652L25.0469 136.164" stroke="#03060A"/>
<path d="M54.75 129.703L54.75 132.932L54.75 136.162" stroke="#03060A"/>
<path d="M28.625 126.828L28.625 131.493L28.625 136.157" stroke="#03060A"/>
<path d="M58.3281 126.117L58.3281 131.141L58.3281 136.164" stroke="#03060A"/>
<path d="M32.2031 123.602L32.2031 129.881L32.2031 136.16" stroke="#03060A"/>
<path d="M61.9062 122.164L61.9063 129.161L61.9063 136.158" stroke="#03060A"/>
<path d="M65.4844 118.938L65.4844 127.549L65.4844 136.16" stroke="#03060A"/>
<path d="M137.414 126.828L137.414 131.493L137.414 136.157" stroke="#03060A"/>
<path d="M140.992 128.984L140.992 132.572L140.992 136.161" stroke="#03060A"/>
<path d="M144.57 126.117L144.57 131.141L144.57 136.164" stroke="#03060A"/>
<path d="M148.148 123.961L148.148 130.061L148.148 136.16" stroke="#03060A"/>
<path d="M151.73 121.805L151.73 128.981L151.73 136.157" stroke="#03060A"/>
<path d="M155.309 125.75L155.309 130.953L155.309 136.155" stroke="#03060A"/>
<path d="M158.891 129.703L158.891 132.932L158.891 136.162" stroke="#03060A"/>
<path d="M162.469 132.57L162.469 134.364L162.469 136.158" stroke="#03060A"/>
<path d="M172.484 134.008L172.484 135.084L172.484 136.161" stroke="#03060A"/>
<path d="M176.062 130.422L176.063 133.292L176.063 136.163" stroke="#03060A"/>
<path d="M179.645 127.188L179.645 131.673L179.645 136.158" stroke="#03060A"/>
<path d="M35.7852 127.906L35.7852 132.033L35.7852 136.159" stroke="#03060A"/>
<path d="M39.3594 131.141L39.3594 133.652L39.3594 136.164" stroke="#03060A"/>
<defs>
<filter id="filter0_b_1723_73118" x="-40" y="-25.2109" width="275.001" height="275.211" filterUnits="userSpaceOnUse" color-interpolation-filters="sRGB">
<feFlood flood-opacity="0" result="BackgroundImageFix"/>
<feGaussianBlur in="BackgroundImageFix" stdDeviation="20"/>
<feComposite in2="SourceAlpha" operator="in" result="effect1_backgroundBlur_1723_73118"/>
<feBlend mode="normal" in="SourceGraphic" in2="effect1_backgroundBlur_1723_73118" result="shape"/>
</filter>
<linearGradient id="paint0_linear_1723_73118" x1="61.843" y1="-100.854" x2="242.049" y2="38.934" gradientUnits="userSpaceOnUse">
<stop stop-color="#FFF7AD"/>
<stop offset="1" stop-color="#FFB800"/>
</linearGradient>
<linearGradient id="paint1_linear_1723_73118" x1="22.8081" y1="-147.349" x2="301.36" y2="-24.6986" gradientUnits="userSpaceOnUse">
<stop stop-color="white" stop-opacity="0.97"/>
<stop offset="1" stop-color="white" stop-opacity="0"/>
</linearGradient>
<linearGradient id="paint2_linear_1723_73118" x1="178.983" y1="226.133" x2="103.518" y2="-29.8323" gradientUnits="userSpaceOnUse">
<stop stop-color="white"/>
<stop offset="1" stop-color="white" stop-opacity="0"/>
</linearGradient>
<clipPath id="clip0_1723_73118">
<rect width="188" height="189.204" fill="white" transform="translate(26)"/>
</clipPath>
</defs>
</svg>
