<svg width="24" height="24" viewBox="0 0 24 24" fill="none" xmlns="http://www.w3.org/2000/svg">
<path opacity="0.4" fill-rule="evenodd" clip-rule="evenodd" d="M16.9931 7.75781C16.9931 7.3436 16.6573 7.00781 16.2431 7.00781L10.5862 7.00781C10.172 7.00781 9.83624 7.3436 9.83624 7.75781C9.83624 8.17203 10.172 8.50781 10.5862 8.50781L14.4324 8.50781L7.22748 15.7128C6.93459 16.0057 6.93459 16.4805 7.22748 16.7734C7.52038 17.0663 7.99525 17.0663 8.28814 16.7734L15.4931 9.56847L15.4931 13.4147C15.4931 13.8289 15.8289 14.1647 16.2431 14.1647C16.6573 14.1647 16.9931 13.8289 16.9931 13.4147L16.9931 7.75781Z" fill="#F8F1DF"/>
<path d="M16.2428 7.00781C16.657 7.00781 16.9928 7.3436 16.9928 7.75781L16.9928 13.4147C16.9928 13.8289 16.657 14.1647 16.2428 14.1647C15.8286 14.1647 15.4928 13.8289 15.4928 13.4147L15.5168 8.4874L10.5859 8.50781C10.1717 8.50781 9.83594 8.17203 9.83594 7.75781C9.83594 7.3436 10.1717 7.00781 10.5859 7.00781L16.2428 7.00781Z" fill="#F8F1DF"/>
</svg>
