<svg width="10" height="18" viewBox="0 0 10 18" fill="none" xmlns="http://www.w3.org/2000/svg">
<path fill-rule="evenodd" clip-rule="evenodd" d="M0.388075 0.263014C0.451938 0.19899 0.527804 0.148193 0.611329 0.113534C0.694853 0.0788756 0.784395 0.0610352 0.874825 0.0610352C0.965255 0.0610352 1.0548 0.0788756 1.13832 0.113534C1.22185 0.148193 1.29771 0.19899 1.36157 0.263014L9.61157 8.51301C9.6756 8.57688 9.72639 8.65274 9.76105 8.73627C9.79571 8.81979 9.81355 8.90933 9.81355 8.99976C9.81355 9.09019 9.79571 9.17973 9.76105 9.26326C9.72639 9.34678 9.6756 9.42265 9.61157 9.48651L1.36157 17.7365C1.23248 17.8656 1.05739 17.9381 0.874825 17.9381C0.692258 17.9381 0.517169 17.8656 0.388075 17.7365C0.258981 17.6074 0.186456 17.4323 0.186456 17.2498C0.186456 17.0672 0.258981 16.8921 0.388075 16.763L8.1527 8.99976L0.388075 1.23651C0.32405 1.17265 0.273254 1.09679 0.238595 1.01326C0.203936 0.929736 0.186096 0.840194 0.186096 0.749764C0.186096 0.659334 0.203936 0.569793 0.238595 0.486268C0.273254 0.402743 0.32405 0.326877 0.388075 0.263014Z" fill="white"/>
</svg>
