<svg width="44" height="44" viewBox="0 0 44 44" fill="none" xmlns="http://www.w3.org/2000/svg">
<rect width="44" height="44" rx="22" transform="matrix(-1 0 0 1 44 0)" fill="#C7CBD7"/>
<path fill-rule="evenodd" clip-rule="evenodd" d="M27.3566 9.7691C27.2672 9.67946 27.161 9.60835 27.044 9.55983C26.9271 9.5113 26.8017 9.48633 26.6751 9.48633C26.5485 9.48633 26.4232 9.5113 26.3062 9.55983C26.1893 9.60835 26.0831 9.67946 25.9937 9.7691L14.4437 21.3191C14.354 21.4085 14.2829 21.5147 14.2344 21.6317C14.1859 21.7486 14.1609 21.8739 14.1609 22.0005C14.1609 22.1271 14.1859 22.2525 14.2344 22.3694C14.2829 22.4864 14.354 22.5926 14.4437 22.682L25.9937 34.232C26.1744 34.4127 26.4195 34.5143 26.6751 34.5143C26.9307 34.5143 27.1758 34.4127 27.3566 34.232C27.5373 34.0513 27.6388 33.8061 27.6388 33.5505C27.6388 33.295 27.5373 33.0498 27.3566 32.8691L16.4861 22.0005L27.3566 11.132C27.4462 11.0426 27.5173 10.9364 27.5658 10.8194C27.6144 10.7025 27.6393 10.5772 27.6393 10.4505C27.6393 10.3239 27.6144 10.1986 27.5658 10.0817C27.5173 9.96472 27.4462 9.85851 27.3566 9.7691Z" fill="white"/>
</svg>
