<svg width="28" height="28" viewBox="0 0 28 28" fill="none" xmlns="http://www.w3.org/2000/svg">
<path fill-rule="evenodd" clip-rule="evenodd" d="M19.8696 2.88084C19.7884 2.79936 19.6918 2.73471 19.5855 2.6906C19.4792 2.64649 19.3652 2.62378 19.2501 2.62378C19.1351 2.62378 19.0211 2.64649 18.9148 2.6906C18.8085 2.73471 18.7119 2.79936 18.6306 2.88084L8.13065 13.3808C8.04916 13.4621 7.98451 13.5587 7.9404 13.665C7.89629 13.7713 7.87358 13.8853 7.87358 14.0003C7.87358 14.1154 7.89629 14.2294 7.9404 14.3357C7.98451 14.442 8.04916 14.5386 8.13065 14.6198L18.6306 25.1198C18.7949 25.2841 19.0178 25.3764 19.2501 25.3764C19.4825 25.3764 19.7053 25.2841 19.8696 25.1198C20.0339 24.9555 20.1263 24.7327 20.1263 24.5003C20.1263 24.268 20.0339 24.0451 19.8696 23.8808L9.9874 14.0003L19.8696 4.11984C19.9511 4.03856 20.0158 3.94201 20.0599 3.8357C20.104 3.7294 20.1267 3.61544 20.1267 3.50034C20.1267 3.38525 20.104 3.27129 20.0599 3.16498C20.0158 3.05868 19.9511 2.96212 19.8696 2.88084Z" fill="white"/>
</svg>
