<svg width="24" height="24" viewBox="0 0 24 24" fill="none" xmlns="http://www.w3.org/2000/svg">
<path opacity="0.4" fill-rule="evenodd" clip-rule="evenodd" d="M16.7745 7.2276C17.0674 7.52049 17.0674 7.99536 16.7745 8.28826L8.28919 16.7735C7.9963 17.0664 7.52142 17.0664 7.22853 16.7735C6.93564 16.4806 6.93564 16.0058 7.22853 15.7129L15.7138 7.2276C16.0067 6.9347 16.4816 6.9347 16.7745 7.2276Z" fill="#F8F1DF"/>
<path fill-rule="evenodd" clip-rule="evenodd" d="M16.7744 16.7745C16.4815 17.0674 16.0066 17.0674 15.7137 16.7745L7.22842 8.28919C6.93552 7.9963 6.93552 7.52142 7.22842 7.22853C7.52131 6.93564 7.99618 6.93563 8.28908 7.22853L16.7744 15.7138C17.0673 16.0067 17.0673 16.4816 16.7744 16.7745Z" fill="#F8F1DF"/>
</svg>
