<svg width="50" height="50" viewBox="0 0 50 50" fill="none" xmlns="http://www.w3.org/2000/svg">
<path fill-rule="evenodd" clip-rule="evenodd" d="M43.2938 6.70611C43.4393 6.85126 43.5547 7.02368 43.6335 7.21351C43.7123 7.40334 43.7528 7.60684 43.7528 7.81236C43.7528 8.01789 43.7123 8.22139 43.6335 8.41122C43.5547 8.60105 43.4393 8.77347 43.2938 8.91861L8.91877 43.2936C8.62538 43.587 8.22744 43.7518 7.81252 43.7518C7.3976 43.7518 6.99967 43.587 6.70627 43.2936C6.41287 43.0002 6.24805 42.6023 6.24805 42.1874C6.24805 41.7724 6.41287 41.3745 6.70627 41.0811L41.0813 6.70611C41.2264 6.5606 41.3988 6.44516 41.5887 6.36639C41.7785 6.28762 41.982 6.24707 42.1875 6.24707C42.393 6.24707 42.5965 6.28762 42.7864 6.36639C42.9762 6.44516 43.1486 6.5606 43.2938 6.70611Z" fill="#03060A"/>
<path fill-rule="evenodd" clip-rule="evenodd" d="M6.70611 6.70611C6.5606 6.85126 6.44516 7.02368 6.36639 7.21351C6.28762 7.40334 6.24707 7.60684 6.24707 7.81236C6.24707 8.01789 6.28762 8.22139 6.36639 8.41122C6.44516 8.60105 6.5606 8.77347 6.70611 8.91861L41.0811 43.2936C41.3745 43.587 41.7724 43.7518 42.1874 43.7518C42.6023 43.7518 43.0002 43.587 43.2936 43.2936C43.587 43.0002 43.7518 42.6023 43.7518 42.1874C43.7518 41.7724 43.587 41.3745 43.2936 41.0811L8.91861 6.70611C8.77347 6.5606 8.60105 6.44516 8.41122 6.36639C8.22139 6.28762 8.01789 6.24707 7.81236 6.24707C7.60684 6.24707 7.40334 6.28762 7.21351 6.36639C7.02368 6.44516 6.85126 6.5606 6.70611 6.70611Z" fill="#03060A"/>
</svg>
