<svg width="25" height="25" viewBox="0 0 25 25" fill="none" xmlns="http://www.w3.org/2000/svg">
<g clip-path="url(#clip0_1205_11682)">
<path d="M0 12.5C0 9.18479 1.31696 6.00537 3.66117 3.66117C6.00537 1.31696 9.18479 0 12.5 0C15.8152 0 18.9946 1.31696 21.3388 3.66117C23.683 6.00537 25 9.18479 25 12.5C25 15.8152 23.683 18.9946 21.3388 21.3388C18.9946 23.683 15.8152 25 12.5 25C9.18479 25 6.00537 23.683 3.66117 21.3388C1.31696 18.9946 0 15.8152 0 12.5ZM11.7188 1.68281C10.6719 2.00156 9.63281 2.96406 8.77031 4.58125C8.54688 5 8.33906 5.45625 8.15312 5.94375C9.25469 6.18906 10.4531 6.34531 11.7188 6.39219V1.68281ZM6.63906 5.52969C6.86094 4.92969 7.11406 4.36719 7.39062 3.84531C7.66079 3.33446 7.9728 2.84686 8.32344 2.3875C6.99323 2.93875 5.78477 3.74687 4.76719 4.76562C5.33281 5.05312 5.95937 5.30938 6.63906 5.52969ZM5.48281 11.7188C5.53906 10.0469 5.77656 8.45781 6.16406 7.01875C5.31828 6.74827 4.49962 6.39936 3.71875 5.97656C2.47429 7.64743 1.73566 9.64043 1.59063 11.7188H5.48125H5.48281ZM7.67031 7.43594C7.30195 8.83557 7.0923 10.2722 7.04531 11.7188H11.7188V7.95469C10.2969 7.90781 8.93281 7.72812 7.67031 7.43594ZM13.2812 7.95312V11.7188H17.9531C17.9067 10.2723 17.6975 8.83563 17.3297 7.43594C16.0672 7.72812 14.7031 7.90469 13.2812 7.95312ZM7.04688 13.2812C7.10156 14.8234 7.32188 16.2719 7.67031 17.5641C9.00009 17.2623 10.3558 17.0891 11.7188 17.0469V13.2812H7.04688ZM13.2812 13.2812V17.0453C14.7031 17.0922 16.0672 17.2719 17.3297 17.5641C17.6781 16.2719 17.8984 14.8234 17.9547 13.2812H13.2812ZM8.15312 19.0562C8.34062 19.5438 8.54688 20 8.77031 20.4187C9.63281 22.0359 10.6734 22.9969 11.7188 23.3172V18.6094C10.4531 18.6562 9.25469 18.8109 8.15312 19.0562ZM8.325 22.6125C7.9738 22.1532 7.66127 21.6656 7.39062 21.1547C7.10285 20.6101 6.85177 20.0468 6.63906 19.4688C5.9963 19.6753 5.37047 19.9313 4.76719 20.2344C5.78477 21.2531 6.99479 22.0613 8.325 22.6125ZM6.16406 17.9813C5.7584 16.4457 5.52931 14.8688 5.48125 13.2812H1.59063C1.73557 15.3596 2.47421 17.3526 3.71875 19.0234C4.45312 18.6203 5.27344 18.2703 6.16406 17.9813ZM16.6766 22.6125C18.0061 22.0616 19.214 21.254 20.2313 20.2359C19.6285 19.9329 19.0032 19.6769 18.3609 19.4703C18.1482 20.0479 17.8971 20.6106 17.6094 21.1547C17.3393 21.6656 17.0273 22.1532 16.6766 22.6125ZM13.2812 18.6078V23.3172C14.3281 22.9984 15.3672 22.0359 16.2297 20.4187C16.4531 20 16.6609 19.5438 16.8469 19.0562C15.6744 18.7992 14.4809 18.648 13.2812 18.6078ZM18.8359 17.9813C19.7266 18.2703 20.5469 18.6203 21.2812 19.0234C22.5258 17.3526 23.2644 15.3596 23.4094 13.2812H19.5187C19.4707 14.8688 19.2416 16.4457 18.8359 17.9813ZM23.4094 11.7188C23.2644 9.64041 22.5258 7.64738 21.2812 5.97656C20.5469 6.37969 19.7266 6.72969 18.8359 7.01875C19.2234 8.45625 19.4609 10.0469 19.5187 11.7188H23.4094ZM17.6094 3.84531C17.8859 4.36719 18.1391 4.92969 18.3625 5.52969C19.0042 5.32304 19.629 5.06707 20.2313 4.76406C19.2139 3.7466 18.006 2.93956 16.6766 2.38906C17.0172 2.83125 17.3297 3.32187 17.6094 3.84531ZM16.8469 5.94375C16.6694 5.47732 16.4632 5.02229 16.2297 4.58125C15.3672 2.96406 14.3281 2.00312 13.2812 1.68281V6.39062C14.5469 6.34375 15.7453 6.18906 16.8469 5.94375Z" fill="white"/>
</g>
<defs>
<clipPath id="clip0_1205_11682">
<rect width="25" height="25" fill="white"/>
</clipPath>
</defs>
</svg>
