<svg width="220" height="60" viewBox="0 0 220 60" fill="none" xmlns="http://www.w3.org/2000/svg">
<path fill-rule="evenodd" clip-rule="evenodd" d="M47.4126 15.071C46.4485 15.8581 45.964 16.7557 45.964 17.7527C45.964 18.33 46.1002 18.8947 46.3709 19.4421C46.8743 18.0808 47.2211 16.6216 47.4126 15.071ZM43.7618 24.1098C43.1238 23.5577 42.6631 23.1018 42.3861 22.7406C41.4963 21.5906 41.0562 20.3807 41.0562 19.1124C41.0562 17.0964 42.0805 15.3707 44.1228 13.9273C45.136 13.2143 46.2886 12.678 47.5883 12.3199C47.5883 12.2458 47.5883 12.1685 47.5883 12.0912C47.5883 8.55137 46.7524 5.91545 45.0727 4.19602C43.4009 2.46871 40.947 1.60427 37.7221 1.60427C36.9321 1.60427 35.9046 1.63582 34.6476 1.69734L28.0442 24.6304C27.5455 26.3403 27.2985 27.4051 27.2985 27.8152C27.2985 28.0534 27.3745 28.2853 27.5376 28.5156C27.6896 28.738 27.9049 28.8847 28.174 28.9636C28.565 29.1009 29.1936 29.1703 30.058 29.1703C32.4137 29.1703 34.6017 28.9242 36.6091 28.4304C38.6308 27.9446 40.2773 27.2205 41.566 26.2551C42.3702 25.6399 43.1017 24.9238 43.7618 24.1098ZM33.3446 42.0391H34.437C35.0813 40.9049 35.9679 40.3292 37.0999 40.3292C37.6033 40.3292 38.2255 40.438 38.9728 40.6494C41.1718 41.2614 42.7692 41.6463 43.7761 41.8088C44.7719 41.9603 45.8579 42.0391 47.0089 42.0391C49.3362 42.0391 51.4845 41.6637 53.4461 40.9128C55.4076 40.1541 56.9179 39.0909 57.9723 37.7216C59.0172 36.3445 59.5397 34.9232 59.5397 33.4594C59.5397 32.1627 59.1138 30.9449 58.2668 29.8012C57.4214 28.6513 55.558 27.0612 52.6782 25.0168C51.3088 24.0467 50.1784 23.2028 49.2808 22.4913C50.0391 21.3997 50.7214 20.01 51.3325 18.3142C51.9025 16.7305 52.2381 15.1041 52.3331 13.4446C52.4613 13.4399 52.5943 13.4399 52.7273 13.4399C55.2509 13.4399 57.2821 13.9857 58.8209 15.0836C60.3566 16.1768 61.126 17.5854 61.126 19.3112C61.126 19.8333 61.0864 20.5258 61.0168 21.3808H61.9936L65 11.7757H63.9092C63.3646 12.4713 62.8912 12.9272 62.4875 13.1386C62.0822 13.3516 61.5994 13.4604 61.05 13.4604C60.7144 13.4604 60.4183 13.4399 60.1523 13.3942C60.032 13.3642 59.4225 13.1922 58.2969 12.861C56.7216 12.3799 55.634 12.0896 55.0324 12.0091C54.187 11.8688 53.2846 11.7946 52.341 11.7788C52.2349 9.70449 51.6444 7.74687 50.5789 5.90598C49.3995 3.87265 47.8116 2.37722 45.8247 1.4276C43.8457 0.479546 40.7918 0 36.674 0H26.9391L26.67 0.840782H27.1592C28.3038 0.840782 29.0637 0.993795 29.4532 1.31244C29.8458 1.62793 30.0374 2.08539 30.0374 2.66747C30.0374 3.49248 29.83 4.64402 29.4089 6.10001L24.015 24.6304C23.4783 26.5422 22.9891 27.8152 22.5569 28.4462C22.2751 28.8784 21.8303 29.2239 21.2318 29.4889C20.8234 29.664 20.0334 29.7728 18.846 29.8044L18.5531 30.6373H31.4559C34.57 30.6373 37.1711 30.3139 39.2577 29.6577C41.3364 28.9999 43.2695 27.984 45.0505 26.6179C45.3783 26.3671 45.6901 26.1195 45.9846 25.8765L46.0511 25.927C49.9853 28.8974 52.4028 30.9749 53.2972 32.1548C53.902 32.9546 54.1949 33.8379 54.1949 34.8065C54.1949 36.3003 53.5458 37.6175 52.2349 38.7643C50.9225 39.908 49.0116 40.4822 46.4849 40.4822C43.7761 40.4822 41.566 39.8701 39.891 38.6476C38.2065 37.4219 37.3564 35.8334 37.3564 33.8884C37.3564 33.2038 37.426 32.3457 37.5653 31.303H36.5774L33.3446 42.0391ZM28.2674 33.7275H28.1661V34.8365H29.4057V33.7275H28.2674ZM21.0751 33.748H20.9738V34.8144H22.139V33.748H21.0751ZM28.2706 40.1809H28.1693V41.2315H29.4089V40.1809H28.2706ZM21.0798 40.1888H20.9785V41.2488H22.139V40.1888H21.0798ZM49.8934 46.62H49.7921V47.6817H50.9526V46.62H49.8934ZM42.6394 46.6595H42.5349V47.7211H43.6985V46.6595H42.6394ZM35.4645 46.6421H35.3632V47.7022H36.5268V46.6421H35.4645ZM28.3117 46.6532H28.2104V47.7132H29.3709V46.6532H28.3117ZM21.0798 46.568H20.9785V47.628H22.139V46.568H21.0798ZM14.3609 46.609H14.2596V47.6738H15.4232V46.609H14.3609ZM14.3609 40.1888H14.2596V41.2488H15.4232V40.1888H14.3609ZM14.3609 33.7007H14.2596V34.7639H15.4232V33.7007H14.3609ZM14.3609 27.3104H14.2596V28.3721H15.4232V27.3104H14.3609ZM14.353 20.8555H14.2485V21.9156H15.4121V20.8555H14.353ZM14.3609 14.4305H14.2596V15.4922H15.4232V14.4305H14.3609ZM19.161 11.334H10.232V50.7845H54.4767V42.8641H55.8129V52.1159H8.8958C8.8958 38.0797 8.8958 24.0404 8.8958 10.0042H19.161V11.334ZM57.5781 44.8754H60.0779V46.8882H64.7736V47.3567H60.0779V49.3711H57.4768V44.8754H57.5781ZM47.9826 53.4615H52.8825V55.8087H50.6169V60H50.1452V55.8087H47.8797V53.4615H47.9826ZM40.7839 53.4615H45.6838V55.8087H43.4183V60H42.9481V55.8087H40.6826V53.4615H40.7839ZM33.5884 53.4615H38.4867V55.8087H36.2212V60H35.7494V55.8087H33.4871V53.4615H33.5884ZM26.3898 53.4615H31.2913V55.8087H29.0257V60H28.554V55.8087H26.2885V53.4615H26.3898ZM19.1927 53.4615H24.0942V55.8087H21.8271V60H21.3569V55.8087H19.0914V53.4615H19.1927ZM11.9972 53.4615H16.894V55.8087H14.6332V60H14.1582V55.8087H11.8959V53.4615H11.9972ZM4.79857 44.8754H7.30156V49.3711H4.69883V47.3567H0V46.8882H4.69883V44.8754H4.79857ZM4.79857 38.4346H7.30156V42.9304H4.69883V40.9176H0V40.4491H4.69883V38.4346H4.79857ZM4.79857 31.9955H7.30156V36.4912H4.69883V34.4768H0V34.0083H4.69883V31.9955H4.79857ZM4.79857 25.5579H7.30156V30.0505H4.69883V28.0408H0V27.5707H4.69883V25.5579H4.79857ZM4.79857 19.1187H7.30156V23.6129H4.69883V21.6001H0V21.1316H4.69883V19.1187H4.79857ZM4.79857 12.678H7.30156V17.1737H4.69883V15.1609H0V14.6908H4.69883V12.678H4.79857ZM14.1582 6.24198V2.04753H14.6332V6.24198H16.894V8.58923H16.7942H11.8959V6.24198H14.1582Z" fill="white"/>
<path d="M98.3478 28.3138H100.682V24.0554H98.7724V12.5703H96.44V24.0554H87.3324V12.5703H85V26.3986H98.3478V28.3138Z" fill="white"/>
<path d="M114.168 15.935V26.3986H116.5V12.5703H114.286L105.059 22.8523V12.5703H102.728V26.3986H104.944L114.168 15.935Z" fill="white"/>
<path d="M123.153 22.7194C122.675 22.7194 122.28 22.5583 121.95 22.2267C121.616 21.8936 121.456 21.4988 121.456 21.0157V17.951C121.456 17.4694 121.616 17.0763 121.95 16.7478C122.28 16.4178 122.675 16.2584 123.153 16.2584H125.603V22.7194H123.153ZM130.395 16.2584C130.873 16.2584 131.268 16.4178 131.598 16.7478C131.929 17.0778 132.091 17.4694 132.091 17.951V21.0157C132.091 21.4988 131.929 21.8936 131.598 22.2267C131.268 22.5583 130.873 22.7194 130.395 22.7194H127.934V16.2584H130.395ZM127.934 26.9683V25.0609H130.395C130.944 25.0609 131.469 24.9504 131.957 24.7356C132.44 24.5193 132.866 24.2288 133.233 23.8672C133.594 23.5072 133.885 23.0762 134.096 22.5867C134.307 22.0957 134.415 21.5667 134.415 21.0157V17.951C134.415 17.4015 134.307 16.8742 134.096 16.3831C133.885 15.9015 133.594 15.4705 133.233 15.1042C132.871 14.7426 132.441 14.4505 131.957 14.2373C131.468 14.0242 130.941 13.9168 130.395 13.9168H127.934V12H125.603V13.9168H123.153C122.606 13.9168 122.077 14.0242 121.588 14.2373C121.097 14.4505 120.665 14.7426 120.308 15.1042C119.948 15.4657 119.657 15.8968 119.443 16.3831C119.23 16.8742 119.124 17.4015 119.124 17.951V21.0157C119.124 21.5809 119.229 22.1162 119.435 22.6041C119.641 23.0967 119.929 23.5293 120.287 23.8878C120.654 24.2493 121.085 24.5383 121.571 24.7451C122.06 24.9535 122.593 25.0609 123.153 25.0609H125.603V26.9683H127.934Z" fill="white"/>
<path d="M139.371 14.9125H146.783C147.263 14.9125 147.656 15.0751 147.986 15.4067C148.318 15.7398 148.48 16.1346 148.48 16.6146V18.5314C148.48 19.0114 148.318 19.4061 147.986 19.7393C147.656 20.074 147.263 20.2335 146.783 20.2335H139.371V14.9125ZM149.649 21.3482C150.01 20.9787 150.297 20.5477 150.5 20.0693C150.707 19.5908 150.811 19.0714 150.811 18.5314V16.6098C150.798 16.0493 150.679 15.5156 150.459 15.023C150.234 14.5319 149.941 14.1009 149.586 13.7456C149.227 13.3856 148.803 13.0967 148.318 12.8867C147.835 12.6767 147.316 12.5693 146.783 12.5693H137.039V26.3992H139.371V22.5671H146.783C147.345 22.5671 147.879 22.455 148.369 22.2355C148.856 22.0177 149.284 21.7192 149.649 21.3482Z" fill="white"/>
<path d="M164.496 16.614V22.3518C164.496 22.8349 164.334 23.2297 164.003 23.5628C163.672 23.896 163.275 24.0554 162.799 24.0554H157.083C156.604 24.0554 156.209 23.896 155.88 23.5628C155.545 23.2297 155.386 22.8349 155.386 22.3518V16.614C155.386 16.134 155.545 15.7392 155.88 15.4061C156.209 15.0729 156.602 14.9134 157.083 14.9134H162.799C163.275 14.9134 163.672 15.0729 164.003 15.4061C164.334 15.7392 164.496 16.134 164.496 16.614ZM165.634 25.2065C165.996 24.8449 166.289 24.4154 166.503 23.926C166.718 23.4365 166.828 22.9076 166.828 22.3518V16.614C166.828 16.0645 166.715 15.5355 166.492 15.0429C166.271 14.5598 165.971 14.1303 165.603 13.7656C165.238 13.4056 164.81 13.1103 164.331 12.8971C163.849 12.6793 163.333 12.5703 162.799 12.5703H157.083C156.535 12.5703 156.011 12.6793 155.517 12.8971C155.028 13.1103 154.599 13.4056 154.238 13.7671C153.875 14.1303 153.586 14.5613 153.375 15.0492C153.161 15.5371 153.056 16.0645 153.056 16.614V22.3518C153.056 22.9186 153.159 23.4539 153.365 23.9402C153.57 24.4328 153.858 24.8654 154.219 25.2286C154.583 25.5917 155.012 25.8823 155.501 26.0875C155.992 26.2944 156.524 26.3986 157.083 26.3986H162.799C163.348 26.3986 163.873 26.2881 164.36 26.0717C164.846 25.857 165.273 25.5633 165.634 25.2065Z" fill="white"/>
<path d="M171.772 20.6598H179.183C179.663 20.6598 180.057 20.8208 180.386 21.1492C180.718 21.4808 180.88 21.874 180.88 22.354C180.88 22.834 180.718 23.2303 180.386 23.5634C180.057 23.895 179.663 24.0576 179.183 24.0576H171.772V20.6598ZM179.183 18.3182H171.772V14.9125H179.183C179.664 14.9125 180.057 15.0751 180.386 15.4067C180.718 15.7398 180.88 16.1361 180.88 16.6146C180.88 17.0946 180.718 17.4909 180.386 17.8256C180.057 18.1572 179.663 18.3182 179.183 18.3182ZM182.049 25.1676C182.41 24.806 182.698 24.3813 182.901 23.9045C183.107 23.4292 183.212 22.9082 183.212 22.354C183.212 21.2282 182.813 20.2619 182.019 19.485C182.813 18.7051 183.212 17.7403 183.212 16.6146C183.212 16.0525 183.101 15.5156 182.879 15.023C182.656 14.5319 182.358 14.1009 181.993 13.7456C181.63 13.3841 181.196 13.0967 180.71 12.8867C180.221 12.6767 179.708 12.5693 179.183 12.5693H169.44V26.3976H169.652H179.188C179.749 26.385 180.282 26.265 180.771 26.0439C181.254 25.8229 181.684 25.5292 182.049 25.1676Z" fill="white"/>
<path d="M188.16 19.6976H195.571C196.05 19.6976 196.445 19.8602 196.774 20.1918C197.107 20.525 197.268 20.9197 197.268 21.4013V22.3534C197.268 22.8334 197.107 23.2281 196.774 23.5628C196.445 23.8944 196.05 24.0554 195.571 24.0554H188.16V19.6976ZM198.436 25.1765C198.798 24.8086 199.086 24.376 199.289 23.896C199.495 23.4128 199.6 22.8949 199.6 22.3534V21.395C199.587 20.8329 199.468 20.2976 199.246 19.8065C199.023 19.3155 198.729 18.886 198.376 18.5292C198.018 18.1692 197.59 17.8803 197.107 17.6718C196.623 17.4618 196.105 17.3545 195.571 17.3545H188.16V12.5703H185.828V26.3986H195.571C196.134 26.3986 196.668 26.2849 197.159 26.0607C197.644 25.8412 198.073 25.5428 198.436 25.1765Z" fill="white"/>
<path d="M203.417 12.5703H201.085V26.3986H203.417V12.5703Z" fill="white"/>
<path d="M220 14.9125V12.5693H206.228V26.3992H220V24.0561H208.56V20.6598H218.092V18.3182H208.56V14.9125H220Z" fill="white"/>
<path d="M88.1488 36.5133H95.5611C96.0423 36.5133 96.4339 36.6759 96.7642 37.0075C97.096 37.3406 97.258 37.7354 97.258 38.2154V40.1322C97.258 40.6122 97.096 41.0069 96.7642 41.3401C96.4339 41.6748 96.0407 41.8343 95.5611 41.8343H88.1488V36.5133ZM98.3637 35.3465C98.0051 34.9865 97.5804 34.6975 97.096 34.4875C96.6116 34.2775 96.0958 34.1702 95.5611 34.1702H85.8164V48H88.1488V44.1679H95.5611C96.1225 44.1679 96.6572 44.0558 97.1464 43.8364C97.6339 43.6185 98.0633 43.3201 98.4266 42.949C98.7883 42.5795 99.0745 42.1485 99.279 41.6701C99.485 41.1917 99.5904 40.6722 99.5904 40.1322V38.2106C99.5762 37.6501 99.4583 37.1164 99.2365 36.6238C99.0132 36.1328 98.7191 35.7017 98.3637 35.3465Z" fill="white"/>
<path d="M102.019 47.9994H115.791V45.6563H104.351V42.2616H113.883V39.9184H104.351V36.5143H115.791V34.1711H102.019V47.9994Z" fill="white"/>
<path d="M133.478 45.6563H128.177V34.1711H125.852V45.6563H120.552V34.1711H118.221V47.9994H135.809V34.1711H133.478V45.6563Z" fill="white"/>
<path d="M138.619 47.9994H152.392V45.6563H140.952V42.2616H150.484V39.9184H140.952V36.5143H152.392V34.1711H138.619V47.9994Z" fill="white"/>
<path d="M166.26 39.919H157.151V34.1702H154.818V48H157.151V42.2606H166.26V48H168.591V34.1702H166.26V39.919Z" fill="white"/>
<path d="M173.734 44.4531V34.1711H171.403V47.9994H173.619L182.843 37.5358V47.9994H185.175V34.1711H182.961L173.734 44.4531Z" fill="white"/>
<path d="M199.426 36.5133V41.8343H192.013C191.532 41.8343 191.137 41.6748 190.809 41.3401C190.478 41.0101 190.318 40.6138 190.318 40.1322V38.2154C190.318 37.7338 190.478 37.3391 190.809 37.0075C191.137 36.6759 191.532 36.5133 192.013 36.5133H199.426ZM190.426 34.5096C189.939 34.7291 189.511 35.0307 189.152 35.4001C188.795 35.7665 188.508 36.1975 188.298 36.6791C188.091 37.1622 187.984 37.6785 187.984 38.2154V40.1322C187.984 40.5711 188.055 41.0006 188.195 41.4111C188.335 41.8216 188.531 42.1974 188.78 42.5274C189.028 42.8574 189.329 43.1495 189.668 43.3974C189.92 43.579 190.186 43.7322 190.464 43.8506L187.984 46.3437V48H189.643L193.451 44.1679H199.426V48H201.756V34.1702H192.013C191.455 34.1702 190.922 34.2838 190.426 34.5096Z" fill="white"/>
</svg>
