<svg width="24" height="24" viewBox="0 0 24 24" fill="none" xmlns="http://www.w3.org/2000/svg">
<path fill-rule="evenodd" clip-rule="evenodd" d="M12 17C14 17 18 12.3137 18 9C18 5.68629 15.3137 3 12 3C8.68629 3 6 5.68629 6 9C6 12.3137 10 17 12 17ZM12 11C13.1046 11 14 10.1046 14 9C14 7.89543 13.1046 7 12 7C10.8954 7 10 7.89543 10 9C10 10.1046 10.8954 11 12 11Z" fill="#F8F1DF"/>
<path opacity="0.4" fill-rule="evenodd" clip-rule="evenodd" d="M7.01085 15.0938C6.15303 15.2831 5.37265 15.7519 4.79998 16.4391L3.733 17.7194C2.64746 19.0221 3.57377 20.9998 5.26945 20.9998H18.7293C20.425 20.9998 21.3513 19.0221 20.2657 17.7194L19.1987 16.4391C18.6261 15.7519 17.8457 15.2831 16.9879 15.0938C16.9677 15.1197 16.9476 15.1454 16.9274 15.171C16.2396 16.0435 15.4612 16.8316 14.6794 17.4167C13.9566 17.9576 13.0016 18.4998 11.9994 18.4998C10.9972 18.4998 10.0421 17.9576 9.31937 17.4167C8.53752 16.8316 7.75911 16.0435 7.07134 15.171C7.05116 15.1454 7.03099 15.1197 7.01085 15.0938Z" fill="#F8F1DF"/>
</svg>
