<svg width="30" height="30" viewBox="0 0 30 30" fill="none" xmlns="http://www.w3.org/2000/svg">
<g clip-path="url(#clip0_870_36844)">
<path d="M22.0165 19.3954C23.832 16.918 24.6452 13.8464 24.2933 10.7951C23.9414 7.74382 22.4504 4.93794 20.1185 2.9388C17.7867 0.93966 14.786 -0.105311 11.7168 0.0129514C8.64757 0.131214 5.73619 1.40399 3.5651 3.57663C1.394 5.74928 0.123313 8.66158 0.00724741 11.7309C-0.108819 14.8002 0.938298 17.8001 2.93911 20.1305C4.93992 22.4609 7.74686 23.9499 10.7984 24.2997C13.8499 24.6494 16.9209 23.834 19.3971 22.0167H19.3952C19.4515 22.0917 19.5115 22.1629 19.579 22.2323L26.7977 29.4511C27.1493 29.8029 27.6262 30.0006 28.1236 30.0008C28.621 30.001 29.0981 29.8036 29.4499 29.452C29.8017 29.1004 29.9995 28.6235 29.9997 28.1261C29.9998 27.6287 29.8024 27.1516 29.4508 26.7998L22.2321 19.5811C22.1651 19.5132 22.093 19.4524 22.0165 19.3954ZM22.5002 12.1879C22.5002 13.5422 22.2335 14.8832 21.7152 16.1344C21.197 17.3855 20.4374 18.5224 19.4798 19.48C18.5222 20.4376 17.3853 21.1972 16.1341 21.7154C14.883 22.2337 13.542 22.5004 12.1877 22.5004C10.8335 22.5004 9.49247 22.2337 8.2413 21.7154C6.99013 21.1972 5.85328 20.4376 4.89568 19.48C3.93808 18.5224 3.17846 17.3855 2.66021 16.1344C2.14196 14.8832 1.87522 13.5422 1.87522 12.1879C1.87522 9.45289 2.96171 6.82986 4.89568 4.89589C6.82965 2.96193 9.45267 1.87543 12.1877 1.87543C14.9228 1.87543 17.5458 2.96193 19.4798 4.89589C21.4137 6.82986 22.5002 9.45289 22.5002 12.1879Z" fill="white"/>
</g>
<defs>
<clipPath id="clip0_870_36844">
<rect width="30" height="30" fill="white"/>
</clipPath>
</defs>
</svg>
