<svg width="12" height="14" viewBox="0 0 12 14" fill="none" xmlns="http://www.w3.org/2000/svg">
<path d="M9.28796 0.332295C7.10995 -0.110765 4.84817 -0.110765 2.67016 0.332295C1.70681 0.553825 0.492147 1.79439 0.282723 2.76913C-0.0942409 4.67429 -0.0942409 6.62375 0.282723 8.52891C0.534031 9.50364 1.74869 10.7442 2.67016 10.9657C2.71204 10.9657 2.75392 11.0101 2.75392 11.0544V13.8456C2.75392 13.9786 2.92147 14.0672 3.00524 13.9342L4.26178 12.5608C4.26178 12.5608 5.26701 11.4531 5.43455 11.2759C5.43455 11.2759 5.47644 11.2316 5.51833 11.2316C6.77487 11.2759 8.0733 11.143 9.32984 10.9214C10.2932 10.6999 11.5079 9.45934 11.7173 8.48461C12.0942 6.57945 12.0942 4.62998 11.7173 2.72482C11.466 1.79439 10.2513 0.553825 9.28796 0.332295ZM9.32984 8.66183C9.12042 9.10489 8.86911 9.45934 8.45026 9.68087C8.32461 9.72518 8.19895 9.76948 8.0733 9.81379C7.90576 9.76948 7.7801 9.72518 7.65445 9.68087C6.31414 9.10489 5.05759 8.30738 4.05236 7.15543C3.50785 6.49083 3.04712 5.73763 2.67016 4.94012C2.50262 4.54137 2.33508 4.18692 2.20942 3.78817C2.08377 3.43372 2.29319 3.07927 2.50262 2.81343C2.71204 2.5476 2.96335 2.37037 3.25654 2.23745C3.46597 2.10454 3.67539 2.19315 3.84293 2.37037C4.17801 2.81343 4.51309 3.25649 4.7644 3.74386C4.93194 4.054 4.89005 4.40845 4.59686 4.62998C4.51309 4.67429 4.4712 4.71859 4.38743 4.80721C4.34555 4.85151 4.26178 4.89582 4.21989 4.98443C4.13612 5.11735 4.13612 5.25027 4.17801 5.38318C4.51309 6.40222 5.14136 7.19973 6.10471 7.64279C6.27225 7.7314 6.39791 7.77571 6.60733 7.77571C6.90052 7.7314 7.02618 7.37695 7.2356 7.19973C7.44503 7.02251 7.69633 7.02251 7.94764 7.15543C8.15707 7.28834 8.36649 7.46557 8.6178 7.64279C8.82722 7.82001 9.03665 7.95293 9.24607 8.13016C9.37173 8.21877 9.41361 8.4403 9.32984 8.66183ZM7.57068 5.33888C7.48691 5.33888 7.52879 5.33888 7.57068 5.33888C7.40314 5.33888 7.36126 5.25027 7.31937 5.11735C7.31937 5.02874 7.31937 4.89582 7.27749 4.80721C7.2356 4.62998 7.15183 4.45276 6.98429 4.31984C6.90052 4.27553 6.81675 4.23123 6.73298 4.18692C6.60733 4.14261 6.52356 4.14261 6.39791 4.14261C6.27225 4.09831 6.23037 4.0097 6.23037 3.87678C6.23037 3.78817 6.35602 3.69955 6.43979 3.69955C7.10995 3.74386 7.61256 4.14261 7.69633 4.98443C7.69633 5.02873 7.69633 5.11735 7.69633 5.16165C7.69633 5.25027 7.65445 5.33888 7.57068 5.33888ZM7.15183 3.38941C6.94241 3.3008 6.73298 3.21219 6.48167 3.16788C6.3979 3.16788 6.27225 3.12358 6.18848 3.12358C6.06283 3.12358 5.97906 3.03496 6.02094 2.90205C6.02094 2.76913 6.10471 2.68052 6.23037 2.72482C6.64921 2.76913 7.02618 2.85774 7.40314 3.03496C8.15707 3.43372 8.57592 4.09831 8.70157 4.98443C8.70157 5.02873 8.70157 5.07304 8.70157 5.11735C8.70157 5.20596 8.70157 5.29457 8.70157 5.42749C8.70157 5.4718 8.70157 5.5161 8.70157 5.56041C8.65969 5.73763 8.36649 5.78194 8.32461 5.56041C8.32461 5.5161 8.28272 5.42749 8.28272 5.38318C8.28272 4.98443 8.19895 4.58567 8.03141 4.23123C7.78011 3.83247 7.48691 3.56664 7.15183 3.38941ZM9.41361 6.04777C9.28796 6.04777 9.20419 5.91486 9.20419 5.78194C9.20419 5.5161 9.1623 5.25026 9.12042 4.98443C8.95288 3.56664 7.86388 2.41468 6.56545 2.19315C6.35602 2.14884 6.1466 2.14884 5.97906 2.10454C5.8534 2.10454 5.68586 2.10454 5.64398 1.92731C5.60209 1.79439 5.72775 1.66148 5.8534 1.66148C5.89529 1.66148 5.93717 1.66148 5.93717 1.66148C6.02094 1.66148 7.65445 1.70578 5.93717 1.66148C7.69634 1.70578 9.1623 2.94635 9.4555 4.80721C9.49738 5.11735 9.53927 5.42749 9.53927 5.78194C9.62304 5.91486 9.53927 6.04777 9.41361 6.04777Z" fill="#1E2020"/>
</svg>
