<svg width="12" height="12" viewBox="0 0 12 12" fill="none" xmlns="http://www.w3.org/2000/svg">
<path fill-rule="evenodd" clip-rule="evenodd" d="M10.2 1.725C9.075 0.6 7.575 0 6 0C2.7 0 0 2.7 0 6C0 7.05 0.300005 8.1 0.825005 9L0 12L3.15001 11.175C4.05001 11.625 5.025 11.925 6 11.925C9.3 11.925 12 9.225 12 5.925C12 4.35 11.325 2.85 10.2 1.725ZM6 10.95C5.1 10.95 4.2 10.725 3.45 10.275L3.3 10.2L1.425 10.725L1.95 8.925L1.8 8.7C1.275 7.875 1.05 6.975 1.05 6.075C1.05 3.375 3.3 1.125 6 1.125C7.35 1.125 8.55001 1.65 9.52501 2.55C10.5 3.525 10.95 4.725 10.95 6.075C10.95 8.7 8.775 10.95 6 10.95ZM8.7 7.2C8.55 7.125 7.80001 6.75 7.65001 6.75C7.50001 6.675 7.42499 6.675 7.34999 6.825C7.27499 6.975 6.97501 7.275 6.90001 7.425C6.82501 7.5 6.74999 7.5 6.59999 7.5C6.44999 7.425 6.00001 7.275 5.40001 6.75C4.95001 6.375 4.65 5.85 4.575 5.7C4.5 5.55 4.57501 5.475 4.65001 5.4C4.72501 5.325 4.8 5.25 4.875 5.175C4.95 5.1 4.95001 5.025 5.02501 4.95C5.10001 4.875 5.02501 4.8 5.02501 4.725C5.02501 4.65 4.725 3.9 4.575 3.6C4.5 3.375 4.35001 3.375 4.27501 3.375C4.20001 3.375 4.12499 3.375 3.97499 3.375C3.89999 3.375 3.74999 3.375 3.59999 3.525C3.44999 3.675 3.075 4.05 3.075 4.8C3.075 5.55 3.6 6.225 3.675 6.375C3.75 6.45 4.72499 8.025 6.22499 8.625C7.49999 9.15 7.72501 9 8.02501 9C8.32501 9 8.925 8.625 9 8.325C9.15 7.95 9.15 7.65 9.075 7.65C9 7.275 8.85 7.275 8.7 7.2Z" fill="#1E2020"/>
</svg>
