<svg width="901" height="387" viewBox="0 0 901 387" fill="none" xmlns="http://www.w3.org/2000/svg">
<path d="M834.794 344.172C835.41 344.172 835.937 344.223 836.376 344.326C836.824 344.429 837.165 344.629 837.398 344.928C837.641 345.227 837.762 345.67 837.762 346.258C837.762 346.659 837.706 347.037 837.594 347.392C837.491 347.747 837.314 348.115 837.062 348.498C836.81 348.871 836.469 349.296 836.04 349.772L833.268 352.866C833.511 352.847 833.767 352.833 834.038 352.824C834.318 352.815 834.584 352.81 834.836 352.81H838.112V354H831.77V353.23C831.77 353.127 831.784 353.034 831.812 352.95C831.84 352.857 831.887 352.773 831.952 352.698L834.752 349.534C835.368 348.871 835.821 348.283 836.11 347.77C836.399 347.257 836.535 346.771 836.516 346.314C836.507 345.997 836.427 345.768 836.278 345.628C836.138 345.479 835.933 345.381 835.662 345.334C835.401 345.287 835.083 345.264 834.71 345.264C834.411 345.264 834.127 345.269 833.856 345.278C833.585 345.287 833.296 345.311 832.988 345.348C832.689 345.376 832.339 345.423 831.938 345.488L831.854 344.536C832.293 344.433 832.675 344.359 833.002 344.312C833.338 344.256 833.646 344.219 833.926 344.2C834.215 344.181 834.505 344.172 834.794 344.172ZM843.775 344.158C844.606 344.158 845.264 344.331 845.749 344.676C846.235 345.021 846.58 345.563 846.785 346.3C847 347.037 847.107 347.994 847.107 349.17C847.107 350.346 847 351.303 846.785 352.04C846.58 352.777 846.235 353.319 845.749 353.664C845.264 354.009 844.606 354.182 843.775 354.182C842.954 354.182 842.301 354.009 841.815 353.664C841.33 353.319 840.98 352.777 840.765 352.04C840.56 351.303 840.457 350.346 840.457 349.17C840.457 347.994 840.56 347.037 840.765 346.3C840.98 345.563 841.33 345.021 841.815 344.676C842.301 344.331 842.954 344.158 843.775 344.158ZM843.775 345.236C843.374 345.236 843.038 345.311 842.767 345.46C842.497 345.6 842.277 345.824 842.109 346.132C841.951 346.44 841.834 346.846 841.759 347.35C841.694 347.845 841.661 348.451 841.661 349.17C841.661 349.879 841.694 350.486 841.759 350.99C841.834 351.494 841.951 351.9 842.109 352.208C842.277 352.516 842.497 352.745 842.767 352.894C843.038 353.034 843.374 353.104 843.775 353.104C844.177 353.104 844.513 353.034 844.783 352.894C845.063 352.745 845.283 352.516 845.441 352.208C845.609 351.9 845.726 351.494 845.791 350.99C845.866 350.486 845.903 349.879 845.903 349.17C845.903 348.451 845.866 347.845 845.791 347.35C845.726 346.846 845.609 346.44 845.441 346.132C845.283 345.824 845.063 345.6 844.783 345.46C844.513 345.311 844.177 345.236 843.775 345.236ZM852.491 344.172C853.107 344.172 853.634 344.223 854.073 344.326C854.521 344.429 854.862 344.629 855.095 344.928C855.338 345.227 855.459 345.67 855.459 346.258C855.459 346.659 855.403 347.037 855.291 347.392C855.188 347.747 855.011 348.115 854.759 348.498C854.507 348.871 854.166 349.296 853.737 349.772L850.965 352.866C851.208 352.847 851.464 352.833 851.735 352.824C852.015 352.815 852.281 352.81 852.533 352.81H855.809V354H849.467V353.23C849.467 353.127 849.481 353.034 849.509 352.95C849.537 352.857 849.584 352.773 849.649 352.698L852.449 349.534C853.065 348.871 853.518 348.283 853.807 347.77C854.096 347.257 854.232 346.771 854.213 346.314C854.204 345.997 854.124 345.768 853.975 345.628C853.835 345.479 853.63 345.381 853.359 345.334C853.098 345.287 852.78 345.264 852.407 345.264C852.108 345.264 851.824 345.269 851.553 345.278C851.282 345.287 850.993 345.311 850.685 345.348C850.386 345.376 850.036 345.423 849.635 345.488L849.551 344.536C849.99 344.433 850.372 344.359 850.699 344.312C851.035 344.256 851.343 344.219 851.623 344.2C851.912 344.181 852.202 344.172 852.491 344.172ZM860.87 344.158C861.58 344.158 862.149 344.228 862.578 344.368C863.017 344.499 863.339 344.727 863.544 345.054C863.75 345.381 863.852 345.829 863.852 346.398C863.852 346.809 863.81 347.187 863.726 347.532C863.642 347.868 863.498 348.153 863.292 348.386C863.096 348.61 862.812 348.759 862.438 348.834V348.89C863.073 348.993 863.507 349.259 863.74 349.688C863.983 350.108 864.109 350.649 864.118 351.312C864.128 351.965 864.034 352.507 863.838 352.936C863.642 353.356 863.32 353.669 862.872 353.874C862.424 354.079 861.818 354.182 861.052 354.182C860.539 354.182 860.021 354.154 859.498 354.098C858.985 354.051 858.481 353.995 857.986 353.93L858.07 352.936C858.388 352.964 858.691 352.992 858.98 353.02C859.279 353.039 859.573 353.053 859.862 353.062C860.152 353.071 860.446 353.076 860.744 353.076C861.267 353.076 861.682 353.02 861.99 352.908C862.308 352.787 862.536 352.586 862.676 352.306C862.826 352.026 862.9 351.653 862.9 351.186C862.9 350.831 862.849 350.523 862.746 350.262C862.653 349.991 862.466 349.781 862.186 349.632C861.916 349.483 861.514 349.408 860.982 349.408H859.19V348.442H860.982C861.365 348.442 861.668 348.391 861.892 348.288C862.126 348.185 862.298 348.055 862.41 347.896C862.522 347.728 862.592 347.541 862.62 347.336C862.658 347.121 862.676 346.902 862.676 346.678C862.667 346.267 862.602 345.964 862.48 345.768C862.359 345.563 862.154 345.427 861.864 345.362C861.584 345.287 861.197 345.25 860.702 345.25C860.245 345.25 859.802 345.264 859.372 345.292C858.952 345.311 858.579 345.334 858.252 345.362L858.154 344.41C858.63 344.326 859.088 344.265 859.526 344.228C859.974 344.181 860.422 344.158 860.87 344.158Z" fill="#F8F1DF"/>
<path d="M732.794 344.172C733.41 344.172 733.937 344.223 734.376 344.326C734.824 344.429 735.165 344.629 735.398 344.928C735.641 345.227 735.762 345.67 735.762 346.258C735.762 346.659 735.706 347.037 735.594 347.392C735.491 347.747 735.314 348.115 735.062 348.498C734.81 348.871 734.469 349.296 734.04 349.772L731.268 352.866C731.511 352.847 731.767 352.833 732.038 352.824C732.318 352.815 732.584 352.81 732.836 352.81H736.112V354H729.77V353.23C729.77 353.127 729.784 353.034 729.812 352.95C729.84 352.857 729.887 352.773 729.952 352.698L732.752 349.534C733.368 348.871 733.821 348.283 734.11 347.77C734.399 347.257 734.535 346.771 734.516 346.314C734.507 345.997 734.427 345.768 734.278 345.628C734.138 345.479 733.933 345.381 733.662 345.334C733.401 345.287 733.083 345.264 732.71 345.264C732.411 345.264 732.127 345.269 731.856 345.278C731.585 345.287 731.296 345.311 730.988 345.348C730.689 345.376 730.339 345.423 729.938 345.488L729.854 344.536C730.293 344.433 730.675 344.359 731.002 344.312C731.338 344.256 731.646 344.219 731.926 344.2C732.215 344.181 732.505 344.172 732.794 344.172ZM741.775 344.158C742.606 344.158 743.264 344.331 743.749 344.676C744.235 345.021 744.58 345.563 744.785 346.3C745 347.037 745.107 347.994 745.107 349.17C745.107 350.346 745 351.303 744.785 352.04C744.58 352.777 744.235 353.319 743.749 353.664C743.264 354.009 742.606 354.182 741.775 354.182C740.954 354.182 740.301 354.009 739.815 353.664C739.33 353.319 738.98 352.777 738.765 352.04C738.56 351.303 738.457 350.346 738.457 349.17C738.457 347.994 738.56 347.037 738.765 346.3C738.98 345.563 739.33 345.021 739.815 344.676C740.301 344.331 740.954 344.158 741.775 344.158ZM741.775 345.236C741.374 345.236 741.038 345.311 740.767 345.46C740.497 345.6 740.277 345.824 740.109 346.132C739.951 346.44 739.834 346.846 739.759 347.35C739.694 347.845 739.661 348.451 739.661 349.17C739.661 349.879 739.694 350.486 739.759 350.99C739.834 351.494 739.951 351.9 740.109 352.208C740.277 352.516 740.497 352.745 740.767 352.894C741.038 353.034 741.374 353.104 741.775 353.104C742.177 353.104 742.513 353.034 742.783 352.894C743.063 352.745 743.283 352.516 743.441 352.208C743.609 351.9 743.726 351.494 743.791 350.99C743.866 350.486 743.903 349.879 743.903 349.17C743.903 348.451 743.866 347.845 743.791 347.35C743.726 346.846 743.609 346.44 743.441 346.132C743.283 345.824 743.063 345.6 742.783 345.46C742.513 345.311 742.177 345.236 741.775 345.236ZM750.491 344.172C751.107 344.172 751.634 344.223 752.073 344.326C752.521 344.429 752.862 344.629 753.095 344.928C753.338 345.227 753.459 345.67 753.459 346.258C753.459 346.659 753.403 347.037 753.291 347.392C753.188 347.747 753.011 348.115 752.759 348.498C752.507 348.871 752.166 349.296 751.737 349.772L748.965 352.866C749.208 352.847 749.464 352.833 749.735 352.824C750.015 352.815 750.281 352.81 750.533 352.81H753.809V354H747.467V353.23C747.467 353.127 747.481 353.034 747.509 352.95C747.537 352.857 747.584 352.773 747.649 352.698L750.449 349.534C751.065 348.871 751.518 348.283 751.807 347.77C752.096 347.257 752.232 346.771 752.213 346.314C752.204 345.997 752.124 345.768 751.975 345.628C751.835 345.479 751.63 345.381 751.359 345.334C751.098 345.287 750.78 345.264 750.407 345.264C750.108 345.264 749.824 345.269 749.553 345.278C749.282 345.287 748.993 345.311 748.685 345.348C748.386 345.376 748.036 345.423 747.635 345.488L747.551 344.536C747.99 344.433 748.372 344.359 748.699 344.312C749.035 344.256 749.343 344.219 749.623 344.2C749.912 344.181 750.202 344.172 750.491 344.172ZM759.052 344.172C759.668 344.172 760.196 344.223 760.634 344.326C761.082 344.429 761.423 344.629 761.656 344.928C761.899 345.227 762.02 345.67 762.02 346.258C762.02 346.659 761.964 347.037 761.852 347.392C761.75 347.747 761.572 348.115 761.32 348.498C761.068 348.871 760.728 349.296 760.298 349.772L757.526 352.866C757.769 352.847 758.026 352.833 758.296 352.824C758.576 352.815 758.842 352.81 759.094 352.81H762.37V354H756.028V353.23C756.028 353.127 756.042 353.034 756.07 352.95C756.098 352.857 756.145 352.773 756.21 352.698L759.01 349.534C759.626 348.871 760.079 348.283 760.368 347.77C760.658 347.257 760.793 346.771 760.774 346.314C760.765 345.997 760.686 345.768 760.536 345.628C760.396 345.479 760.191 345.381 759.92 345.334C759.659 345.287 759.342 345.264 758.968 345.264C758.67 345.264 758.385 345.269 758.114 345.278C757.844 345.287 757.554 345.311 757.246 345.348C756.948 345.376 756.598 345.423 756.196 345.488L756.112 344.536C756.551 344.433 756.934 344.359 757.26 344.312C757.596 344.256 757.904 344.219 758.184 344.2C758.474 344.181 758.763 344.172 759.052 344.172Z" fill="#F8F1DF"/>
<path d="M633.794 344.172C634.41 344.172 634.937 344.223 635.376 344.326C635.824 344.429 636.165 344.629 636.398 344.928C636.641 345.227 636.762 345.67 636.762 346.258C636.762 346.659 636.706 347.037 636.594 347.392C636.491 347.747 636.314 348.115 636.062 348.498C635.81 348.871 635.469 349.296 635.04 349.772L632.268 352.866C632.511 352.847 632.767 352.833 633.038 352.824C633.318 352.815 633.584 352.81 633.836 352.81H637.112V354H630.77V353.23C630.77 353.127 630.784 353.034 630.812 352.95C630.84 352.857 630.887 352.773 630.952 352.698L633.752 349.534C634.368 348.871 634.821 348.283 635.11 347.77C635.399 347.257 635.535 346.771 635.516 346.314C635.507 345.997 635.427 345.768 635.278 345.628C635.138 345.479 634.933 345.381 634.662 345.334C634.401 345.287 634.083 345.264 633.71 345.264C633.411 345.264 633.127 345.269 632.856 345.278C632.585 345.287 632.296 345.311 631.988 345.348C631.689 345.376 631.339 345.423 630.938 345.488L630.854 344.536C631.293 344.433 631.675 344.359 632.002 344.312C632.338 344.256 632.646 344.219 632.926 344.2C633.215 344.181 633.505 344.172 633.794 344.172ZM642.775 344.158C643.606 344.158 644.264 344.331 644.749 344.676C645.235 345.021 645.58 345.563 645.785 346.3C646 347.037 646.107 347.994 646.107 349.17C646.107 350.346 646 351.303 645.785 352.04C645.58 352.777 645.235 353.319 644.749 353.664C644.264 354.009 643.606 354.182 642.775 354.182C641.954 354.182 641.301 354.009 640.815 353.664C640.33 353.319 639.98 352.777 639.765 352.04C639.56 351.303 639.457 350.346 639.457 349.17C639.457 347.994 639.56 347.037 639.765 346.3C639.98 345.563 640.33 345.021 640.815 344.676C641.301 344.331 641.954 344.158 642.775 344.158ZM642.775 345.236C642.374 345.236 642.038 345.311 641.767 345.46C641.497 345.6 641.277 345.824 641.109 346.132C640.951 346.44 640.834 346.846 640.759 347.35C640.694 347.845 640.661 348.451 640.661 349.17C640.661 349.879 640.694 350.486 640.759 350.99C640.834 351.494 640.951 351.9 641.109 352.208C641.277 352.516 641.497 352.745 641.767 352.894C642.038 353.034 642.374 353.104 642.775 353.104C643.177 353.104 643.513 353.034 643.783 352.894C644.063 352.745 644.283 352.516 644.441 352.208C644.609 351.9 644.726 351.494 644.791 350.99C644.866 350.486 644.903 349.879 644.903 349.17C644.903 348.451 644.866 347.845 644.791 347.35C644.726 346.846 644.609 346.44 644.441 346.132C644.283 345.824 644.063 345.6 643.783 345.46C643.513 345.311 643.177 345.236 642.775 345.236ZM651.491 344.172C652.107 344.172 652.634 344.223 653.073 344.326C653.521 344.429 653.862 344.629 654.095 344.928C654.338 345.227 654.459 345.67 654.459 346.258C654.459 346.659 654.403 347.037 654.291 347.392C654.188 347.747 654.011 348.115 653.759 348.498C653.507 348.871 653.166 349.296 652.737 349.772L649.965 352.866C650.208 352.847 650.464 352.833 650.735 352.824C651.015 352.815 651.281 352.81 651.533 352.81H654.809V354H648.467V353.23C648.467 353.127 648.481 353.034 648.509 352.95C648.537 352.857 648.584 352.773 648.649 352.698L651.449 349.534C652.065 348.871 652.518 348.283 652.807 347.77C653.096 347.257 653.232 346.771 653.213 346.314C653.204 345.997 653.124 345.768 652.975 345.628C652.835 345.479 652.63 345.381 652.359 345.334C652.098 345.287 651.78 345.264 651.407 345.264C651.108 345.264 650.824 345.269 650.553 345.278C650.282 345.287 649.993 345.311 649.685 345.348C649.386 345.376 649.036 345.423 648.635 345.488L648.551 344.536C648.99 344.433 649.372 344.359 649.699 344.312C650.035 344.256 650.343 344.219 650.623 344.2C650.912 344.181 651.202 344.172 651.491 344.172ZM660.262 344.34V354H659.03V346.342C659.03 346.202 659.035 346.062 659.044 345.922C659.054 345.782 659.072 345.642 659.1 345.502L656.734 346.244L656.566 345.334L659.03 344.34H660.262Z" fill="#F8F1DF"/>
<path d="M531.794 344.172C532.41 344.172 532.937 344.223 533.376 344.326C533.824 344.429 534.165 344.629 534.398 344.928C534.641 345.227 534.762 345.67 534.762 346.258C534.762 346.659 534.706 347.037 534.594 347.392C534.491 347.747 534.314 348.115 534.062 348.498C533.81 348.871 533.469 349.296 533.04 349.772L530.268 352.866C530.511 352.847 530.767 352.833 531.038 352.824C531.318 352.815 531.584 352.81 531.836 352.81H535.112V354H528.77V353.23C528.77 353.127 528.784 353.034 528.812 352.95C528.84 352.857 528.887 352.773 528.952 352.698L531.752 349.534C532.368 348.871 532.821 348.283 533.11 347.77C533.399 347.257 533.535 346.771 533.516 346.314C533.507 345.997 533.427 345.768 533.278 345.628C533.138 345.479 532.933 345.381 532.662 345.334C532.401 345.287 532.083 345.264 531.71 345.264C531.411 345.264 531.127 345.269 530.856 345.278C530.585 345.287 530.296 345.311 529.988 345.348C529.689 345.376 529.339 345.423 528.938 345.488L528.854 344.536C529.293 344.433 529.675 344.359 530.002 344.312C530.338 344.256 530.646 344.219 530.926 344.2C531.215 344.181 531.505 344.172 531.794 344.172ZM540.775 344.158C541.606 344.158 542.264 344.331 542.749 344.676C543.235 345.021 543.58 345.563 543.785 346.3C544 347.037 544.107 347.994 544.107 349.17C544.107 350.346 544 351.303 543.785 352.04C543.58 352.777 543.235 353.319 542.749 353.664C542.264 354.009 541.606 354.182 540.775 354.182C539.954 354.182 539.301 354.009 538.815 353.664C538.33 353.319 537.98 352.777 537.765 352.04C537.56 351.303 537.457 350.346 537.457 349.17C537.457 347.994 537.56 347.037 537.765 346.3C537.98 345.563 538.33 345.021 538.815 344.676C539.301 344.331 539.954 344.158 540.775 344.158ZM540.775 345.236C540.374 345.236 540.038 345.311 539.767 345.46C539.497 345.6 539.277 345.824 539.109 346.132C538.951 346.44 538.834 346.846 538.759 347.35C538.694 347.845 538.661 348.451 538.661 349.17C538.661 349.879 538.694 350.486 538.759 350.99C538.834 351.494 538.951 351.9 539.109 352.208C539.277 352.516 539.497 352.745 539.767 352.894C540.038 353.034 540.374 353.104 540.775 353.104C541.177 353.104 541.513 353.034 541.783 352.894C542.063 352.745 542.283 352.516 542.441 352.208C542.609 351.9 542.726 351.494 542.791 350.99C542.866 350.486 542.903 349.879 542.903 349.17C542.903 348.451 542.866 347.845 542.791 347.35C542.726 346.846 542.609 346.44 542.441 346.132C542.283 345.824 542.063 345.6 541.783 345.46C541.513 345.311 541.177 345.236 540.775 345.236ZM549.491 344.172C550.107 344.172 550.634 344.223 551.073 344.326C551.521 344.429 551.862 344.629 552.095 344.928C552.338 345.227 552.459 345.67 552.459 346.258C552.459 346.659 552.403 347.037 552.291 347.392C552.188 347.747 552.011 348.115 551.759 348.498C551.507 348.871 551.166 349.296 550.737 349.772L547.965 352.866C548.208 352.847 548.464 352.833 548.735 352.824C549.015 352.815 549.281 352.81 549.533 352.81H552.809V354H546.467V353.23C546.467 353.127 546.481 353.034 546.509 352.95C546.537 352.857 546.584 352.773 546.649 352.698L549.449 349.534C550.065 348.871 550.518 348.283 550.807 347.77C551.096 347.257 551.232 346.771 551.213 346.314C551.204 345.997 551.124 345.768 550.975 345.628C550.835 345.479 550.63 345.381 550.359 345.334C550.098 345.287 549.78 345.264 549.407 345.264C549.108 345.264 548.824 345.269 548.553 345.278C548.282 345.287 547.993 345.311 547.685 345.348C547.386 345.376 547.036 345.423 546.635 345.488L546.551 344.536C546.99 344.433 547.372 344.359 547.699 344.312C548.035 344.256 548.343 344.219 548.623 344.2C548.912 344.181 549.202 344.172 549.491 344.172ZM558.472 344.158C559.303 344.158 559.961 344.331 560.446 344.676C560.932 345.021 561.277 345.563 561.482 346.3C561.697 347.037 561.804 347.994 561.804 349.17C561.804 350.346 561.697 351.303 561.482 352.04C561.277 352.777 560.932 353.319 560.446 353.664C559.961 354.009 559.303 354.182 558.472 354.182C557.651 354.182 556.998 354.009 556.512 353.664C556.027 353.319 555.677 352.777 555.462 352.04C555.257 351.303 555.154 350.346 555.154 349.17C555.154 347.994 555.257 347.037 555.462 346.3C555.677 345.563 556.027 345.021 556.512 344.676C556.998 344.331 557.651 344.158 558.472 344.158ZM558.472 345.236C558.071 345.236 557.735 345.311 557.464 345.46C557.194 345.6 556.974 345.824 556.806 346.132C556.648 346.44 556.531 346.846 556.456 347.35C556.391 347.845 556.358 348.451 556.358 349.17C556.358 349.879 556.391 350.486 556.456 350.99C556.531 351.494 556.648 351.9 556.806 352.208C556.974 352.516 557.194 352.745 557.464 352.894C557.735 353.034 558.071 353.104 558.472 353.104C558.874 353.104 559.21 353.034 559.48 352.894C559.76 352.745 559.98 352.516 560.138 352.208C560.306 351.9 560.423 351.494 560.488 350.99C560.563 350.486 560.6 349.879 560.6 349.17C560.6 348.451 560.563 347.845 560.488 347.35C560.423 346.846 560.306 346.44 560.138 346.132C559.98 345.824 559.76 345.6 559.48 345.46C559.21 345.311 558.874 345.236 558.472 345.236Z" fill="#F8F1DF"/>
<path d="M432.794 344.172C433.41 344.172 433.937 344.223 434.376 344.326C434.824 344.429 435.165 344.629 435.398 344.928C435.641 345.227 435.762 345.67 435.762 346.258C435.762 346.659 435.706 347.037 435.594 347.392C435.491 347.747 435.314 348.115 435.062 348.498C434.81 348.871 434.469 349.296 434.04 349.772L431.268 352.866C431.511 352.847 431.767 352.833 432.038 352.824C432.318 352.815 432.584 352.81 432.836 352.81H436.112V354H429.77V353.23C429.77 353.127 429.784 353.034 429.812 352.95C429.84 352.857 429.887 352.773 429.952 352.698L432.752 349.534C433.368 348.871 433.821 348.283 434.11 347.77C434.399 347.257 434.535 346.771 434.516 346.314C434.507 345.997 434.427 345.768 434.278 345.628C434.138 345.479 433.933 345.381 433.662 345.334C433.401 345.287 433.083 345.264 432.71 345.264C432.411 345.264 432.127 345.269 431.856 345.278C431.585 345.287 431.296 345.311 430.988 345.348C430.689 345.376 430.339 345.423 429.938 345.488L429.854 344.536C430.293 344.433 430.675 344.359 431.002 344.312C431.338 344.256 431.646 344.219 431.926 344.2C432.215 344.181 432.505 344.172 432.794 344.172ZM441.775 344.158C442.606 344.158 443.264 344.331 443.749 344.676C444.235 345.021 444.58 345.563 444.785 346.3C445 347.037 445.107 347.994 445.107 349.17C445.107 350.346 445 351.303 444.785 352.04C444.58 352.777 444.235 353.319 443.749 353.664C443.264 354.009 442.606 354.182 441.775 354.182C440.954 354.182 440.301 354.009 439.815 353.664C439.33 353.319 438.98 352.777 438.765 352.04C438.56 351.303 438.457 350.346 438.457 349.17C438.457 347.994 438.56 347.037 438.765 346.3C438.98 345.563 439.33 345.021 439.815 344.676C440.301 344.331 440.954 344.158 441.775 344.158ZM441.775 345.236C441.374 345.236 441.038 345.311 440.767 345.46C440.497 345.6 440.277 345.824 440.109 346.132C439.951 346.44 439.834 346.846 439.759 347.35C439.694 347.845 439.661 348.451 439.661 349.17C439.661 349.879 439.694 350.486 439.759 350.99C439.834 351.494 439.951 351.9 440.109 352.208C440.277 352.516 440.497 352.745 440.767 352.894C441.038 353.034 441.374 353.104 441.775 353.104C442.177 353.104 442.513 353.034 442.783 352.894C443.063 352.745 443.283 352.516 443.441 352.208C443.609 351.9 443.726 351.494 443.791 350.99C443.866 350.486 443.903 349.879 443.903 349.17C443.903 348.451 443.866 347.845 443.791 347.35C443.726 346.846 443.609 346.44 443.441 346.132C443.283 345.824 443.063 345.6 442.783 345.46C442.513 345.311 442.177 345.236 441.775 345.236ZM450.701 344.34V354H449.469V346.342C449.469 346.202 449.474 346.062 449.483 345.922C449.492 345.782 449.511 345.642 449.539 345.502L447.173 346.244L447.005 345.334L449.469 344.34H450.701ZM456.839 344.172C457.539 344.172 458.099 344.256 458.519 344.424C458.948 344.583 459.27 344.849 459.485 345.222C459.7 345.595 459.84 346.095 459.905 346.72C459.98 347.345 460.017 348.125 460.017 349.058C460.017 350.141 459.947 351.018 459.807 351.69C459.667 352.362 459.448 352.88 459.149 353.244C458.86 353.599 458.477 353.841 458.001 353.972C457.525 354.103 456.951 354.168 456.279 354.168C456.064 354.168 455.77 354.159 455.397 354.14C455.033 354.121 454.632 354.061 454.193 353.958L454.305 353.048C454.529 353.067 454.73 353.081 454.907 353.09C455.084 353.099 455.276 353.104 455.481 353.104C455.696 353.104 455.962 353.104 456.279 353.104C456.764 353.104 457.17 353.048 457.497 352.936C457.824 352.824 458.085 352.623 458.281 352.334C458.477 352.035 458.617 351.62 458.701 351.088C458.785 350.556 458.827 349.87 458.827 349.03C458.827 348.293 458.808 347.681 458.771 347.196C458.743 346.701 458.668 346.309 458.547 346.02C458.426 345.731 458.23 345.525 457.959 345.404C457.688 345.283 457.31 345.222 456.825 345.222C456.293 345.222 455.887 345.311 455.607 345.488C455.336 345.665 455.154 345.922 455.061 346.258C454.968 346.594 454.921 347.005 454.921 347.49C454.921 347.957 454.968 348.353 455.061 348.68C455.164 348.997 455.346 349.24 455.607 349.408C455.868 349.576 456.228 349.66 456.685 349.66C456.993 349.66 457.273 349.623 457.525 349.548C457.786 349.464 458.052 349.329 458.323 349.142C458.594 348.946 458.906 348.68 459.261 348.344L459.317 348.946C459.018 349.385 458.724 349.73 458.435 349.982C458.155 350.225 457.852 350.397 457.525 350.5C457.198 350.593 456.811 350.64 456.363 350.64C455.7 350.64 455.178 350.505 454.795 350.234C454.412 349.963 454.142 349.59 453.983 349.114C453.824 348.638 453.745 348.097 453.745 347.49C453.745 346.753 453.838 346.141 454.025 345.656C454.221 345.161 454.543 344.793 454.991 344.55C455.448 344.298 456.064 344.172 456.839 344.172Z" fill="#F8F1DF"/>
<path d="M332.794 344.172C333.41 344.172 333.937 344.223 334.376 344.326C334.824 344.429 335.165 344.629 335.398 344.928C335.641 345.227 335.762 345.67 335.762 346.258C335.762 346.659 335.706 347.037 335.594 347.392C335.491 347.747 335.314 348.115 335.062 348.498C334.81 348.871 334.469 349.296 334.04 349.772L331.268 352.866C331.511 352.847 331.767 352.833 332.038 352.824C332.318 352.815 332.584 352.81 332.836 352.81H336.112V354H329.77V353.23C329.77 353.127 329.784 353.034 329.812 352.95C329.84 352.857 329.887 352.773 329.952 352.698L332.752 349.534C333.368 348.871 333.821 348.283 334.11 347.77C334.399 347.257 334.535 346.771 334.516 346.314C334.507 345.997 334.427 345.768 334.278 345.628C334.138 345.479 333.933 345.381 333.662 345.334C333.401 345.287 333.083 345.264 332.71 345.264C332.411 345.264 332.127 345.269 331.856 345.278C331.585 345.287 331.296 345.311 330.988 345.348C330.689 345.376 330.339 345.423 329.938 345.488L329.854 344.536C330.293 344.433 330.675 344.359 331.002 344.312C331.338 344.256 331.646 344.219 331.926 344.2C332.215 344.181 332.505 344.172 332.794 344.172ZM341.775 344.158C342.606 344.158 343.264 344.331 343.749 344.676C344.235 345.021 344.58 345.563 344.785 346.3C345 347.037 345.107 347.994 345.107 349.17C345.107 350.346 345 351.303 344.785 352.04C344.58 352.777 344.235 353.319 343.749 353.664C343.264 354.009 342.606 354.182 341.775 354.182C340.954 354.182 340.301 354.009 339.815 353.664C339.33 353.319 338.98 352.777 338.765 352.04C338.56 351.303 338.457 350.346 338.457 349.17C338.457 347.994 338.56 347.037 338.765 346.3C338.98 345.563 339.33 345.021 339.815 344.676C340.301 344.331 340.954 344.158 341.775 344.158ZM341.775 345.236C341.374 345.236 341.038 345.311 340.767 345.46C340.497 345.6 340.277 345.824 340.109 346.132C339.951 346.44 339.834 346.846 339.759 347.35C339.694 347.845 339.661 348.451 339.661 349.17C339.661 349.879 339.694 350.486 339.759 350.99C339.834 351.494 339.951 351.9 340.109 352.208C340.277 352.516 340.497 352.745 340.767 352.894C341.038 353.034 341.374 353.104 341.775 353.104C342.177 353.104 342.513 353.034 342.783 352.894C343.063 352.745 343.283 352.516 343.441 352.208C343.609 351.9 343.726 351.494 343.791 350.99C343.866 350.486 343.903 349.879 343.903 349.17C343.903 348.451 343.866 347.845 343.791 347.35C343.726 346.846 343.609 346.44 343.441 346.132C343.283 345.824 343.063 345.6 342.783 345.46C342.513 345.311 342.177 345.236 341.775 345.236ZM350.701 344.34V354H349.469V346.342C349.469 346.202 349.474 346.062 349.483 345.922C349.492 345.782 349.511 345.642 349.539 345.502L347.173 346.244L347.005 345.334L349.469 344.34H350.701ZM357.231 344.2C357.847 344.2 358.351 344.251 358.743 344.354C359.144 344.457 359.457 344.611 359.681 344.816C359.914 345.021 360.073 345.287 360.157 345.614C360.25 345.931 360.297 346.309 360.297 346.748C360.297 347.168 360.25 347.537 360.157 347.854C360.064 348.171 359.914 348.428 359.709 348.624C359.513 348.811 359.252 348.923 358.925 348.96V349.016C359.336 349.053 359.653 349.184 359.877 349.408C360.11 349.623 360.274 349.917 360.367 350.29C360.46 350.654 360.507 351.088 360.507 351.592C360.507 352.18 360.418 352.665 360.241 353.048C360.064 353.421 359.737 353.697 359.261 353.874C358.794 354.051 358.118 354.14 357.231 354.14C356.363 354.14 355.691 354.051 355.215 353.874C354.739 353.697 354.408 353.421 354.221 353.048C354.034 352.665 353.941 352.18 353.941 351.592C353.941 351.088 353.988 350.654 354.081 350.29C354.184 349.917 354.352 349.623 354.585 349.408C354.818 349.184 355.136 349.053 355.537 349.016V348.96C355.21 348.923 354.944 348.811 354.739 348.624C354.534 348.428 354.384 348.171 354.291 347.854C354.198 347.537 354.151 347.168 354.151 346.748C354.151 346.309 354.198 345.931 354.291 345.614C354.384 345.287 354.543 345.021 354.767 344.816C355 344.611 355.313 344.457 355.705 344.354C356.106 344.251 356.615 344.2 357.231 344.2ZM357.259 349.478C356.82 349.478 356.461 349.506 356.181 349.562C355.901 349.618 355.682 349.716 355.523 349.856C355.364 349.987 355.252 350.173 355.187 350.416C355.131 350.659 355.103 350.967 355.103 351.34C355.103 351.769 355.159 352.115 355.271 352.376C355.392 352.628 355.607 352.81 355.915 352.922C356.232 353.025 356.676 353.076 357.245 353.076C357.814 353.076 358.248 353.025 358.547 352.922C358.846 352.81 359.051 352.628 359.163 352.376C359.275 352.115 359.331 351.769 359.331 351.34C359.331 350.957 359.298 350.645 359.233 350.402C359.177 350.159 359.074 349.973 358.925 349.842C358.776 349.702 358.566 349.609 358.295 349.562C358.024 349.506 357.679 349.478 357.259 349.478ZM357.245 345.194C356.713 345.194 356.307 345.245 356.027 345.348C355.747 345.451 355.551 345.623 355.439 345.866C355.336 346.109 355.285 346.44 355.285 346.86C355.285 347.299 355.336 347.639 355.439 347.882C355.551 348.115 355.747 348.279 356.027 348.372C356.316 348.456 356.727 348.498 357.259 348.498C357.8 348.498 358.206 348.451 358.477 348.358C358.757 348.265 358.944 348.101 359.037 347.868C359.13 347.625 359.177 347.289 359.177 346.86C359.177 346.44 359.126 346.109 359.023 345.866C358.93 345.623 358.743 345.451 358.463 345.348C358.183 345.245 357.777 345.194 357.245 345.194Z" fill="#F8F1DF"/>
<path d="M233.794 344.172C234.41 344.172 234.937 344.223 235.376 344.326C235.824 344.429 236.165 344.629 236.398 344.928C236.641 345.227 236.762 345.67 236.762 346.258C236.762 346.659 236.706 347.037 236.594 347.392C236.491 347.747 236.314 348.115 236.062 348.498C235.81 348.871 235.469 349.296 235.04 349.772L232.268 352.866C232.511 352.847 232.767 352.833 233.038 352.824C233.318 352.815 233.584 352.81 233.836 352.81H237.112V354H230.77V353.23C230.77 353.127 230.784 353.034 230.812 352.95C230.84 352.857 230.887 352.773 230.952 352.698L233.752 349.534C234.368 348.871 234.821 348.283 235.11 347.77C235.399 347.257 235.535 346.771 235.516 346.314C235.507 345.997 235.427 345.768 235.278 345.628C235.138 345.479 234.933 345.381 234.662 345.334C234.401 345.287 234.083 345.264 233.71 345.264C233.411 345.264 233.127 345.269 232.856 345.278C232.585 345.287 232.296 345.311 231.988 345.348C231.689 345.376 231.339 345.423 230.938 345.488L230.854 344.536C231.293 344.433 231.675 344.359 232.002 344.312C232.338 344.256 232.646 344.219 232.926 344.2C233.215 344.181 233.505 344.172 233.794 344.172ZM242.775 344.158C243.606 344.158 244.264 344.331 244.749 344.676C245.235 345.021 245.58 345.563 245.785 346.3C246 347.037 246.107 347.994 246.107 349.17C246.107 350.346 246 351.303 245.785 352.04C245.58 352.777 245.235 353.319 244.749 353.664C244.264 354.009 243.606 354.182 242.775 354.182C241.954 354.182 241.301 354.009 240.815 353.664C240.33 353.319 239.98 352.777 239.765 352.04C239.56 351.303 239.457 350.346 239.457 349.17C239.457 347.994 239.56 347.037 239.765 346.3C239.98 345.563 240.33 345.021 240.815 344.676C241.301 344.331 241.954 344.158 242.775 344.158ZM242.775 345.236C242.374 345.236 242.038 345.311 241.767 345.46C241.497 345.6 241.277 345.824 241.109 346.132C240.951 346.44 240.834 346.846 240.759 347.35C240.694 347.845 240.661 348.451 240.661 349.17C240.661 349.879 240.694 350.486 240.759 350.99C240.834 351.494 240.951 351.9 241.109 352.208C241.277 352.516 241.497 352.745 241.767 352.894C242.038 353.034 242.374 353.104 242.775 353.104C243.177 353.104 243.513 353.034 243.783 352.894C244.063 352.745 244.283 352.516 244.441 352.208C244.609 351.9 244.726 351.494 244.791 350.99C244.866 350.486 244.903 349.879 244.903 349.17C244.903 348.451 244.866 347.845 244.791 347.35C244.726 346.846 244.609 346.44 244.441 346.132C244.283 345.824 244.063 345.6 243.783 345.46C243.513 345.311 243.177 345.236 242.775 345.236ZM251.701 344.34V354H250.469V346.342C250.469 346.202 250.474 346.062 250.483 345.922C250.492 345.782 250.511 345.642 250.539 345.502L248.173 346.244L248.005 345.334L250.469 344.34H251.701ZM259.981 344.34C260.177 344.34 260.331 344.377 260.443 344.452C260.555 344.517 260.625 344.615 260.653 344.746C260.69 344.867 260.681 345.017 260.625 345.194L257.615 354H256.383L259.099 346.104C259.146 345.973 259.192 345.852 259.239 345.74C259.286 345.619 259.337 345.502 259.393 345.39H254.577L254.521 344.34H259.981Z" fill="#F8F1DF"/>
<path d="M134.794 344.172C135.41 344.172 135.937 344.223 136.376 344.326C136.824 344.429 137.165 344.629 137.398 344.928C137.641 345.227 137.762 345.67 137.762 346.258C137.762 346.659 137.706 347.037 137.594 347.392C137.491 347.747 137.314 348.115 137.062 348.498C136.81 348.871 136.469 349.296 136.04 349.772L133.268 352.866C133.511 352.847 133.767 352.833 134.038 352.824C134.318 352.815 134.584 352.81 134.836 352.81H138.112V354H131.77V353.23C131.77 353.127 131.784 353.034 131.812 352.95C131.84 352.857 131.887 352.773 131.952 352.698L134.752 349.534C135.368 348.871 135.821 348.283 136.11 347.77C136.399 347.257 136.535 346.771 136.516 346.314C136.507 345.997 136.427 345.768 136.278 345.628C136.138 345.479 135.933 345.381 135.662 345.334C135.401 345.287 135.083 345.264 134.71 345.264C134.411 345.264 134.127 345.269 133.856 345.278C133.585 345.287 133.296 345.311 132.988 345.348C132.689 345.376 132.339 345.423 131.938 345.488L131.854 344.536C132.293 344.433 132.675 344.359 133.002 344.312C133.338 344.256 133.646 344.219 133.926 344.2C134.215 344.181 134.505 344.172 134.794 344.172ZM143.775 344.158C144.606 344.158 145.264 344.331 145.749 344.676C146.235 345.021 146.58 345.563 146.785 346.3C147 347.037 147.107 347.994 147.107 349.17C147.107 350.346 147 351.303 146.785 352.04C146.58 352.777 146.235 353.319 145.749 353.664C145.264 354.009 144.606 354.182 143.775 354.182C142.954 354.182 142.301 354.009 141.815 353.664C141.33 353.319 140.98 352.777 140.765 352.04C140.56 351.303 140.457 350.346 140.457 349.17C140.457 347.994 140.56 347.037 140.765 346.3C140.98 345.563 141.33 345.021 141.815 344.676C142.301 344.331 142.954 344.158 143.775 344.158ZM143.775 345.236C143.374 345.236 143.038 345.311 142.767 345.46C142.497 345.6 142.277 345.824 142.109 346.132C141.951 346.44 141.834 346.846 141.759 347.35C141.694 347.845 141.661 348.451 141.661 349.17C141.661 349.879 141.694 350.486 141.759 350.99C141.834 351.494 141.951 351.9 142.109 352.208C142.277 352.516 142.497 352.745 142.767 352.894C143.038 353.034 143.374 353.104 143.775 353.104C144.177 353.104 144.513 353.034 144.783 352.894C145.063 352.745 145.283 352.516 145.441 352.208C145.609 351.9 145.726 351.494 145.791 350.99C145.866 350.486 145.903 349.879 145.903 349.17C145.903 348.451 145.866 347.845 145.791 347.35C145.726 346.846 145.609 346.44 145.441 346.132C145.283 345.824 145.063 345.6 144.783 345.46C144.513 345.311 144.177 345.236 143.775 345.236ZM152.701 344.34V354H151.469V346.342C151.469 346.202 151.474 346.062 151.483 345.922C151.492 345.782 151.511 345.642 151.539 345.502L149.173 346.244L149.005 345.334L151.469 344.34H152.701ZM159.651 344.172C159.847 344.172 160.122 344.181 160.477 344.2C160.832 344.219 161.205 344.279 161.597 344.382L161.485 345.278C161.28 345.259 161.088 345.245 160.911 345.236C160.743 345.227 160.561 345.222 160.365 345.222C160.169 345.222 159.931 345.222 159.651 345.222C159.175 345.222 158.774 345.273 158.447 345.376C158.12 345.479 157.859 345.675 157.663 345.964C157.467 346.253 157.327 346.678 157.243 347.238C157.159 347.798 157.117 348.535 157.117 349.45C157.117 350.15 157.136 350.738 157.173 351.214C157.21 351.69 157.294 352.068 157.425 352.348C157.565 352.619 157.77 352.815 158.041 352.936C158.321 353.057 158.699 353.118 159.175 353.118C159.726 353.118 160.132 353.034 160.393 352.866C160.664 352.689 160.836 352.432 160.911 352.096C160.995 351.76 161.037 351.354 161.037 350.878C161.037 350.346 160.986 349.921 160.883 349.604C160.79 349.287 160.612 349.058 160.351 348.918C160.09 348.769 159.721 348.694 159.245 348.694C158.937 348.694 158.652 348.731 158.391 348.806C158.13 348.881 157.864 349.016 157.593 349.212C157.322 349.399 157.01 349.665 156.655 350.01L156.599 349.394C156.907 348.955 157.201 348.615 157.481 348.372C157.761 348.12 158.064 347.947 158.391 347.854C158.727 347.751 159.119 347.7 159.567 347.7C160.248 347.7 160.78 347.803 161.163 348.008C161.546 348.213 161.816 348.549 161.975 349.016C162.134 349.473 162.213 350.094 162.213 350.878C162.213 351.373 162.176 351.825 162.101 352.236C162.026 352.637 161.882 352.983 161.667 353.272C161.452 353.561 161.144 353.785 160.743 353.944C160.342 354.093 159.814 354.168 159.161 354.168C158.48 354.168 157.924 354.093 157.495 353.944C157.066 353.785 156.734 353.524 156.501 353.16C156.277 352.796 156.118 352.311 156.025 351.704C155.941 351.088 155.899 350.323 155.899 349.408C155.899 348.269 155.974 347.355 156.123 346.664C156.282 345.973 156.515 345.451 156.823 345.096C157.131 344.732 157.518 344.489 157.985 344.368C158.461 344.237 159.016 344.172 159.651 344.172Z" fill="#F8F1DF"/>
<path d="M35.794 344.172C36.41 344.172 36.9373 344.223 37.376 344.326C37.824 344.429 38.1647 344.629 38.398 344.928C38.6407 345.227 38.762 345.67 38.762 346.258C38.762 346.659 38.706 347.037 38.594 347.392C38.4913 347.747 38.314 348.115 38.062 348.498C37.81 348.871 37.4693 349.296 37.04 349.772L34.268 352.866C34.5107 352.847 34.7673 352.833 35.038 352.824C35.318 352.815 35.584 352.81 35.836 352.81H39.112V354H32.77V353.23C32.77 353.127 32.784 353.034 32.812 352.95C32.84 352.857 32.8867 352.773 32.952 352.698L35.752 349.534C36.368 348.871 36.8207 348.283 37.11 347.77C37.3993 347.257 37.5347 346.771 37.516 346.314C37.5067 345.997 37.4273 345.768 37.278 345.628C37.138 345.479 36.9327 345.381 36.662 345.334C36.4007 345.287 36.0833 345.264 35.71 345.264C35.4113 345.264 35.1267 345.269 34.856 345.278C34.5853 345.287 34.296 345.311 33.988 345.348C33.6893 345.376 33.3393 345.423 32.938 345.488L32.854 344.536C33.2927 344.433 33.6753 344.359 34.002 344.312C34.338 344.256 34.646 344.219 34.926 344.2C35.2153 344.181 35.5047 344.172 35.794 344.172ZM44.7753 344.158C45.606 344.158 46.264 344.331 46.7493 344.676C47.2347 345.021 47.58 345.563 47.7853 346.3C48 347.037 48.1073 347.994 48.1073 349.17C48.1073 350.346 48 351.303 47.7853 352.04C47.58 352.777 47.2347 353.319 46.7493 353.664C46.264 354.009 45.606 354.182 44.7753 354.182C43.954 354.182 43.3007 354.009 42.8153 353.664C42.33 353.319 41.98 352.777 41.7653 352.04C41.56 351.303 41.4573 350.346 41.4573 349.17C41.4573 347.994 41.56 347.037 41.7653 346.3C41.98 345.563 42.33 345.021 42.8153 344.676C43.3007 344.331 43.954 344.158 44.7753 344.158ZM44.7753 345.236C44.374 345.236 44.038 345.311 43.7673 345.46C43.4967 345.6 43.2773 345.824 43.1093 346.132C42.9507 346.44 42.834 346.846 42.7593 347.35C42.694 347.845 42.6613 348.451 42.6613 349.17C42.6613 349.879 42.694 350.486 42.7593 350.99C42.834 351.494 42.9507 351.9 43.1093 352.208C43.2773 352.516 43.4967 352.745 43.7673 352.894C44.038 353.034 44.374 353.104 44.7753 353.104C45.1767 353.104 45.5127 353.034 45.7833 352.894C46.0633 352.745 46.2827 352.516 46.4413 352.208C46.6093 351.9 46.726 351.494 46.7913 350.99C46.866 350.486 46.9033 349.879 46.9033 349.17C46.9033 348.451 46.866 347.845 46.7913 347.35C46.726 346.846 46.6093 346.44 46.4413 346.132C46.2827 345.824 46.0633 345.6 45.7833 345.46C45.5127 345.311 45.1767 345.236 44.7753 345.236ZM53.7009 344.34V354H52.4689V346.342C52.4689 346.202 52.4735 346.062 52.4829 345.922C52.4922 345.782 52.5109 345.642 52.5389 345.502L50.1729 346.244L50.0049 345.334L52.4689 344.34H53.7009ZM62.415 344.34L62.359 345.39H58.299L58.159 348.022L59.195 348.106C59.8297 348.153 60.3663 348.237 60.805 348.358C61.253 348.479 61.617 348.657 61.897 348.89C62.177 349.123 62.3777 349.422 62.499 349.786C62.6297 350.141 62.695 350.579 62.695 351.102C62.695 351.494 62.653 351.872 62.569 352.236C62.4943 352.6 62.345 352.927 62.121 353.216C61.9063 353.505 61.5937 353.739 61.183 353.916C60.7723 354.084 60.2357 354.168 59.573 354.168C59.1903 354.168 58.747 354.14 58.243 354.084C57.739 354.028 57.2257 353.939 56.703 353.818L56.843 352.824C57.2817 352.899 57.7203 352.959 58.159 353.006C58.5977 353.053 58.9757 353.076 59.293 353.076C59.909 353.076 60.371 353.001 60.679 352.852C60.987 352.693 61.197 352.469 61.309 352.18C61.421 351.881 61.4817 351.522 61.491 351.102C61.5003 350.654 61.4443 350.304 61.323 350.052C61.211 349.791 61.0243 349.599 60.763 349.478C60.511 349.347 60.1703 349.259 59.741 349.212C59.321 349.156 58.803 349.109 58.187 349.072L57.543 349.03C57.403 349.011 57.2863 348.955 57.193 348.862C57.109 348.759 57.0717 348.633 57.081 348.484L57.305 344.34H62.415Z" fill="#F8F1DF"/>
<path opacity="0.2" d="M0 300.5L121.189 280L158.783 238L287.886 254L351.696 202L425.399 238L582.203 167.5L605.946 149.5L653.927 167.5L759.287 77.5L872.068 97.5L929.942 29L989.3 41L1017 1V402H0V300.5Z" fill="url(#paint0_linear_6001_3123)"/>
<path d="M0 301L121.189 280.466L158.783 238.396L287.886 254.422L351.696 202.336L425.399 238.396L582.203 167.778L605.946 149.748L653.927 167.778L759.287 77.6277L872.068 97.6611L929.942 29.0467L989.3 41.0668L1017 1" stroke="#F8F1DF" stroke-width="2"/>
<defs>
<linearGradient id="paint0_linear_6001_3123" x1="508.5" y1="1" x2="508.5" y2="402" gradientUnits="userSpaceOnUse">
<stop stop-color="#F8F1DF"/>
<stop offset="1" stop-color="#F8F1DF" stop-opacity="0"/>
</linearGradient>
</defs>
</svg>
