<svg width="40" height="40" viewBox="0 0 40 40" fill="none" xmlns="http://www.w3.org/2000/svg">
<path fill-rule="evenodd" clip-rule="evenodd" d="M19.1301 8.88206C19.2114 8.80058 19.3079 8.73593 19.4143 8.69182C19.5206 8.64771 19.6345 8.625 19.7496 8.625C19.8647 8.625 19.9787 8.64771 20.085 8.69182C20.1913 8.73593 20.2878 8.80058 20.3691 8.88206L30.8691 19.3821C30.9506 19.4633 31.0152 19.5599 31.0594 19.6662C31.1035 19.7725 31.1262 19.8865 31.1262 20.0016C31.1262 20.1167 31.1035 20.2306 31.0594 20.3369C31.0152 20.4432 30.9506 20.5398 30.8691 20.6211L20.3691 31.1211C20.2048 31.2854 19.982 31.3777 19.7496 31.3777C19.5173 31.3777 19.2944 31.2854 19.1301 31.1211C18.9658 30.9568 18.8735 30.7339 18.8735 30.5016C18.8735 30.2692 18.9658 30.0464 19.1301 29.8821L29.0124 20.0016L19.1301 10.1211C19.0486 10.0398 18.984 9.94323 18.9399 9.83692C18.8958 9.73062 18.873 9.61666 18.873 9.50156C18.873 9.38647 18.8958 9.27251 18.9399 9.16621C18.984 9.0599 19.0486 8.96334 19.1301 8.88206Z" fill="#03060A"/>
<path fill-rule="evenodd" clip-rule="evenodd" d="M9.13011 8.88206C9.21139 8.80058 9.30795 8.73593 9.41425 8.69182C9.52056 8.64771 9.63452 8.625 9.74961 8.625C9.8647 8.625 9.97867 8.64771 10.085 8.69182C10.1913 8.73593 10.2878 8.80058 10.3691 8.88206L20.8691 19.3821C20.9506 19.4633 21.0152 19.5599 21.0594 19.6662C21.1035 19.7725 21.1262 19.8865 21.1262 20.0016C21.1262 20.1167 21.1035 20.2306 21.0594 20.3369C21.0152 20.4432 20.9506 20.5398 20.8691 20.6211L10.3691 31.1211C10.2048 31.2854 9.98197 31.3777 9.74961 31.3777C9.51725 31.3777 9.29441 31.2854 9.13011 31.1211C8.96581 30.9568 8.8735 30.7339 8.8735 30.5016C8.8735 30.2692 8.96581 30.0464 9.13011 29.8821L19.0124 20.0016L9.13011 10.1211C9.04862 10.0398 8.98397 9.94323 8.93986 9.83692C8.89575 9.73062 8.87305 9.61666 8.87305 9.50156C8.87305 9.38647 8.89575 9.27251 8.93986 9.16621C8.98397 9.0599 9.04862 8.96334 9.13011 8.88206Z" fill="#03060A"/>
</svg>
