<svg width="40" height="40" viewBox="0 0 40 40" fill="none" xmlns="http://www.w3.org/2000/svg">
<path fill-rule="evenodd" clip-rule="evenodd" d="M15.1301 8.88206C15.2114 8.80058 15.3079 8.73593 15.4143 8.69182C15.5206 8.64771 15.6345 8.625 15.7496 8.625C15.8647 8.625 15.9787 8.64771 16.085 8.69182C16.1913 8.73593 16.2878 8.80058 16.3691 8.88206L26.8691 19.3821C26.9506 19.4633 27.0152 19.5599 27.0594 19.6662C27.1035 19.7725 27.1262 19.8865 27.1262 20.0016C27.1262 20.1167 27.1035 20.2306 27.0594 20.3369C27.0152 20.4432 26.9506 20.5398 26.8691 20.6211L16.3691 31.1211C16.2048 31.2854 15.982 31.3777 15.7496 31.3777C15.5173 31.3777 15.2944 31.2854 15.1301 31.1211C14.9658 30.9568 14.8735 30.7339 14.8735 30.5016C14.8735 30.2692 14.9658 30.0464 15.1301 29.8821L25.0124 20.0016L15.1301 10.1211C15.0486 10.0398 14.984 9.94323 14.9399 9.83692C14.8958 9.73062 14.873 9.61666 14.873 9.50156C14.873 9.38647 14.8958 9.27251 14.9399 9.16621C14.984 9.0599 15.0486 8.96334 15.1301 8.88206Z" fill="#03060A"/>
</svg>
