<svg width="40" height="40" viewBox="0 0 40 40" fill="none" xmlns="http://www.w3.org/2000/svg">
<path fill-rule="evenodd" clip-rule="evenodd" d="M20.8699 8.88206C20.7886 8.80058 20.6921 8.73593 20.5857 8.69182C20.4794 8.64771 20.3655 8.625 20.2504 8.625C20.1353 8.625 20.0213 8.64771 19.915 8.69182C19.8087 8.73593 19.7122 8.80058 19.6309 8.88206L9.13089 19.3821C9.0494 19.4633 8.98475 19.5599 8.94064 19.6662C8.89653 19.7725 8.87383 19.8865 8.87383 20.0016C8.87383 20.1167 8.89653 20.2306 8.94064 20.3369C8.98475 20.4432 9.0494 20.5398 9.13089 20.6211L19.6309 31.1211C19.7952 31.2854 20.018 31.3777 20.2504 31.3777C20.4827 31.3777 20.7056 31.2854 20.8699 31.1211C21.0342 30.9568 21.1265 30.7339 21.1265 30.5016C21.1265 30.2692 21.0342 30.0464 20.8699 29.8821L10.9876 20.0016L20.8699 10.1211C20.9514 10.0398 21.016 9.94323 21.0601 9.83692C21.1042 9.73062 21.127 9.61666 21.127 9.50156C21.127 9.38647 21.1042 9.27251 21.0601 9.16621C21.016 9.0599 20.9514 8.96334 20.8699 8.88206Z" fill="#03060A"/>
<path fill-rule="evenodd" clip-rule="evenodd" d="M30.8699 8.88206C30.7886 8.80058 30.6921 8.73593 30.5857 8.69182C30.4794 8.64771 30.3655 8.625 30.2504 8.625C30.1353 8.625 30.0213 8.64771 29.915 8.69182C29.8087 8.73593 29.7122 8.80058 29.6309 8.88206L19.1309 19.3821C19.0494 19.4633 18.9848 19.5599 18.9406 19.6662C18.8965 19.7725 18.8738 19.8865 18.8738 20.0016C18.8738 20.1167 18.8965 20.2306 18.9406 20.3369C18.9848 20.4432 19.0494 20.5398 19.1309 20.6211L29.6309 31.1211C29.7952 31.2854 30.018 31.3777 30.2504 31.3777C30.4827 31.3777 30.7056 31.2854 30.8699 31.1211C31.0342 30.9568 31.1265 30.7339 31.1265 30.5016C31.1265 30.2692 31.0342 30.0464 30.8699 29.8821L20.9876 20.0016L30.8699 10.1211C30.9514 10.0398 31.016 9.94323 31.0601 9.83692C31.1042 9.73062 31.127 9.61666 31.127 9.50156C31.127 9.38647 31.1042 9.27251 31.0601 9.16621C31.016 9.0599 30.9514 8.96334 30.8699 8.88206Z" fill="#03060A"/>
</svg>
