<svg width="8" height="13" viewBox="0 0 8 13" fill="none" xmlns="http://www.w3.org/2000/svg">
<path fill-rule="evenodd" clip-rule="evenodd" d="M7.35408 0.146894C7.30764 0.100331 7.25246 0.0633878 7.19172 0.0381813C7.13097 0.0129749 7.06585 0 7.00008 0C6.93432 0 6.86919 0.0129749 6.80845 0.0381813C6.7477 0.0633878 6.69253 0.100331 6.64608 0.146894L0.646083 6.14689C0.59952 6.19334 0.562577 6.24851 0.537371 6.30926C0.512164 6.37001 0.499189 6.43513 0.499189 6.50089C0.499189 6.56666 0.512164 6.63178 0.537371 6.69253C0.562577 6.75327 0.59952 6.80845 0.646083 6.85489L6.64608 12.8549C6.73997 12.9488 6.86731 13.0015 7.00008 13.0015C7.13286 13.0015 7.2602 12.9488 7.35408 12.8549C7.44797 12.761 7.50071 12.6337 7.50071 12.5009C7.50071 12.3681 7.44797 12.2408 7.35408 12.1469L1.70708 6.50089L7.35408 0.854894C7.40065 0.808448 7.43759 0.753273 7.4628 0.692527C7.488 0.631782 7.50098 0.566661 7.50098 0.500894C7.50098 0.435127 7.488 0.370005 7.4628 0.30926C7.43759 0.248515 7.40065 0.19334 7.35408 0.146894Z" fill="#03060A"/>
</svg>
