<svg width="40" height="40" viewBox="0 0 40 40" fill="none" xmlns="http://www.w3.org/2000/svg">
<path fill-rule="evenodd" clip-rule="evenodd" d="M24.8699 8.88206C24.7886 8.80058 24.6921 8.73593 24.5857 8.69182C24.4794 8.64771 24.3655 8.625 24.2504 8.625C24.1353 8.625 24.0213 8.64771 23.915 8.69182C23.8087 8.73593 23.7122 8.80058 23.6309 8.88206L13.1309 19.3821C13.0494 19.4633 12.9848 19.5599 12.9406 19.6662C12.8965 19.7725 12.8738 19.8865 12.8738 20.0016C12.8738 20.1167 12.8965 20.2306 12.9406 20.3369C12.9848 20.4432 13.0494 20.5398 13.1309 20.6211L23.6309 31.1211C23.7952 31.2854 24.018 31.3777 24.2504 31.3777C24.4827 31.3777 24.7056 31.2854 24.8699 31.1211C25.0342 30.9568 25.1265 30.7339 25.1265 30.5016C25.1265 30.2692 25.0342 30.0464 24.8699 29.8821L14.9876 20.0016L24.8699 10.1211C24.9514 10.0398 25.016 9.94323 25.0601 9.83692C25.1042 9.73062 25.127 9.61666 25.127 9.50156C25.127 9.38647 25.1042 9.27251 25.0601 9.16621C25.016 9.0599 24.9514 8.96334 24.8699 8.88206Z" fill="#03060A"/>
</svg>
