<svg width="100" height="100" viewBox="0 0 100 100" fill="none" xmlns="http://www.w3.org/2000/svg">
<path d="M53.125 40.625C53.125 39.7962 52.7958 39.0013 52.2097 38.4153C51.6237 37.8292 50.8288 37.5 50 37.5C49.1712 37.5 48.3763 37.8292 47.7903 38.4153C47.2042 39.0013 46.875 39.7962 46.875 40.625V64.3313L39.7125 57.1625C39.4219 56.872 39.077 56.6415 38.6974 56.4842C38.3178 56.327 37.9109 56.2461 37.5 56.2461C37.0891 56.2461 36.6822 56.327 36.3026 56.4842C35.923 56.6415 35.578 56.872 35.2875 57.1625C34.9969 57.453 34.7665 57.798 34.6092 58.1776C34.452 58.5572 34.371 58.9641 34.371 59.375C34.371 59.7859 34.452 60.1928 34.6092 60.5724C34.7665 60.952 34.9969 61.297 35.2875 61.5875L47.7875 74.0875C48.0778 74.3785 48.4226 74.6094 48.8023 74.767C49.1819 74.9245 49.589 75.0056 50 75.0056C50.411 75.0056 50.818 74.9245 51.1977 74.767C51.5774 74.6094 51.9222 74.3785 52.2125 74.0875L64.7125 61.5875C65.003 61.297 65.2335 60.952 65.3908 60.5724C65.548 60.1928 65.6289 59.7859 65.6289 59.375C65.6289 58.9641 65.548 58.5572 65.3908 58.1776C65.2335 57.798 65.003 57.453 64.7125 57.1625C64.4219 56.872 64.077 56.6415 63.6974 56.4842C63.3178 56.327 62.9109 56.2461 62.5 56.2461C62.0891 56.2461 61.6822 56.327 61.3026 56.4842C60.923 56.6415 60.578 56.872 60.2875 57.1625L53.125 64.3313V40.625Z" fill="url(#paint0_linear_1851_34091)"/>
<path d="M87.5 87.5V28.125L59.375 0H25C21.6848 0 18.5054 1.31696 16.1612 3.66117C13.817 6.00537 12.5 9.18479 12.5 12.5V87.5C12.5 90.8152 13.817 93.9946 16.1612 96.3388C18.5054 98.683 21.6848 100 25 100H75C78.3152 100 81.4946 98.683 83.8388 96.3388C86.183 93.9946 87.5 90.8152 87.5 87.5ZM59.375 18.75C59.375 21.2364 60.3627 23.621 62.1209 25.3791C63.879 27.1373 66.2636 28.125 68.75 28.125H81.25V87.5C81.25 89.1576 80.5915 90.7473 79.4194 91.9194C78.2473 93.0915 76.6576 93.75 75 93.75H25C23.3424 93.75 21.7527 93.0915 20.5806 91.9194C19.4085 90.7473 18.75 89.1576 18.75 87.5V12.5C18.75 10.8424 19.4085 9.25268 20.5806 8.08058C21.7527 6.90848 23.3424 6.25 25 6.25H59.375V18.75Z" fill="url(#paint1_linear_1851_34091)"/>
<defs>
<linearGradient id="paint0_linear_1851_34091" x1="46.7288" y1="13.3188" x2="87.4056" y2="39.616" gradientUnits="userSpaceOnUse">
<stop stop-color="#C7CBD7"/>
<stop offset="1" stop-color="#484D5C"/>
</linearGradient>
<linearGradient id="paint1_linear_1851_34091" x1="42.1512" y1="-64.4737" x2="145.546" y2="-4.32013" gradientUnits="userSpaceOnUse">
<stop stop-color="#C7CBD7"/>
<stop offset="1" stop-color="#484D5C"/>
</linearGradient>
</defs>
</svg>
