<svg width="72" height="64" viewBox="0 0 72 64" fill="none" xmlns="http://www.w3.org/2000/svg">
<rect width="45.1522" height="45.1522" rx="10" transform="matrix(0.705526 -0.708684 0.705526 0.708684 8.28812 32.002)" fill="url(#paint0_linear_1347_76889)"/>
<g filter="url(#filter0_b_1347_76889)">
<rect width="44.938" height="44.938" rx="10" transform="matrix(0.705526 -0.708684 0.705526 0.708684 0 31.8594)" fill="url(#paint1_linear_1347_76889)" fill-opacity="0.6"/>
<rect x="1.41105" width="42.938" height="42.938" rx="9" transform="matrix(0.705526 -0.708684 0.705526 0.708684 0.415518 32.8594)" stroke="url(#paint2_linear_1347_76889)" stroke-width="2"/>
</g>
<rect width="19.3334" height="19.3334" rx="5" transform="matrix(0.705526 -0.708684 0.705526 0.708684 4.14374 13.7012)" fill="url(#paint3_linear_1347_76889)"/>
<defs>
<filter id="filter0_b_1347_76889" x="-25.8671" y="-25.8359" width="115.144" height="115.391" filterUnits="userSpaceOnUse" color-interpolation-filters="sRGB">
<feFlood flood-opacity="0" result="BackgroundImageFix"/>
<feGaussianBlur in="BackgroundImageFix" stdDeviation="15"/>
<feComposite in2="SourceAlpha" operator="in" result="effect1_backgroundBlur_1347_76889"/>
<feBlend mode="normal" in="SourceGraphic" in2="effect1_backgroundBlur_1347_76889" result="shape"/>
</filter>
<linearGradient id="paint0_linear_1347_76889" x1="17.8508" y1="-29.1113" x2="69.867" y2="11.2382" gradientUnits="userSpaceOnUse">
<stop stop-color="#FFF7AD"/>
<stop offset="1" stop-color="#FFB800"/>
</linearGradient>
<linearGradient id="paint1_linear_1347_76889" x1="56.9756" y1="7.14298" x2="51.2628" y2="47.2093" gradientUnits="userSpaceOnUse">
<stop stop-color="white"/>
<stop offset="1" stop-color="#FFF9EA"/>
</linearGradient>
<linearGradient id="paint2_linear_1347_76889" x1="14.9723" y1="-4.49262e-05" x2="42.1829" y2="2.16987" gradientUnits="userSpaceOnUse">
<stop stop-color="white"/>
<stop offset="1" stop-color="white" stop-opacity="0"/>
</linearGradient>
<linearGradient id="paint3_linear_1347_76889" x1="7.64345" y1="-12.465" x2="29.9159" y2="4.81203" gradientUnits="userSpaceOnUse">
<stop stop-color="#FFF7AD"/>
<stop offset="1" stop-color="#FFB800"/>
</linearGradient>
</defs>
</svg>
