<svg width="115" height="28" viewBox="0 0 115 28" fill="none" xmlns="http://www.w3.org/2000/svg">
<g clip-path="url(#clip0_2502_46514)">
<path d="M18.4359 8.22183C17.286 8.22183 16.6255 7.79966 16.473 6.96829V6.94005H14.454V6.97864C14.7215 8.72637 16.203 9.72761 18.4814 9.72761C21.1397 9.72761 22.9233 8.00301 22.9233 5.43419V5.30559C22.9233 2.73164 21.1316 0.947906 18.5643 0.947906C17.5039 0.911026 16.4696 1.26864 15.6761 1.94657C14.8444 2.69814 14.4219 3.79468 14.4219 5.20779V5.79978H20.7973C20.7198 7.35961 19.8827 8.21678 18.4359 8.21678M16.4917 4.44331C16.596 3.10485 17.294 2.42793 18.5696 2.42793C19.7356 2.42793 20.5513 3.18207 20.7599 4.44331H16.4917Z" fill="#F8F1DF"/>
<path d="M23.2596 9.8483C22.1993 9.81142 21.1649 10.1691 20.3714 10.847C19.5397 11.5986 19.1172 12.6952 19.1172 14.1083V14.7003H25.4873C25.4098 16.2601 24.5727 17.1172 23.1259 17.1172C21.976 17.1172 21.3154 16.6951 21.1629 15.8637V15.8355H19.1439V15.874C19.43 17.6243 20.8982 18.6359 23.1767 18.6359C25.8349 18.6359 27.6187 16.9113 27.6187 14.3424V14.2138C27.6187 11.6399 25.8269 9.85616 23.2596 9.85616M21.1844 13.3413C21.2887 12.0028 21.9866 11.3258 23.2596 11.3258C24.4256 11.3258 25.2412 12.0801 25.4498 13.3413H21.1844Z" fill="#F8F1DF"/>
<path d="M18.5682 18.8605C17.5079 18.8236 16.4735 19.1813 15.68 19.8592C14.8483 20.6108 14.4258 21.7073 14.4258 23.1204V23.7125H20.7959C20.7184 25.2723 19.8813 26.1294 18.4345 26.1294C17.2846 26.1294 16.624 25.7072 16.4716 24.8758V24.8476H14.4525V24.8862C14.7201 26.6339 16.2015 27.6352 18.48 27.6352C21.1382 27.6352 22.9219 25.9107 22.9219 23.3418V23.2131C22.9219 20.6392 21.1302 18.8555 18.5629 18.8555M16.4903 22.3509C16.5946 21.0124 17.2926 20.3329 18.5682 20.3329C19.7342 20.3329 20.5499 21.0871 20.7585 22.3509H16.4903Z" fill="#F8F1DF"/>
<path d="M9.50182 9.72646C11.7803 9.72646 13.2458 8.72264 13.5293 6.97749V6.93899H11.5209V6.96722C11.3684 7.7986 10.7186 8.22069 9.558 8.22069C8.11119 8.22069 7.27413 7.3636 7.1966 5.80377H13.564V5.2117C13.564 3.79859 13.1415 2.70215 12.3098 1.95056C11.5163 1.27265 10.4819 0.914932 9.42155 0.951812C6.85422 0.951812 5.0625 2.75362 5.0625 5.30958V5.43818C5.0625 8.01215 6.84894 9.73151 9.50715 9.73151M7.23402 4.44465C7.43729 3.17825 8.25289 2.41892 9.41888 2.41892C10.6945 2.41892 11.3925 3.09841 11.4968 4.4343L7.23402 4.44465Z" fill="#F8F1DF"/>
<path d="M18.2554 14.1102C18.2554 12.6971 17.8328 11.6006 17.0012 10.849C16.2076 10.1711 15.1733 9.81337 14.113 9.85025C11.5457 9.85025 9.75391 11.6521 9.75391 14.208V14.3366C9.75391 16.9106 11.5403 18.63 14.1986 18.63C16.477 18.63 17.9425 17.6261 18.2259 15.881V15.8425H16.2123V15.8707C16.0598 16.7021 15.41 17.1242 14.2493 17.1242C12.8025 17.1242 11.9655 16.2671 11.8879 14.7073H18.2554V14.1102ZM11.9201 13.338C12.1287 12.0742 12.9443 11.3226 14.1103 11.3226C15.3859 11.3226 16.0839 12.0021 16.1855 13.338H11.9201Z" fill="#F8F1DF"/>
<path d="M9.41764 18.8613C6.85034 18.8613 5.05859 20.6631 5.05859 23.2191V23.3477C5.05859 25.9216 6.84503 27.641 9.50325 27.641C11.7817 27.641 13.2472 26.6372 13.5307 24.8921V24.8536H11.5197V24.8818C11.3671 25.7132 10.7174 26.1353 9.55676 26.1353C8.10995 26.1353 7.27289 25.2782 7.19536 23.7183H13.5628V23.1263C13.5628 21.7132 13.1403 20.6167 12.3086 19.8651C11.5151 19.1872 10.4806 18.8295 9.42031 18.8664M7.22745 22.3515C7.43607 21.0877 8.25165 20.3336 9.41764 20.3336C10.6933 20.3336 11.3913 21.0131 11.4956 22.3515H7.22745Z" fill="#F8F1DF"/>
<path d="M8.8378 15.8759V15.8374H6.8294V15.8657C6.67688 16.6971 6.02715 17.1192 4.86651 17.1192C3.41973 17.1192 2.58267 16.262 2.50511 14.7022H8.87256V14.1102C8.87256 12.6971 8.45006 11.6006 7.61834 10.849C6.82481 10.1711 5.79048 9.81338 4.73015 9.85025C2.16285 9.85025 0.371097 11.6521 0.371097 14.208V14.3366C0.368419 16.9003 2.15475 18.6352 4.813 18.6352C7.09147 18.6352 8.557 17.6313 8.84047 15.8861M2.32598 13.3405C2.5346 12.0767 3.35019 11.3251 4.51618 11.3251C5.79181 11.3251 6.48981 12.0046 6.59409 13.3405H2.32598Z" fill="#F8F1DF"/>
<path d="M47.9388 8.4394C46.6017 7.23737 44.7724 6.60156 42.633 6.60156C37.9209 6.60156 34.6289 9.88847 34.6289 14.5962V14.8304C34.6289 19.5433 37.9049 22.7093 42.7855 22.7093C46.9707 22.7093 49.6663 20.8638 50.1825 17.649L50.2051 17.5125H46.4103L46.3906 17.6101C46.123 19.0927 44.9358 19.8469 42.8739 19.8469C40.2959 19.8469 38.7956 18.3257 38.6378 15.5639H50.2415V14.4236C50.2415 11.8316 49.4685 9.81905 47.9388 8.4394ZM38.7181 12.9719C39.1139 10.7094 40.5338 9.4172 42.6358 9.4172C44.8983 9.4172 46.1499 10.6141 46.3532 12.9719H38.7181Z" fill="#F8F1DF"/>
<path d="M58.7439 12.9333C56.2862 12.5343 55.5749 12.1224 55.5749 11.0954C55.5749 10.0684 56.4922 9.40432 57.9684 9.40432C59.5729 9.40432 60.3752 9.98602 60.6667 11.3528L60.6892 11.448H64.3209L64.304 11.3167C63.9456 8.18933 61.8143 6.60119 57.9686 6.60119C56.4923 6.57089 55.0419 6.97695 53.8128 7.76464C53.2141 8.15487 52.726 8.68263 52.3926 9.30015C52.0592 9.91766 51.891 10.6055 51.9033 11.3013C51.9033 14.1507 53.4304 15.3965 57.736 16.058C60.2257 16.4621 61.028 16.946 61.028 18.0425C61.028 19.296 60.1616 19.8777 58.3029 19.8777C56.3721 19.8777 55.4655 19.1776 55.273 17.5328V17.4273H51.5664V17.5508C51.7189 20.83 54.1845 22.6987 58.327 22.6987C62.4694 22.6987 64.7853 20.8789 64.7853 17.7078C64.7853 14.4569 62.5684 13.4916 58.7388 12.9227" fill="#F8F1DF"/>
<path d="M73.309 12.9333C70.8514 12.5343 70.14 12.1224 70.14 11.0954C70.14 10.0684 71.0573 9.40432 72.5335 9.40432C74.1381 9.40432 74.9404 9.98602 75.2318 11.3528L75.2544 11.448H78.8861L78.8691 11.3167C78.5108 8.18933 76.3794 6.60119 72.5338 6.60119C71.0575 6.57088 69.607 6.97695 68.3779 7.76464C67.7793 8.15487 67.2912 8.68263 66.9578 9.30015C66.6244 9.91767 66.4562 10.6055 66.4685 11.3013C66.4685 14.1507 67.9956 15.3965 72.3011 16.058C74.7909 16.4621 75.5932 16.946 75.5932 18.0425C75.5932 19.296 74.7268 19.8777 72.8681 19.8777C70.9373 19.8777 70.0307 19.1776 69.8381 17.5328V17.4273H66.1289V17.5508C66.2814 20.83 68.747 22.6987 72.8895 22.6987C77.0319 22.6987 79.3478 20.8789 79.3478 17.7078C79.3478 14.4569 77.1309 13.4916 73.3013 12.9227" fill="#F8F1DF"/>
<path d="M83.3794 0.359986C83.0797 0.353131 82.7816 0.404017 82.5026 0.509537C82.2235 0.615057 81.9691 0.773113 81.7544 0.974503C81.5397 1.17589 81.3689 1.4165 81.2521 1.68226C81.1353 1.94802 81.0748 2.23354 81.0742 2.5221C81.114 3.0838 81.3739 3.61001 81.8013 3.99434C82.2287 4.37867 82.7918 4.59246 83.3768 4.59246C83.9617 4.59246 84.5248 4.37867 84.9522 3.99434C85.3797 3.61001 85.6396 3.0838 85.6793 2.5221C85.6787 2.23398 85.6183 1.94892 85.5018 1.6835C85.3854 1.41809 85.2151 1.17765 85.0009 0.976325C84.7868 0.775005 84.5331 0.616858 84.2547 0.511028C83.9763 0.405197 83.6787 0.353823 83.3794 0.359986Z" fill="#F8F1DF"/>
<path d="M81.5905 22.4191H85.257H85.38V22.3007V7.04223V6.92383H85.257H81.5905H81.4648V7.04223V22.3007V22.4191H81.5905Z" fill="#F8F1DF"/>
<path d="M94.8894 19.5573C93.7635 19.5573 93.1939 18.9395 93.1939 17.722V9.81737H96.6704V6.92422H93.1939V3.57812H89.2814V6.92422H87.2383V9.81737H89.2814V18.0541C89.2814 21.0476 91.025 22.6872 94.194 22.6872C95.0536 22.7043 95.9094 22.5736 96.7212 22.3011L96.8013 22.2729V19.2073L96.6302 19.2744C96.0761 19.4821 95.4837 19.5783 94.8894 19.5573Z" fill="#F8F1DF"/>
<path d="M105.318 27.567L113.956 7.08856L114.025 6.92383H113.841H110.265H110.18L110.15 7.00105L106.382 16.5505L102.288 6.99847L102.256 6.92383H102.173H98.2016H98.0117L98.0893 7.09114L104.342 20.7563L101.483 27.4769L101.413 27.6417H101.595H105.203H105.286L105.318 27.567Z" fill="#F8F1DF"/>
</g>
<defs>
<clipPath id="clip0_2502_46514">
<rect width="114.4" height="28" fill="white"/>
</clipPath>
</defs>
</svg>
