<svg width="145" height="56" viewBox="0 0 145 56" fill="none" xmlns="http://www.w3.org/2000/svg">
<path fill-rule="evenodd" clip-rule="evenodd" d="M74.4896 21.5848C74.4024 21.5079 74.2989 21.4518 74.1869 21.4207C74.0085 21.3658 73.8245 21.3311 73.6383 21.3173C73.4103 21.2959 73.1182 21.2852 72.7656 21.2852C72.4129 21.2852 72.1351 21.2852 71.9071 21.3173C71.7222 21.3315 71.5394 21.3662 71.3621 21.4207C71.2524 21.4497 71.1519 21.5062 71.07 21.5848C71.058 21.603 71.0473 21.6221 71.038 21.6419L70.0156 26.4363C70.0152 26.4921 70.0313 26.5467 70.0619 26.5933C70.0999 26.6419 70.1487 26.681 70.2044 26.7074C70.2852 26.7416 70.3703 26.7644 70.4573 26.7752C70.5873 26.791 70.7182 26.7981 70.8492 26.7966C70.9777 26.7983 71.1063 26.7911 71.2339 26.7752C71.3176 26.765 71.3993 26.7422 71.4761 26.7074C71.5485 26.6561 71.6132 26.5949 71.6685 26.5255L74.5573 21.7739C74.5581 21.7048 74.5341 21.6377 74.4896 21.5848Z" fill="#F8F1DF"/>
<path fill-rule="evenodd" clip-rule="evenodd" d="M118.338 21.5848C118.253 21.5066 118.15 21.4503 118.038 21.4207C117.859 21.3659 117.674 21.3313 117.486 21.3173C117.258 21.2959 116.966 21.2852 116.614 21.2852C116.261 21.2852 115.983 21.2852 115.759 21.3173C115.574 21.3308 115.391 21.3655 115.214 21.4207C115.104 21.4497 115.003 21.5062 114.922 21.5848C114.922 21.5848 114.9 21.624 114.886 21.6419L113.867 26.4363C113.868 26.4924 113.885 26.5471 113.917 26.5933C113.954 26.6419 114.001 26.681 114.056 26.7074C114.138 26.7415 114.224 26.7643 114.312 26.7752C114.442 26.7912 114.573 26.7983 114.704 26.7966C114.833 26.7982 114.961 26.791 115.089 26.7752C115.173 26.7645 115.254 26.7417 115.331 26.7074C115.404 26.6561 115.468 26.5949 115.524 26.5255L118.412 21.7739C118.413 21.7035 118.386 21.6357 118.338 21.5848Z" fill="#F8F1DF"/>
<path fill-rule="evenodd" clip-rule="evenodd" d="M64.1173 33.3649C63.8982 34.6099 63.351 35.7738 62.5321 36.736C62.2145 37.1294 61.8086 37.442 61.3474 37.6484C60.8862 37.8549 60.3829 37.9492 59.8784 37.9239C58.7029 37.8668 57.9477 37.3032 57.6128 36.2259C57.3458 35.1796 57.3458 34.0829 57.6128 33.0367C57.8109 31.9374 58.2662 30.9007 58.9415 30.0117C59.2563 29.5666 59.6785 29.2086 60.1687 28.971C60.6588 28.7334 61.2011 28.6238 61.7449 28.6525C62.2347 28.6473 62.7139 28.795 63.1161 29.075C63.5182 29.3549 63.8233 29.7534 63.989 30.215C64.33 31.232 64.3684 32.3264 64.0995 33.3649H64.1173ZM68.6234 27.593C67.4194 25.7476 65.4269 24.7559 62.6461 24.6179C60.2155 24.4335 57.8033 25.1617 55.8793 26.6605C53.9553 28.1593 52.6571 30.3216 52.2376 32.7264C51.1262 38.0559 53.8584 41.6945 59.0341 41.9513C61.4146 42.1157 63.7741 41.4125 65.6775 39.9715C67.6758 38.4518 68.9582 36.3436 69.521 33.6289C70.0126 31.2697 69.7134 29.2578 68.6234 27.593Z" fill="#F8F1DF"/>
<path fill-rule="evenodd" clip-rule="evenodd" d="M122.951 25.4514C122.825 25.3678 122.683 25.3119 122.534 25.2873C122.266 25.2316 121.995 25.197 121.722 25.1838L121.234 25.166H119.563L119.075 25.1838C118.787 25.1979 118.5 25.2325 118.217 25.2873C118.082 25.3146 117.951 25.3553 117.825 25.4086L110.836 33.8666L112.261 25.6619C112.269 25.6247 112.267 25.5859 112.254 25.55C112.242 25.514 112.219 25.4823 112.19 25.4585C112.069 25.3754 111.932 25.3194 111.787 25.2944C111.53 25.2386 111.269 25.204 111.007 25.191L110.54 25.1731H108.941L108.471 25.191C108.193 25.2052 107.917 25.2398 107.644 25.2944C107.48 25.3215 107.323 25.377 107.178 25.4585C107.15 25.4783 107.125 25.501 107.103 25.5263L104.246 41.2402C104.261 41.2713 104.281 41.2992 104.307 41.3222C104.432 41.4058 104.574 41.4617 104.723 41.4863C104.991 41.5423 105.263 41.5769 105.536 41.5897C105.892 41.6111 106.319 41.6218 106.857 41.6218C107.395 41.6218 107.819 41.6218 108.172 41.5897C108.459 41.5755 108.744 41.5409 109.026 41.4863C109.185 41.4594 109.339 41.4089 109.482 41.3365L109.689 41.0903L116.429 33.014L115.004 41.2402C115.016 41.2718 115.035 41.3 115.061 41.3222C115.18 41.4055 115.316 41.4615 115.46 41.4863C115.718 41.5421 115.98 41.5767 116.243 41.5897C116.571 41.6111 116.995 41.6218 117.515 41.6218C118.021 41.6218 118.441 41.6218 118.78 41.5897C119.057 41.5753 119.333 41.5407 119.606 41.4863C119.769 41.4578 119.927 41.4023 120.073 41.3222C120.114 41.2968 120.15 41.2641 120.179 41.2259L123.029 25.562C123.015 25.5179 122.988 25.4793 122.951 25.4514Z" fill="#F8F1DF"/>
<path fill-rule="evenodd" clip-rule="evenodd" d="M81.0916 41.087L81.1664 41.2725C81.1855 41.2919 81.2071 41.3087 81.2306 41.3225C81.383 41.4068 81.5496 41.4624 81.7221 41.4866C82.0412 41.5426 82.3638 41.5771 82.6875 41.59C83.09 41.6114 83.6136 41.6221 84.2512 41.6221C84.8889 41.6221 85.3947 41.6221 85.8114 41.59C86.1516 41.5757 86.4906 41.5411 86.8267 41.4866C87.0258 41.4593 87.22 41.4041 87.4037 41.3225C87.5213 41.2582 87.6174 41.1833 87.6352 41.087L83.6101 32.2759L89.8117 25.6193C89.8233 25.5904 89.8268 25.5588 89.8218 25.528C89.8167 25.4971 89.8034 25.4683 89.7832 25.4445C89.6652 25.3587 89.5284 25.3024 89.3842 25.2804C89.1071 25.225 88.826 25.1917 88.5436 25.1805C88.1874 25.1591 87.7243 25.1484 87.1615 25.1484C86.5987 25.1484 86.0929 25.1484 85.7366 25.1805C85.419 25.1942 85.1026 25.2275 84.7891 25.2804C84.5932 25.3117 84.4018 25.3669 84.2192 25.4445C84.1864 25.463 84.1554 25.4845 84.1266 25.5087L78.5875 31.434L79.6169 25.6693C79.6056 25.6224 79.585 25.5784 79.5562 25.5397C79.5274 25.5011 79.4911 25.4687 79.4495 25.4445C79.2961 25.3654 79.1315 25.31 78.9615 25.2804C78.6792 25.2272 78.3935 25.1939 78.1066 25.1805C77.7504 25.1591 77.3194 25.1484 76.7922 25.1484C76.265 25.1484 75.8126 25.1484 75.4706 25.1805C75.1977 25.1925 74.9262 25.2259 74.6585 25.2804C74.51 25.3069 74.3684 25.3627 74.2417 25.4445C74.2239 25.4445 74.2203 25.4766 74.2096 25.4909L71.4062 41.1227L71.4241 41.087C71.409 41.129 71.4081 41.1749 71.4217 41.2174C71.4352 41.26 71.4623 41.2969 71.4989 41.3225C71.6247 41.406 71.7667 41.462 71.9156 41.4866C72.1832 41.5426 72.4548 41.5771 72.7278 41.59C73.084 41.6114 73.5115 41.6221 74.0493 41.6221C74.5872 41.6221 75.0111 41.6221 75.3602 41.59C75.6484 41.576 75.9353 41.5414 76.2187 41.4866C76.3893 41.4592 76.5542 41.4038 76.7067 41.3225C76.7671 41.2862 76.8155 41.2328 76.8456 41.1691L78.1529 33.8526L81.0916 41.087Z" fill="#F8F1DF"/>
<path fill-rule="evenodd" clip-rule="evenodd" d="M103.737 28.2101C103.83 27.991 103.905 27.7642 103.961 27.5323C104.021 27.2826 104.068 27.0436 104.107 26.8189C104.146 26.5941 104.168 26.3801 104.189 26.1946C104.21 26.0091 104.214 25.8771 104.214 25.8022C104.214 25.4455 104.128 25.2279 103.954 25.1387H93.3351C92.9959 25.1418 92.6571 25.162 92.3199 25.1993C92.1216 25.2267 91.9284 25.2832 91.7464 25.367C91.6678 25.4016 91.5992 25.4556 91.5469 25.5239L90.9414 28.9236L90.5175 31.2851L89.8407 35.0842L89.3847 37.6384L88.7578 41.1058H88.7792C88.7471 41.2021 88.8255 41.277 88.9181 41.3412C89.0715 41.4264 89.2394 41.4821 89.4132 41.5053C89.7312 41.5612 90.0525 41.5957 90.375 41.6088C90.774 41.6266 91.2905 41.6373 91.9139 41.6409H100.947C101.043 41.6029 101.127 41.5416 101.193 41.4625C101.331 41.3027 101.441 41.1205 101.517 40.9239C101.612 40.6927 101.687 40.4541 101.742 40.2104C101.802 39.9536 101.849 39.7003 101.884 39.4577C101.92 39.2151 101.948 38.9975 101.966 38.7978C101.984 38.598 101.995 38.466 101.995 38.3875C101.995 37.8881 101.838 37.642 101.524 37.642H94.8312L95.2943 35.0878H100.83C100.941 35.0571 101.041 34.9952 101.118 34.9094C101.256 34.7579 101.367 34.5843 101.446 34.3958C101.54 34.1756 101.616 33.9476 101.67 33.7144C101.727 33.4683 101.777 33.2257 101.813 33.0009C101.849 32.7762 101.877 32.5622 101.895 32.3767C101.913 32.1912 101.923 32.0592 101.923 31.9843C101.923 31.5847 101.802 31.3636 101.567 31.3029H95.9675L96.395 28.9414H103.056C103.195 28.9257 103.323 28.8567 103.412 28.7488C103.552 28.5904 103.662 28.4079 103.737 28.2101Z" fill="#F8F1DF"/>
<path fill-rule="evenodd" clip-rule="evenodd" d="M27.0513 45.0974C26.175 45.1973 25.2964 45.271 24.4153 45.3186C24.4153 45.3186 13.3229 40.46 13.4583 30.0507C13.5616 21.9708 17.316 19.6092 17.316 19.6092C19.163 20.4368 20.8407 21.6004 22.2638 23.0409C23.4119 24.3177 24.3607 25.7609 25.0779 27.3217C25.0779 27.3217 26.0966 21.6711 31.4897 17.08C39.3976 9.90625 47.9431 10.5127 47.9431 10.5127C49.1589 13.625 49.794 16.9344 49.8168 20.2763C49.9557 33.4431 41.9801 42.9535 29.5661 44.7728C28.7291 44.8941 27.8884 45.0047 27.0513 45.0974Z" fill="#F8F1DF"/>
<path fill-rule="evenodd" clip-rule="evenodd" d="M25.724 28.7522C25.0769 30.249 24.5458 31.7935 24.1353 33.3719C24.1353 33.4289 24.1068 33.486 24.089 33.5431C23.9537 33.9462 23.8753 34.0782 23.8326 34.0425C22.8245 39.3934 23.9394 43.4458 24.3419 44.6409C24.9581 44.6424 25.574 44.6126 26.1871 44.5517C29.3394 44.1452 32.3654 43.0562 35.0551 41.3605C37.7447 39.6647 40.0334 37.4028 41.7621 34.732C43.4909 32.0611 44.6182 29.0453 45.0658 25.8942C45.5133 22.743 45.2704 19.532 44.3539 16.4844C40.4329 16.6617 36.6321 17.8948 33.3522 20.0538C30.0723 22.2128 27.4345 25.2178 25.7169 28.7522H25.724Z" fill="#EBDED0"/>
<path fill-rule="evenodd" clip-rule="evenodd" d="M16.0352 31.6975C16.0329 34.4257 16.815 37.0969 18.2881 39.3919C19.7611 41.6869 21.8628 43.5087 24.342 44.6396C23.9395 43.4445 22.8246 39.4028 23.8326 34.0412C23.7258 33.9556 23.8825 32.6892 23.9858 31.9864C24.1247 31.0483 24.2743 30.2028 24.4453 29.418C22.8879 27.1184 20.7739 25.2516 18.3007 23.9922C16.8182 26.2876 16.0313 28.9638 16.0352 31.6975Z" fill="#EBDED0"/>
</svg>
