<svg width="141" height="61" viewBox="0 0 141 61" fill="none" xmlns="http://www.w3.org/2000/svg">
<path fill-rule="evenodd" clip-rule="evenodd" d="M33.906 33.479C33.3087 34.138 32.5296 34.605 31.6672 34.821C30.8048 35.0371 29.8977 34.9925 29.0606 34.6928C28.2235 34.3932 27.4939 33.852 26.9641 33.1376C26.4342 32.4231 26.1278 31.5676 26.0837 30.679C26.0395 29.7904 26.2595 28.9086 26.7159 28.1451C27.1723 27.3816 27.8446 26.7706 28.6479 26.3893C29.4511 26.008 30.3493 25.8736 31.2289 26.0029C32.1085 26.1322 32.93 26.5196 33.5897 27.116C34.0302 27.5116 34.388 27.9906 34.6426 28.5253C34.8971 29.0601 35.0433 29.64 35.0727 30.2315C35.1021 30.8231 35.0141 31.4147 34.8139 31.972C34.6136 32.5294 34.3051 33.0416 33.906 33.479Z" fill="#F8F1DF"/>
<path fill-rule="evenodd" clip-rule="evenodd" d="M20.1711 30.6083C20.1711 30.6083 22.6723 29.335 24.1228 23.6668C25.5733 17.9987 30.9756 15.361 30.9756 15.361C30.9756 15.361 19.3822 3.85009 10.6172 21.9096C10.6172 21.9096 17.7572 23.3139 20.1711 30.6083Z" fill="#F8F1DF"/>
<path fill-rule="evenodd" clip-rule="evenodd" d="M21.2227 10.9226C21.2227 10.9226 30.1585 9.16543 35.4481 20.3817C35.4481 20.3817 41.6283 22.3827 47.0414 16.6454C47.0414 16.6344 37.9711 4.22124 21.2227 10.9226Z" fill="#F8F1DF"/>
<path fill-rule="evenodd" clip-rule="evenodd" d="M35.8008 39.0989C35.8008 39.0989 33.4487 37.5673 27.8029 39.1462C22.1571 40.7252 17.1911 37.3672 17.1911 37.3672C17.1911 37.3672 13.0285 53.1711 33.0488 51.745C33.0634 51.745 30.7003 44.8399 35.8008 39.0989Z" fill="#F8F1DF"/>
<path fill-rule="evenodd" clip-rule="evenodd" d="M18.2488 48.0349C18.2488 48.0349 12.2576 41.1698 19.3067 30.9795C19.3067 30.9795 17.9507 24.6347 10.2763 22.8047C10.2508 22.8047 4.07062 36.8696 18.2488 48.0349Z" fill="#F8F1DF"/>
<path fill-rule="evenodd" clip-rule="evenodd" d="M35.36 21.3742C35.36 21.3742 35.211 24.1829 39.3954 28.2866C43.5797 32.3904 43.1617 38.3751 43.1617 38.3751C43.1617 38.3751 58.9176 34.0785 47.6732 17.4415C47.6732 17.4233 42.8817 22.9277 35.36 21.3742Z" fill="#F8F1DF"/>
<path fill-rule="evenodd" clip-rule="evenodd" d="M51.8705 32.125C51.8705 32.125 48.9294 40.7473 36.6017 39.7359C36.6017 39.7359 31.7884 44.1016 34.0569 51.6543C34.0278 51.6543 49.3039 49.9954 51.8705 32.125Z" fill="#F8F1DF"/>
<path fill-rule="evenodd" clip-rule="evenodd" d="M61.9129 30.3567H63.149C64.505 30.3567 65.3302 29.8255 65.3302 28.7122C65.3302 27.5371 64.5631 27.0824 63.1744 27.0824H61.9129V30.3567ZM61.9602 35.6501H59.6953V25.0996H63.3307C65.981 25.0996 67.6569 26.191 67.6569 28.6286C67.6569 31.0661 65.9373 32.354 63.1199 32.354H61.9602V35.6501Z" fill="#F8F1DF"/>
<path fill-rule="evenodd" clip-rule="evenodd" d="M77.1136 30.3712C77.1136 27.9737 76.023 26.9005 74.3688 26.9005C72.8747 26.9005 71.7004 28.0174 71.7004 30.3712C71.7004 32.7251 72.9219 33.8383 74.5034 33.8383C76.0848 33.8383 77.1136 32.7469 77.1136 30.3712ZM69.3047 30.3712C69.3047 26.8277 71.4605 24.9141 74.3688 24.9141C77.6225 24.9141 79.5093 26.9805 79.5093 30.3712C79.5093 34.1257 77.3281 35.8284 74.4197 35.8284C71.3696 35.8284 69.3047 33.9147 69.3047 30.3712Z" fill="#F8F1DF"/>
<path fill-rule="evenodd" clip-rule="evenodd" d="M89.5687 35.229C89.0234 35.5164 88.2563 35.8293 86.7185 35.8293C83.4939 35.8293 81.3672 33.9775 81.3672 30.5068C81.3672 26.8687 83.4939 24.9114 86.9439 24.9114C87.8533 24.894 88.7566 25.0636 89.5978 25.4098L89.0997 27.3089C88.5055 27.1134 87.8856 27.0068 87.2602 26.9924C85.1808 26.9924 83.7629 28.0329 83.7629 30.3722C83.7629 32.6023 85.1226 33.7338 87.2457 33.7338C87.8882 33.7131 88.5215 33.575 89.1143 33.3263L89.5687 35.229Z" fill="#F8F1DF"/>
<path fill-rule="evenodd" clip-rule="evenodd" d="M93.7748 31.5936H97.4102L95.647 26.6312H95.5852L93.7675 31.5936H93.7748ZM97.8464 32.8306H93.3385L92.3133 35.6501H90.9609L94.9854 25.0996H96.3414L100.293 35.6501H98.8753L97.8464 32.8306Z" fill="#F8F1DF"/>
<path fill-rule="evenodd" clip-rule="evenodd" d="M104.983 35.6515H103.627V26.3598H100.504V25.0938H108.102V26.3598H104.983V35.6515Z" fill="#F8F1DF"/>
<path fill-rule="evenodd" clip-rule="evenodd" d="M117.646 30.3711C117.646 27.4607 116.352 26.2091 114.268 26.2091C112.414 26.2091 110.997 27.5516 110.997 30.3711C110.997 33.1907 112.382 34.5331 114.461 34.5331C116.435 34.5331 117.657 33.0997 117.657 30.3711H117.646ZM109.535 30.3711C109.535 26.9913 111.48 24.9395 114.261 24.9395C117.395 24.9395 119.085 27.1732 119.085 30.3711C119.085 33.9619 117.064 35.7992 114.308 35.7992C111.393 35.7992 109.535 33.7182 109.535 30.3711Z" fill="#F8F1DF"/>
<path fill-rule="evenodd" clip-rule="evenodd" d="M132.194 35.6515H130.835L130.188 27.4003L127.523 35.6515H126.105L123.451 27.4294L122.79 35.6515H121.434L122.339 25.0938H123.997L126.843 34.1708L129.631 25.0938H131.289L132.194 35.6515Z" fill="#F8F1DF"/>
</svg>
