<svg width="94" height="43" viewBox="0 0 94 43" fill="none" xmlns="http://www.w3.org/2000/svg">
<g clip-path="url(#clip0_2502_46451)">
<path fill-rule="evenodd" clip-rule="evenodd" d="M50.7001 10.5059H63.7015L48.1012 31.5181H35.1016L50.7001 10.5059Z" fill="#F8F1DF"/>
<path fill-rule="evenodd" clip-rule="evenodd" d="M90.3523 3.28289C87.1011 -0.00152503 82.2269 0.00369183 78.9774 0.00195312H69.6162C68.8365 0.00195312 67.8606 0.00195288 67.081 0.789586C66.3013 1.57722 66.3047 2.56133 66.3047 3.34896V5.25284H79.3061C80.1667 5.25284 81.473 5.25284 82.3387 6.12219C83.2045 6.99154 83.1993 8.31122 83.1993 9.18753V22.3182C83.1993 23.1876 83.1993 24.509 82.3387 25.3836C81.4782 26.2581 80.1718 26.2529 79.3061 26.2529H73.0171C71.9328 26.2529 70.5249 26.2529 69.9828 25.0497C69.4406 23.8465 70.1996 22.7529 70.8433 21.8766L79.2941 10.495H66.3047L61.1052 17.5003C60.2343 18.6722 59.4805 19.6876 59.4805 21.0003C59.4805 22.313 60.1827 23.2606 61.1052 24.5038L62.4047 26.2529C63.7058 28.0055 65.0053 29.7564 66.7385 30.6327C68.4716 31.509 70.5249 31.5021 73.3476 31.5021H78.9808C82.2303 31.5021 87.1045 31.5021 90.3557 28.2177C93.607 24.9332 93.6052 20.1205 93.6052 18.3696V13.1309C93.6018 11.3818 93.6018 6.56556 90.3523 3.28289Z" fill="#F8F1DF"/>
<path fill-rule="evenodd" clip-rule="evenodd" d="M37.7013 17.51L36.4001 15.7574C35.1006 14.0065 33.8012 12.2556 32.0663 11.3811C30.3314 10.5065 28.2798 10.5117 25.4589 10.5117H3.30973C2.53006 10.5117 1.5559 10.5117 0.774509 11.3011C-0.00688245 12.0905 2.06427e-06 13.0607 2.06427e-06 13.8535V15.7574H5.20297V42.0223H15.602V15.7574H25.7859C26.8685 15.7574 28.2764 15.7574 28.8185 16.9623C29.3607 18.1672 28.6017 19.2609 27.958 20.1355L19.5072 31.517H32.5L37.7013 24.5135C38.5704 23.3399 39.326 22.3227 39.326 21.01C39.326 19.6973 38.6238 18.7514 37.7013 17.51Z" fill="#F8F1DF"/>
</g>
<defs>
<clipPath id="clip0_2502_46451">
<rect width="93.6" height="42.0245" fill="white"/>
</clipPath>
</defs>
</svg>
