<svg width="109" height="21" viewBox="0 0 109 21" fill="none" xmlns="http://www.w3.org/2000/svg">
<g clip-path="url(#clip0_2502_46403)">
<path d="M20.5091 9.00996L21.0679 2.59401C21.144 1.67441 20.4147 0 18.6518 0H13.4471H4.08447C2.32159 0 1.46114 1.20664 1.35358 2.36545C1.29062 3.05382 0.0865124 17.1854 0.0078125 18.004C0.0078125 18.0678 0.0078125 18.1342 0.0078125 18.2007V18.2937C0.0287991 19.5216 0.90499 20.7947 2.41078 20.7947H16.8916C18.8092 20.7947 19.5569 19.7634 19.7221 18.1741C19.8192 17.2226 20.294 11.4684 20.294 11.4684H11.54L11.1596 15.9149H8.9455L9.90039 4.87707H12.1145L11.763 9.00464L20.5091 9.00996Z" fill="#F8F1DF"/>
<path d="M34.0183 1.78729C33.7061 2.69892 31.1589 10.776 31.1589 10.776L32.2922 0.00390625H23.5434L21.707 20.8039H28.3047C29.96 20.8039 30.524 19.8524 30.8021 19.0896C31.13 18.178 33.5566 11.382 33.5566 11.382L32.6673 20.8039H41.4214L43.2262 0.00390625H36.3531C34.8368 0.00390625 34.2387 1.13879 34.0183 1.78729Z" fill="#F8F1DF"/>
<path d="M78.3535 0.00390625L77.535 9.48696H75.3157L76.1368 0.00390625H67.3827C67.3827 0.00390625 66.5407 10.0424 66.4567 11.0152C66.3492 12.1713 66.9945 13.8139 68.9358 13.8139H77.1599L76.9815 15.9242H66.0291L65.6094 20.8013H83.0257C84.2062 20.8013 85.3499 20.0225 85.5021 18.3534C85.6018 17.2903 87.1049 0.0145398 87.1049 0.0145398L78.3535 0.00390625Z" fill="#F8F1DF"/>
<path d="M97.1983 10.0416L97.6417 4.88278H99.8348L99.3888 10.0416H97.1983ZM108.796 2.42164V2.29939C108.765 0.901381 107.608 0.0136719 106.191 0.0136719H89.31L87.5156 20.811H96.2723L96.8258 14.3738H105.331C106.834 14.3738 107.833 13.5977 107.993 11.8117C108.059 11.1233 108.749 3.23759 108.796 2.53859C108.796 2.49872 108.796 2.45885 108.796 2.41898V2.42164Z" fill="#F8F1DF"/>
<path d="M55.0153 16.4757H52.7802L53.2262 11.3143H55.4612L55.0153 16.4757ZM53.6013 6.98737L53.7849 4.87973H64.7452L65.1702 0H45.4532L43.6562 20.7973H61.1198C62.2242 20.7973 63.4309 20.1329 63.5883 18.4053C63.7064 17.0977 64.2442 10.913 64.3438 9.79401C64.4724 8.29501 63.5332 6.998 61.689 6.998L53.6013 6.98737Z" fill="#F8F1DF"/>
</g>
<defs>
<clipPath id="clip0_2502_46403">
<rect width="108.8" height="20.8" fill="white"/>
</clipPath>
</defs>
</svg>
