<svg width="85" height="29" viewBox="0 0 85 29" fill="none" xmlns="http://www.w3.org/2000/svg">
<g clip-path="url(#clip0_2502_46424)">
<path fill-rule="evenodd" clip-rule="evenodd" d="M11.5703 20.9148L14.9556 26.6022H19.7636L13.966 16.9336L11.5703 20.9148Z" fill="#F8F1DF"/>
<path fill-rule="evenodd" clip-rule="evenodd" d="M22.1827 0.00195312H17.2694L-0.00390625 28.8008H4.89986L22.1827 0.00195312Z" fill="#F8F1DF"/>
<path fill-rule="evenodd" clip-rule="evenodd" d="M9.56572 9.60873L6.56219 4.55469H1.74219L7.16529 13.6079L9.56572 9.60873Z" fill="#F8F1DF"/>
<path fill-rule="evenodd" clip-rule="evenodd" d="M80.3948 13.763V11.4881C80.3948 9.42742 79.0558 8.69703 75.9015 8.69703C73.6124 8.69703 72.5318 9.12568 71.754 10.3733L68.2981 7.75471C69.983 5.43663 72.4026 4.57812 75.6849 4.57812C81.0865 4.57812 84.802 6.38014 84.802 11.7479V26.6011H80.3948V17.3695H75.1201C72.5282 17.3695 71.3184 18.4004 71.3184 19.9893C71.3184 21.4489 72.4851 22.7372 75.4659 22.7372C76.769 22.7372 77.7706 22.6809 78.5161 22.4666V26.1641C77.6581 26.5125 76.0224 26.8585 74.5541 26.8585C69.6719 26.8585 66.8203 23.9849 66.8203 20.2036C66.8203 16.7313 69.2399 13.763 73.9486 13.763H80.3948Z" fill="#F8F1DF"/>
<path fill-rule="evenodd" clip-rule="evenodd" d="M40.1415 17.3293H28.3739V13.7373H35.7343C35.6051 10.441 33.7001 8.68563 31.1118 8.68563C28.5235 8.68563 26.5754 10.441 26.4892 13.7373V17.3293C26.4892 20.8831 28.6922 22.6803 31.7161 22.6803C33.4021 22.6803 35.2162 21.9092 36.5121 20.5838L39.7095 23.2802C37.5484 25.7635 34.7399 26.7908 31.8022 26.7908C27.3089 26.7908 22.082 24.65 22.082 15.7452C22.082 7.31106 26.8781 4.57031 31.1118 4.57031C35.9509 4.57031 40.1415 8.12407 40.1415 13.7325V17.3293Z" fill="#F8F1DF"/>
<path fill-rule="evenodd" clip-rule="evenodd" d="M43.9297 21.3668V0H48.3237V21.0232C48.3237 21.999 48.8837 22.5091 49.9595 22.5091H51.466V26.5801H49.5203C46.3385 26.5885 43.9297 25.2295 43.9297 21.3668Z" fill="#F8F1DF"/>
<path fill-rule="evenodd" clip-rule="evenodd" d="M56.8789 21.3668V0H61.2669V21.0232C61.2669 21.999 61.8269 22.5091 62.9027 22.5091H64.4081V26.5801H62.4731C59.2877 26.5885 56.8789 25.2295 56.8789 21.3668Z" fill="#F8F1DF"/>
</g>
<defs>
<clipPath id="clip0_2502_46424">
<rect width="84.8" height="28.8" fill="white"/>
</clipPath>
</defs>
</svg>
