<svg width="141" height="130" viewBox="0 0 141 130" fill="none" xmlns="http://www.w3.org/2000/svg">
<g id="&#208;&#161;&#208;&#187;&#208;&#190;&#208;&#185;_x0020_1">
<path id="Vector" fill-rule="evenodd" clip-rule="evenodd" d="M102.439 32.6538C100.362 34.3593 99.3177 36.304 99.3177 38.4641C99.3177 39.715 99.611 40.9386 100.194 42.1246C101.279 39.175 102.026 36.0135 102.439 32.6538ZM94.5726 52.2379C93.1978 51.0416 92.2052 50.0539 91.6082 49.2712C89.691 46.7796 88.7427 44.1582 88.7427 41.4102C88.7427 37.0423 90.9498 33.3032 95.3504 30.1759C97.5336 28.631 100.017 27.469 102.818 26.6931C102.818 26.5325 102.818 26.365 102.818 26.1976C102.818 18.528 101.017 12.8168 97.3971 9.09139C93.7948 5.34888 88.5073 3.47592 81.5585 3.47592C79.8563 3.47592 77.6424 3.54427 74.9338 3.67757L60.7053 53.3658C59.6308 57.0707 59.0986 59.3777 59.0986 60.2663C59.0986 60.7824 59.2624 61.2848 59.6137 61.7838C59.9412 62.2658 60.4051 62.5836 60.9851 62.7545C61.8277 63.0518 63.1819 63.2022 65.0445 63.2022C70.1205 63.2022 74.8349 62.6691 79.1604 61.5993C83.5166 60.5466 87.0643 58.9778 89.8411 56.8861C91.5741 55.5532 93.1501 54.0015 94.5726 52.2379ZM72.1263 91.0848H74.4801C75.8685 88.6274 77.7788 87.3799 80.2179 87.3799C81.3027 87.3799 82.6433 87.6157 84.2534 88.0737C88.9917 89.3998 92.4337 90.2337 94.6033 90.5858C96.749 90.9139 99.0891 91.0848 101.569 91.0848C106.584 91.0848 111.213 90.2713 115.439 88.6444C119.666 87.0005 122.92 84.6969 125.192 81.7302C127.444 78.7465 128.569 75.667 128.569 72.4953C128.569 69.6858 127.652 67.0473 125.827 64.5694C124.005 62.0778 119.99 58.6326 113.785 54.2031C110.834 52.1012 108.399 50.2726 106.464 48.7312C108.098 46.3661 109.569 43.355 110.885 39.6808C112.113 36.2493 112.837 32.7256 113.041 29.13C113.318 29.1198 113.604 29.1198 113.891 29.1198C119.328 29.1198 123.705 30.3023 127.021 32.6811C130.33 35.0497 131.988 38.1018 131.988 41.8409C131.988 42.9722 131.902 44.4726 131.752 46.3251H133.857L140.335 25.514H137.985C136.811 27.0212 135.791 28.009 134.921 28.467C134.048 28.9284 133.008 29.1642 131.824 29.1642C131.101 29.1642 130.463 29.1198 129.89 29.0207C129.63 28.9557 128.317 28.5832 125.892 27.8654C122.497 26.823 120.154 26.1941 118.858 26.0198C117.036 25.7156 115.091 25.555 113.058 25.5208C112.83 21.0264 111.557 16.7849 109.262 12.7963C106.72 8.39074 103.299 5.15065 99.0175 3.09312C94.7534 1.03902 88.173 0 79.3003 0H58.3243L57.7443 1.8217H58.7984C61.2648 1.8217 62.9022 2.15322 63.7414 2.84362C64.5874 3.52718 65.0001 4.51835 65.0001 5.77953C65.0001 7.56704 64.5533 10.062 63.6459 13.2167L52.0236 53.3658C50.8672 57.5082 49.8131 60.2663 48.8818 61.6335C48.2746 62.5699 47.316 63.3184 46.0266 63.8926C45.1465 64.272 43.4442 64.5078 40.8858 64.5762L40.2547 66.3808H68.0567C74.7667 66.3808 80.3714 65.6801 84.8675 64.2583C89.3465 62.8331 93.5117 60.632 97.3494 57.6722C98.0555 57.1288 98.7275 56.5922 99.362 56.0658L99.5053 56.1752C107.982 62.611 113.191 67.1122 115.119 69.6687C116.422 71.4016 117.053 73.3155 117.053 75.4141C117.053 78.6508 115.654 81.5046 112.83 83.9894C110.002 86.4673 105.884 87.7114 100.44 87.7114C94.6033 87.7114 89.8411 86.3853 86.232 83.7365C82.6024 81.0808 80.7705 77.6391 80.7705 73.4249C80.7705 71.9416 80.9206 70.0823 81.2208 67.8231H79.0922L72.1263 91.0848ZM61.1863 73.0763H60.968V75.479H63.639V73.0763H61.1863ZM45.6889 73.1207H45.4705V75.4312H47.9812V73.1207H45.6889ZM61.1932 87.0586H60.9748V89.3348H63.6459V87.0586H61.1932ZM45.6991 87.0757H45.4808V89.3724H47.9812V87.0757H45.6991ZM107.784 101.01H107.566V103.31H110.067V101.01H107.784ZM92.154 101.096H91.9288V103.396H94.4361V101.096H92.154ZM76.694 101.058H76.4757V103.355H78.983V101.058H76.694ZM61.2818 101.082H61.0635V103.379H63.564V101.082H61.2818ZM45.6991 100.897H45.4808V103.194H47.9812V100.897H45.6991ZM31.2216 100.986H31.0033V103.293H33.5106V100.986H31.2216ZM31.2216 87.0757H31.0033V89.3724H33.5106V87.0757H31.2216ZM31.2216 73.0182H31.0033V75.3218H33.5106V73.0182H31.2216ZM31.2216 59.1726H31.0033V61.4728H33.5106V59.1726H31.2216ZM31.2045 45.1869H30.9794V47.4837H33.4867V45.1869H31.2045ZM31.2216 31.2662H31.0033V33.5664H33.5106V31.2662H31.2216ZM41.5646 24.557H22.325V110.033H117.66V92.8723H120.539V112.918H19.4458C19.4458 82.5061 19.4458 52.0875 19.4458 21.6758H41.5646V24.557ZM124.343 97.23H129.729V101.591H139.847V102.606H129.729V106.971H124.125V97.23H124.343ZM103.667 115.833H114.225V120.919H109.343V130H108.327V120.919H103.445V115.833H103.667ZM88.1559 115.833H98.7139V120.919H93.8323V130H92.8192V120.919H87.9376V115.833H88.1559ZM72.6517 115.833H83.2062V120.919H78.3246V130H77.3081V120.919H72.4333V115.833H72.6517ZM57.1405 115.833H67.7019V120.919H62.8203V130H61.8038V120.919H56.9222V115.833H57.1405ZM41.6328 115.833H52.1942V120.919H47.3092V130H46.2961V120.919H41.4145V115.833H41.6328ZM26.1286 115.833H36.6797V120.919H31.8083V130H30.785V120.919H25.9102V115.833H26.1286ZM10.6174 97.23H16.0107V106.971H10.4025V102.606H0.277832V101.591H10.4025V97.23H10.6174ZM10.6174 83.2751H16.0107V93.0158H10.4025V88.6547H0.277832V87.6396H10.4025V83.2751H10.6174ZM10.6174 69.3235H16.0107V79.0643H10.4025V74.6998H0.277832V73.6847H10.4025V69.3235H10.6174ZM10.6174 55.3754H16.0107V65.1094H10.4025V60.7551H0.277832V59.7366H10.4025V55.3754H10.6174ZM10.6174 41.4239H16.0107V51.1613H10.4025V46.8001H0.277832V45.7851H10.4025V41.4239H10.6174ZM10.6174 27.469H16.0107V37.2098H10.4025V32.8486H0.277832V31.8301H10.4025V27.469H10.6174ZM30.785 13.5243V4.43632H31.8083V13.5243H36.6797V18.61H36.4647H25.9102V13.5243H30.785Z" fill="white"/>
</g>
</svg>
