<svg width="517" height="345" viewBox="0 0 517 345" fill="none" xmlns="http://www.w3.org/2000/svg">
<g clip-path="url(#clip0_2_1415)">
<path d="M0 0H517V344.667H0V0Z" fill="#EF3340"/>
<path d="M0 0H517V114.889H0V0Z" fill="#00B5E2"/>
<path d="M0 229.777H517V344.666H0V229.777Z" fill="#509E2F"/>
<path d="M267.671 214.258C244.491 214.258 225.746 195.513 225.746 172.334C225.746 149.154 244.491 130.409 267.671 130.409C274.927 130.409 281.679 132.223 287.625 135.448C278.353 126.378 265.554 120.734 251.546 120.734C223.025 120.734 199.947 143.813 199.947 172.334C199.947 200.854 223.025 223.933 251.546 223.933C265.554 223.933 278.353 218.289 287.625 209.219C281.679 212.444 274.927 214.258 267.671 214.258Z" fill="white"/>
<path d="M299.92 143.309L305.463 158.929L320.479 151.774L313.324 166.79L328.945 172.333L313.324 177.876L320.479 192.892L305.463 185.737L299.92 201.358L294.377 185.737L279.361 192.892L286.516 177.876L270.896 172.333L286.516 166.79L279.361 151.774L294.377 158.929L299.92 143.309Z" fill="white"/>
</g>
<defs>
<clipPath id="clip0_2_1415">
<rect width="517" height="344.667" fill="white"/>
</clipPath>
</defs>
</svg>
