<svg width="517" height="345" viewBox="0 0 517 345" fill="none" xmlns="http://www.w3.org/2000/svg">
<g clip-path="url(#clip0_2_1538)">
<path d="M0 0H517V344.667H0V0Z" fill="#007C30"/>
<path d="M0 231.793H517V0H0" fill="#CE1720"/>
<path d="M100.78 231.793V0H0V344.667H517H100.78V231.793Z" fill="white"/>
<path d="M28.2183 160.844L8.66699 129.199L28.2183 98.1592L47.6687 129.199L28.2183 160.844ZM73.166 160.844L53.7155 129.199L73.166 98.1592L92.7173 129.199L73.166 160.844ZM28.2183 243.08L8.66699 211.436L28.2183 180.395L47.6687 211.436L28.2183 243.08ZM73.166 243.08L53.7155 211.436L73.166 180.395L92.7173 211.436L73.166 243.08Z" fill="#CE1720"/>
<path d="M28.2182 74.3754L11.9927 48.1727L28.2182 22.373L44.343 48.1727L28.2182 74.3754ZM73.166 74.3754L57.0412 48.1727L73.166 22.373L89.3915 48.1727L73.166 74.3754ZM28.2182 320.479L11.9927 294.176L28.2182 268.376L44.343 294.176L28.2182 320.479ZM73.166 320.479L57.0412 294.176L73.166 268.376L89.3915 294.176L73.166 320.479Z" stroke="#CE1720" stroke-width="7"/>
</g>
<defs>
<clipPath id="clip0_2_1538">
<rect width="517" height="344.667" fill="white"/>
</clipPath>
</defs>
</svg>
