<svg width="72" height="48" viewBox="0 0 72 48" fill="none" xmlns="http://www.w3.org/2000/svg">
<g clip-path="url(#clip0_2502_46261)">
<path d="M0 0H72V48H0V0Z" fill="#D80027"/>
<path d="M31.8336 33.5715L30.4722 31.382L27.9599 31.9995L29.63 30.0206L28.2686 27.8311L30.6686 28.7995L32.3248 26.8206L32.1423 29.4031L34.5423 30.3715L32.03 30.989L31.8336 33.5715ZM40.7879 11.5083L39.3704 13.6697L40.9985 15.6767L38.5143 15.003L37.0967 17.1785L36.9564 14.596L34.4722 13.9223L36.8862 12.996L36.7458 10.4136L38.3739 12.4206L40.7879 11.5083ZM33.1528 3.56445L32.8721 6.13287L35.23 7.19954L32.7037 7.73287L32.423 10.3013L31.1318 8.05568L28.6195 8.58902L30.3458 6.66621L29.0546 4.43463L31.4125 5.48726L33.1528 3.56445ZM41.0967 22.7083L39.0055 24.2381L39.8195 26.6943L37.7283 25.1785L35.6371 26.7223L36.423 24.2522L34.3318 22.7504L36.9143 22.7364L37.7002 20.2662L38.5143 22.7223L41.0967 22.7083ZM16.1423 6.49779L18.5704 14.0066H26.4581L20.0862 18.6241L22.5143 26.1329L16.1423 21.5013L9.75636 26.1329L12.1985 18.6241L5.8125 14.0066H13.7143L16.1423 6.49779Z" fill="#FFDA44"/>
</g>
<defs>
<clipPath id="clip0_2502_46261">
<rect width="72" height="48" rx="8" fill="white"/>
</clipPath>
</defs>
</svg>
