<svg width="517" height="345" viewBox="0 0 517 345" fill="none" xmlns="http://www.w3.org/2000/svg">
<g clip-path="url(#clip0_2_1607)">
<path d="M0 0H517V344.667H0V0Z" fill="#D80027"/>
<path d="M228.568 241.065L218.793 225.343L200.753 229.777L212.746 215.567L202.97 199.846L220.204 206.8L232.096 192.59L230.785 211.133L248.019 218.087L229.979 222.521L228.568 241.065ZM292.866 82.639L282.687 98.1591L294.377 112.571L276.539 107.733L266.361 123.354L265.353 104.811L247.515 99.9731L264.849 93.3216L263.841 74.7782L275.532 89.1897L292.866 82.639ZM238.042 25.5977L236.026 44.0403L252.957 51.6996L234.817 55.5292L232.801 73.9719L223.529 57.8472L205.49 61.6768L217.886 47.87L208.614 31.846L225.545 39.4045L238.042 25.5977ZM295.083 163.061L280.067 174.046L285.912 191.683L270.896 180.798L255.88 191.884L261.523 174.147L246.507 163.364L265.051 163.263L270.694 145.526L276.539 163.162L295.083 163.061ZM115.897 46.6606L133.331 100.578H189.97L144.216 133.734L161.651 187.651L115.897 154.394L70.0418 187.651L87.5774 133.734L41.7227 100.578H98.4616L115.897 46.6606Z" fill="#FFDA44"/>
</g>
<defs>
<clipPath id="clip0_2_1607">
<rect width="517" height="344.667" fill="white"/>
</clipPath>
</defs>
</svg>
