<svg width="517" height="345" viewBox="0 0 517 345" fill="none" xmlns="http://www.w3.org/2000/svg">
<g clip-path="url(#clip0_2_98)">
<path d="M0 0H517V344.67H0V0Z" fill="white"/>
<path d="M290.812 -0.00299072H226.188V140.017H0V204.642H226.188V344.662H290.812V204.642H517V140.017H290.812V-0.00299072Z" fill="#D80027"/>
<path d="M397.631 232.271L517 298.589V232.271H397.631ZM314.696 232.271L517 344.662V312.881L371.904 232.271H314.696ZM463.113 344.662L314.696 262.201V344.662H463.113Z" fill="#0052B4"/>
<path d="M314.696 232.271L517 344.662V312.881L371.904 232.271H314.696Z" fill="white"/>
<path d="M314.696 232.271L517 344.662V312.881L371.904 232.271H314.696Z" fill="#D80027"/>
<path d="M91.2232 232.269L0 282.949V232.269H91.2232ZM202.305 246.562V344.661H25.7399L202.305 246.562Z" fill="#0052B4"/>
<path d="M145.096 232.271L0 312.881V344.662L202.305 232.271H145.096Z" fill="#D80027"/>
<path d="M119.369 112.388L0 46.0706V112.388H119.369ZM202.305 112.388L0 -0.00299072V31.7784L145.096 112.388H202.305ZM53.8872 -0.00299072L202.305 82.4585V-0.00299072H53.8872Z" fill="#0052B4"/>
<path d="M202.305 112.388L0 -0.00299072V31.7784L145.096 112.388H202.305Z" fill="white"/>
<path d="M202.305 112.388L0 -0.00299072V31.7784L145.096 112.388H202.305Z" fill="#D80027"/>
<path d="M425.777 112.39L517 61.7098V112.39H425.777ZM314.696 98.0977V-0.00201416H491.26L314.696 98.0977Z" fill="#0052B4"/>
<path d="M371.904 112.388L517 31.7783V-0.00305176L314.696 112.388H371.904Z" fill="#D80027"/>
</g>
<defs>
<clipPath id="clip0_2_98">
<rect width="517" height="344.666" fill="white"/>
</clipPath>
</defs>
</svg>
