<svg width="517" height="345" viewBox="0 0 517 345" fill="none" xmlns="http://www.w3.org/2000/svg">
<g clip-path="url(#clip0_2_652)">
<path d="M0 0H517V344.633H0V0Z" fill="white"/>
<path d="M0 0H517V49.2766H0V0ZM0 98.4521H517V147.729H0V98.4521ZM0 196.904H517V246.181H0V196.904ZM0 295.457H517V344.734H0V295.457Z" fill="#6DA544"/>
<path d="M0 0H258.5V147.729H0V0Z" fill="#D80027"/>
<path d="M118.042 115.517L110.468 100.573V70.5826L129.25 59.5762L148.032 70.5826V93.1004L155.504 85.6281L159.745 88.6574L155.504 100.573L140.458 115.517H118.042Z" fill="white"/>
<path d="M82.8009 89.0612C85.8123 89.0612 88.2536 86.62 88.2536 83.6085C88.2536 80.597 85.8123 78.1558 82.8009 78.1558C79.7894 78.1558 77.3481 80.597 77.3481 83.6085C77.3481 86.62 79.7894 89.0612 82.8009 89.0612Z" fill="white"/>
<path d="M91.6866 67.7553C94.6981 67.7553 97.1394 65.3141 97.1394 62.3026C97.1394 59.2911 94.6981 56.8499 91.6866 56.8499C88.6752 56.8499 86.2339 59.2911 86.2339 62.3026C86.2339 65.3141 88.6752 67.7553 91.6866 67.7553Z" fill="white"/>
<path d="M107.641 52.104C110.653 52.104 113.094 49.6627 113.094 46.6512C113.094 43.6398 110.653 41.1985 107.641 41.1985C104.63 41.1985 102.188 43.6398 102.188 46.6512C102.188 49.6627 104.63 52.104 107.641 52.104Z" fill="white"/>
<path d="M129.25 46.6511C132.262 46.6511 134.703 44.2098 134.703 41.1983C134.703 38.1869 132.262 35.7456 129.25 35.7456C126.239 35.7456 123.797 38.1869 123.797 41.1983C123.797 44.2098 126.239 46.6511 129.25 46.6511Z" fill="white"/>
<path d="M150.859 52.104C153.87 52.104 156.312 49.6627 156.312 46.6512C156.312 43.6398 153.87 41.1985 150.859 41.1985C147.848 41.1985 145.406 43.6398 145.406 46.6512C145.406 49.6627 147.848 52.104 150.859 52.104Z" fill="white"/>
<path d="M166.813 67.7553C169.825 67.7553 172.266 65.3141 172.266 62.3026C172.266 59.2911 169.825 56.8499 166.813 56.8499C163.802 56.8499 161.36 59.2911 161.36 62.3026C161.36 65.3141 163.802 67.7553 166.813 67.7553Z" fill="white"/>
<path d="M175.699 89.0612C178.711 89.0612 181.152 86.62 181.152 83.6085C181.152 80.597 178.711 78.1558 175.699 78.1558C172.688 78.1558 170.247 80.597 170.247 83.6085C170.247 86.62 172.688 89.0612 175.699 89.0612Z" fill="white"/>
</g>
<defs>
<clipPath id="clip0_2_652">
<rect width="517" height="344.633" fill="white"/>
</clipPath>
</defs>
</svg>
