<svg width="517" height="345" viewBox="0 0 517 345" fill="none" xmlns="http://www.w3.org/2000/svg">
<g clip-path="url(#clip0_2_86)">
<path d="M18.3823 0H500.916V344.667H18.3823V0Z" fill="white"/>
<path d="M225.182 137.867H0V206.8H225.182V344.667H294.116V206.8H519.298V137.867H294.116V0H225.182V137.867Z" fill="#EB000E"/>
<path d="M397.516 62.04L392.92 34.4667H415.898L411.302 62.04L438.876 57.4445V80.4222L411.302 75.8267L415.898 103.4H392.92L397.516 75.8267L369.942 80.4222V57.4445L397.516 62.04ZM105.698 62.04L101.102 34.4667H124.08L119.485 62.04L147.058 57.4445V80.4222L119.485 75.8267L124.08 103.4H101.102L105.698 75.8267L78.1245 80.4222V57.4445L105.698 62.04ZM105.698 268.84L101.102 241.267H124.08L119.485 268.84L147.058 264.244V287.222L119.485 282.627L124.08 310.2H101.102L105.698 282.627L78.1245 287.222V264.244L105.698 268.84ZM397.516 268.84L392.92 241.267H415.898L411.302 268.84L438.876 264.244V287.222L411.302 282.627L415.898 310.2H392.92L397.516 282.627L369.942 287.222V264.244L397.516 268.84Z" fill="#EB000E"/>
</g>
<defs>
<clipPath id="clip0_2_86">
<rect width="517" height="344.667" fill="white"/>
</clipPath>
</defs>
</svg>
