<svg width="517" height="345" viewBox="0 0 517 345" fill="none" xmlns="http://www.w3.org/2000/svg">
<g clip-path="url(#clip0_2_239)">
<path fill-rule="evenodd" clip-rule="evenodd" d="M0 -12.3096H517V356.976H0V-12.3096Z" fill="white"/>
<path fill-rule="evenodd" clip-rule="evenodd" d="M0 -12.3096H517V356.976H0V-12.3096Z" fill="#EE1C25"/>
<path fill-rule="evenodd" clip-rule="evenodd" d="M295.429 164.701C275.783 152.392 270.81 174.771 270.81 164.701C270.81 144.317 292.844 127.773 320.048 127.773C347.252 127.773 369.286 144.317 369.286 164.701C345.922 164.701 343.583 177.011 332.357 177.011C318.571 177.011 315.075 177.011 295.429 164.701ZM326.202 160.024C327.835 160.024 329.4 159.375 330.555 158.221C331.709 157.067 332.357 155.501 332.357 153.869C332.357 152.237 331.709 150.671 330.555 149.517C329.4 148.363 327.835 147.714 326.202 147.714C324.57 147.714 323.005 148.363 321.85 149.517C320.696 150.671 320.048 152.237 320.048 153.869C320.048 155.501 320.696 157.067 321.85 158.221C323.005 159.375 324.57 160.024 326.202 160.024ZM281.642 208.326C287.255 185.849 264.458 188.04 274.01 184.938C293.41 178.611 315.936 194.466 324.356 220.34C332.751 246.19 323.839 272.287 304.439 278.589C297.226 256.358 284.793 257.958 281.322 247.274C277.063 234.152 276.004 230.828 281.642 208.326ZM295.576 236.146C295.825 236.915 296.223 237.628 296.748 238.244C297.272 238.859 297.913 239.366 298.633 239.734C299.353 240.102 300.139 240.324 300.945 240.389C301.751 240.453 302.562 240.358 303.331 240.109C304.101 239.861 304.814 239.462 305.429 238.938C306.045 238.414 306.551 237.773 306.919 237.053C307.287 236.333 307.51 235.547 307.574 234.741C307.639 233.935 307.544 233.124 307.295 232.354C306.792 230.8 305.693 229.51 304.238 228.767C302.784 228.023 301.094 227.888 299.54 228.391C297.986 228.894 296.695 229.993 295.952 231.447C295.209 232.902 295.074 234.592 295.576 236.146ZM235.851 208.696C258.992 207.095 249.883 186.071 255.792 194.22C267.757 210.714 259.657 237.057 237.648 253.034C215.638 269.037 188.09 268.594 176.1 252.099C195.008 238.362 189.641 227.037 198.75 220.439C209.902 212.315 212.733 210.271 235.851 208.696ZM213.718 230.557C213.063 231.033 212.509 231.632 212.086 232.322C211.663 233.011 211.38 233.777 211.253 234.576C211.126 235.375 211.158 236.192 211.346 236.978C211.535 237.765 211.876 238.507 212.352 239.162C212.827 239.816 213.426 240.371 214.116 240.794C214.806 241.217 215.572 241.5 216.371 241.627C217.17 241.754 217.986 241.722 218.773 241.533C219.559 241.345 220.301 241.003 220.956 240.528C222.278 239.568 223.165 238.122 223.421 236.509C223.677 234.895 223.282 233.246 222.322 231.924C221.363 230.601 219.917 229.715 218.303 229.458C216.69 229.202 215.04 229.597 213.718 230.557ZM221.399 165.268C230.04 186.785 247.225 171.619 241.316 179.744C229.327 196.238 201.778 196.657 179.768 180.679C157.759 164.677 149.659 138.359 161.649 121.84C180.532 135.602 189.665 127.01 198.75 133.607C209.902 141.732 212.733 143.775 221.399 165.268ZM193.727 150.989C193.079 150.455 192.328 150.059 191.521 149.827C190.714 149.594 189.868 149.529 189.034 149.636C188.201 149.742 187.399 150.018 186.676 150.447C185.954 150.875 185.327 151.447 184.834 152.127C184.34 152.807 183.992 153.581 183.809 154.401C183.626 155.22 183.613 156.069 183.77 156.894C183.928 157.719 184.252 158.503 184.724 159.198C185.196 159.893 185.805 160.484 186.514 160.935C187.837 161.775 189.43 162.08 190.969 161.786C192.509 161.493 193.878 160.623 194.798 159.354C195.718 158.085 196.12 156.514 195.921 154.959C195.722 153.405 194.937 151.984 193.727 150.989ZM258.205 138.088C240.43 152.983 260.174 164.627 250.597 161.501C231.198 155.198 222.285 129.127 230.681 103.277C239.1 77.4268 261.627 61.5475 281.027 67.85C273.813 90.081 284.793 96.088 281.322 106.773C277.063 119.895 275.98 123.218 258.205 138.088ZM263.252 107.388C263.538 106.612 263.664 105.785 263.623 104.959C263.583 104.132 263.376 103.322 263.015 102.577C262.654 101.832 262.146 101.168 261.523 100.624C260.899 100.08 260.172 99.6669 259.385 99.4102C258.598 99.1534 257.768 99.058 256.943 99.1296C256.119 99.2012 255.317 99.4384 254.587 99.827C253.856 100.215 253.211 100.747 252.69 101.391C252.17 102.034 251.785 102.776 251.558 103.572C251.12 105.104 251.294 106.745 252.042 108.151C252.789 109.557 254.053 110.618 255.567 111.112C257.081 111.606 258.727 111.494 260.16 110.8C261.593 110.105 262.701 108.883 263.252 107.388Z" fill="white"/>
</g>
<defs>
<clipPath id="clip0_2_239">
<rect width="517" height="344.667" fill="white"/>
</clipPath>
</defs>
</svg>
