<svg width="517" height="345" viewBox="0 0 517 345" fill="none" xmlns="http://www.w3.org/2000/svg">
<g clip-path="url(#clip0_2_264)">
<path d="M17.4348 0H499.565V344.667H17.4348V0Z" fill="#181A93"/>
<path d="M0 0H517V114.889H0V0Z" fill="#FFA44A"/>
<path d="M0 229.778H517V344.667H0V229.778Z" fill="#1A9F0B"/>
<path d="M0 114.889H517V229.778H0V114.889Z" fill="white"/>
<path d="M258.5 206.8C277.535 206.8 292.967 191.369 292.967 172.333C292.967 153.298 277.535 137.867 258.5 137.867C239.464 137.867 224.033 153.298 224.033 172.333C224.033 191.369 239.464 206.8 258.5 206.8Z" fill="white"/>
<path d="M258.5 218.289C233.204 218.289 212.544 197.629 212.544 172.333C212.544 147.038 233.204 126.378 258.5 126.378C283.796 126.378 304.456 147.038 304.456 172.333C304.456 197.629 283.796 218.289 258.5 218.289ZM258.5 206.8C276.842 206.8 292.967 190.675 292.967 172.333C292.967 153.991 276.943 137.867 258.5 137.867C240.057 137.867 224.033 153.991 224.033 172.333C224.033 190.675 240.158 206.8 258.5 206.8Z" fill="#181A93"/>
<path d="M258.5 195.311C271.191 195.311 281.478 185.024 281.478 172.333C281.478 159.643 271.191 149.356 258.5 149.356C245.81 149.356 235.522 159.643 235.522 172.333C235.522 185.024 245.81 195.311 258.5 195.311Z" fill="#181A93"/>
</g>
<defs>
<clipPath id="clip0_2_264">
<rect width="517" height="344.667" fill="white"/>
</clipPath>
</defs>
</svg>
