<svg width="517" height="345" viewBox="0 0 517 345" fill="none" xmlns="http://www.w3.org/2000/svg">
<g clip-path="url(#clip0_2_305)">
<path d="M0 0H515.992V344.667H0V0Z" fill="white"/>
<path d="M0 0H517V114.889H0V0Z" fill="#6DA544"/>
<path d="M0 229.677H517V344.566H0V229.677ZM280.974 135.851C281.075 137.867 289.742 162.255 285.408 175.558C278.757 196.016 269.485 197.528 265.454 200.249V135.045L258.5 130.812L251.546 135.045V200.249C247.515 197.528 239.05 197.831 231.592 175.558C227.258 162.759 237.336 137.967 237.437 136.053C237.437 136.053 227.863 144.216 221.514 160.24C215.568 175.155 223.429 210.226 251.244 215.467C253.562 215.87 255.98 221.111 258.5 221.111C260.616 221.111 262.632 215.87 264.547 215.568C293.168 210.932 299.82 173.543 294.68 159.534C289.238 144.82 280.974 135.851 280.974 135.851Z" fill="#D80027"/>
<g opacity="0.5">
<path d="M44.9478 99.6711H67.4216V124.261H44.9478V99.6711ZM0 99.6711H22.4739V124.261H0V99.6711ZM89.8955 99.6711H112.369V124.261H89.8955V99.6711ZM134.843 99.6711H157.317V124.261H134.843V99.6711ZM179.791 99.6711H202.265V124.261H179.791V99.6711ZM224.739 99.6711H247.213V124.261H224.739V99.6711ZM269.787 99.6711H292.261V124.261H269.787V99.6711ZM314.735 99.6711H337.209V124.261H314.735V99.6711ZM359.683 99.6711H382.157V124.261H359.683V99.6711ZM404.631 99.6711H427.104V124.261H404.631V99.6711ZM449.578 99.6711H472.052V124.261H449.578V99.6711ZM494.526 99.6711H517V124.261H494.526V99.6711ZM44.9478 218.591H67.4216V244.29H44.9478V218.591ZM0 218.591H22.4739V244.29H0V218.591ZM89.8955 218.591H112.369V244.29H89.8955V218.591ZM134.843 218.591H157.317V244.29H134.843V218.591ZM179.791 218.591H202.265V244.29H179.791V218.591ZM224.739 218.591H247.213V244.29H224.739V218.591ZM269.787 218.591H292.261V244.29H269.787V218.591ZM314.735 218.591H337.209V244.29H314.735V218.591ZM359.683 218.591H382.157V244.29H359.683V218.591ZM404.631 218.591H427.104V244.29H404.631V218.591ZM449.578 218.591H472.052V244.29H449.578V218.591ZM494.526 218.591H517V244.29H494.526V218.591Z" fill="white"/>
</g>
</g>
<defs>
<clipPath id="clip0_2_305">
<rect width="517" height="344.667" fill="white"/>
</clipPath>
</defs>
</svg>
