<svg width="516" height="345" viewBox="0 0 516 345" fill="none" xmlns="http://www.w3.org/2000/svg">
<g clip-path="url(#clip0_2_336)">
<path d="M0 0H517.008V344.672H0V0Z" fill="#D80027"/>
<path d="M258 344.067C353.011 344.067 430.034 267.045 430.034 172.034C430.034 77.0221 353.011 0 258 0C162.988 0 85.9663 77.0221 85.9663 172.034C85.9663 267.045 162.988 344.067 258 344.067Z" fill="#D80027"/>
<path d="M385.388 172.034L333.384 196.523L361.099 246.914L304.561 236.13L297.406 293.173L258 251.147L218.595 293.173L211.439 236.13L154.901 246.914L182.616 196.523L130.613 172.034L182.616 147.544L154.901 97.0523L211.439 107.937L218.595 50.7937L258 92.8195L297.406 50.7937L304.561 107.937L361.099 97.0523L333.384 147.544L385.388 172.034Z" fill="#FFDA44"/>
<path d="M259.411 244.193C299.263 244.193 331.57 211.886 331.57 172.034C331.57 132.181 299.263 99.8743 259.411 99.8743C219.558 99.8743 187.251 132.181 187.251 172.034C187.251 211.886 219.558 244.193 259.411 244.193Z" fill="#D80027"/>
<path d="M215.873 172.033C213.757 172.033 211.741 172.134 209.625 172.336C209.726 184.43 214.059 195.415 221.316 204.082C225.145 193.701 230.89 184.329 238.146 176.166C231.192 173.444 223.734 172.033 215.873 172.033ZM242.681 218.897C247.922 220.812 253.566 221.819 259.411 221.819C265.256 221.819 270.9 220.812 276.141 218.897C273.319 207.71 267.373 197.733 259.411 189.872C251.449 197.733 245.503 207.71 242.681 218.897ZM302.545 147.141C293.979 132.225 277.854 122.248 259.411 122.248C240.968 122.248 224.944 132.225 216.277 147.141C231.998 147.241 246.712 151.474 259.411 158.831C272.109 151.474 286.823 147.141 302.545 147.141ZM280.676 176.166C287.932 184.228 293.677 193.701 297.506 204.082C304.763 195.516 309.096 184.43 309.197 172.336C307.181 172.134 305.065 172.033 302.948 172.033C295.188 172.033 287.63 173.444 280.676 176.166Z" fill="#FFDA44"/>
</g>
<defs>
<clipPath id="clip0_2_336">
<rect width="516" height="344.672" fill="white"/>
</clipPath>
</defs>
</svg>
