<svg width="517" height="345" viewBox="0 0 517 345" fill="none" xmlns="http://www.w3.org/2000/svg">
<g clip-path="url(#clip0_2_390)">
<path d="M0 0H517V344.667H0V0Z" fill="#36B6CC"/>
<path d="M258.5 241.166C296.571 241.166 327.433 210.303 327.433 172.233C327.433 134.162 296.571 103.299 258.5 103.299C220.429 103.299 189.567 134.162 189.567 172.233C189.567 210.303 220.429 241.166 258.5 241.166Z" fill="#FFD400"/>
<path d="M258.5 253.461L230.382 295.486L223.227 245.399L179.69 271.097L195.009 222.925L144.619 227.157L179.287 190.373L132.021 172.232L179.186 154.092L144.518 117.308L194.908 121.54L179.589 73.3675L223.126 98.9656L230.282 48.8781L258.399 90.9032L286.517 48.8781L293.672 98.9656L337.209 73.3675L321.89 121.54L372.28 117.308L337.713 154.193L384.878 172.232L337.713 190.373L372.381 227.157L321.991 222.925L337.31 271.097L293.773 245.499L286.618 295.587C286.618 295.486 258.5 253.461 258.5 253.461ZM258.5 252.655C302.944 252.655 339.023 216.576 339.023 172.132C339.023 127.688 302.944 91.7095 258.5 91.7095C214.056 91.7095 177.977 127.789 177.977 172.232C177.977 216.676 214.056 252.655 258.5 252.655ZM22.9778 28.5206C22.9778 25.2956 25.3965 22.7761 28.7222 22.7761H40.1103C43.3353 22.7761 45.8548 25.1948 45.8548 28.5206V39.9087C45.9556 43.0328 43.4361 45.6531 40.2111 45.6531H28.7222C25.5981 45.6531 22.9778 43.1336 22.9778 40.0095V28.5206ZM22.9778 74.5769C22.9778 71.352 25.3965 68.8325 28.7222 68.8325H40.1103C43.3353 68.8325 45.8548 71.2512 45.8548 74.5769V85.965C45.9556 89.0892 43.4361 91.7095 40.2111 91.7095H28.7222C25.5981 91.7095 22.9778 89.19 22.9778 86.0658V74.5769ZM22.9778 120.532C22.9778 117.308 25.3965 114.788 28.7222 114.788H40.1103C43.3353 114.788 45.8548 117.207 45.8548 120.532V131.921C45.9556 135.045 43.4361 137.665 40.2111 137.665H28.7222C25.5981 137.665 22.9778 135.146 22.9778 132.021V120.532ZM22.9778 166.488C22.9778 163.263 25.3965 160.744 28.7222 160.744H40.1103C43.3353 160.744 45.8548 163.162 45.8548 166.488V177.876C45.9556 181 43.4361 183.621 40.2111 183.621H28.7222C25.5981 183.621 22.9778 181.101 22.9778 177.977V166.488ZM22.9778 212.544C22.9778 209.319 25.3965 206.8 28.7222 206.8H40.1103C43.3353 206.8 45.8548 209.219 45.8548 212.544V223.932C45.9556 227.057 43.4361 229.677 40.2111 229.677H28.7222C25.5981 229.677 22.9778 227.157 22.9778 224.033V212.544ZM22.9778 258.5C22.9778 255.275 25.3965 252.755 28.7222 252.755H40.1103C43.3353 252.755 45.8548 255.174 45.8548 258.5V269.888C45.9556 273.012 43.4361 275.632 40.2111 275.632H28.7222C25.5981 275.632 22.9778 273.113 22.9778 269.989V258.5ZM22.9778 304.455C22.9778 301.23 25.3965 298.711 28.7222 298.711H40.1103C43.3353 298.711 45.8548 301.13 45.8548 304.455V315.844C45.9556 318.968 43.4361 321.588 40.2111 321.588H28.7222C25.5981 321.588 22.9778 319.069 22.9778 315.944V304.455ZM45.9556 281.478C45.9556 278.253 48.3743 275.733 51.7 275.733H63.0881C66.3131 275.733 68.8326 278.152 68.8326 281.478V292.866C68.9333 295.99 66.4138 298.61 63.1889 298.61H51.7C48.5758 298.61 45.9556 296.091 45.9556 292.967V281.478ZM45.9556 235.522C45.9556 232.297 48.3743 229.778 51.7 229.778H63.0881C66.3131 229.778 68.8326 232.196 68.8326 235.522V246.91C68.9333 250.034 66.4138 252.655 63.1889 252.655H51.7C48.5758 252.655 45.9556 250.135 45.9556 247.011V235.522ZM45.9556 189.466C45.9556 186.241 48.3743 183.721 51.7 183.721H63.0881C66.3131 183.721 68.8326 186.14 68.8326 189.466V200.854C68.9333 203.978 66.4138 206.598 63.1889 206.598H51.7C48.5758 206.598 45.9556 204.079 45.9556 200.955V189.466ZM45.9556 143.51C45.9556 140.285 48.3743 137.766 51.7 137.766H63.0881C66.3131 137.766 68.8326 140.184 68.8326 143.51V154.898C68.9333 158.023 66.4138 160.643 63.1889 160.643H51.7C48.5758 160.643 45.9556 158.123 45.9556 154.999V143.51ZM45.9556 97.5547C45.9556 94.3297 48.3743 91.8102 51.7 91.8102H63.0881C66.3131 91.8102 68.8326 94.229 68.8326 97.5547V108.943C68.9333 112.067 66.4138 114.687 63.1889 114.687H51.7C48.5758 114.687 45.9556 112.168 45.9556 109.044V97.5547ZM45.9556 51.5991C45.9556 48.3742 48.3743 45.8547 51.7 45.8547H63.0881C66.3131 45.8547 68.8326 48.2734 68.8326 51.5991V62.9872C68.9333 66.1114 66.4138 68.7317 63.1889 68.7317H51.7C48.5758 68.7317 45.9556 66.2122 45.9556 63.088V51.5991Z" fill="#FFD400"/>
</g>
<defs>
<clipPath id="clip0_2_390">
<rect width="517" height="344.667" fill="white"/>
</clipPath>
</defs>
</svg>
