<svg width="517" height="345" viewBox="0 0 517 345" fill="none" xmlns="http://www.w3.org/2000/svg">
<g clip-path="url(#clip0_2_510)">
<path d="M0 0H517V344.667H0V0Z" fill="#095FAD"/>
<path d="M344.667 0H517V344.667H344.667V0ZM0 0H172.333V344.667H0V0Z" fill="#BE1229"/>
<path d="M109.144 167.597H124.06V242.375H109.144V167.597ZM49.2812 167.597H64.1967V242.375H49.2812V167.597Z" fill="#FFDA44"/>
<path d="M86.6703 219.901C94.9078 219.901 101.586 213.223 101.586 204.986C101.586 196.748 94.9078 190.071 86.6703 190.071C78.4327 190.071 71.7549 196.748 71.7549 204.986C71.7549 213.223 78.4327 219.901 86.6703 219.901Z" fill="#FFDA44"/>
<path d="M71.7549 227.46H101.686V242.375H71.7549V227.46ZM71.7549 167.597H101.686V182.512H71.7549V167.597Z" fill="#FFDA44"/>
<path d="M86.6703 160.038C94.9078 160.038 101.586 153.36 101.586 145.123C101.586 136.885 94.9078 130.208 86.6703 130.208C78.4327 130.208 71.7549 136.885 71.7549 145.123C71.7549 153.36 78.4327 160.038 86.6703 160.038Z" fill="#FFDA44"/>
<path d="M76.895 124.866H96.5471L86.6706 109.145L76.895 124.866Z" fill="#FFDA44"/>
</g>
<defs>
<clipPath id="clip0_2_510">
<rect width="517" height="344.667" fill="white"/>
</clipPath>
</defs>
</svg>
