<svg width="517" height="345" viewBox="0 0 517 345" fill="none" xmlns="http://www.w3.org/2000/svg">
<g clip-path="url(#clip0_2_930)">
<path d="M0 0.00390625H517V344.663H0V0.00390625Z" fill="white"/>
<path d="M0 112.395H517V232.271H0V112.395Z" fill="#0052B4"/>
<path d="M0 232.272H517V344.663H0V232.272Z" fill="#D80027"/>
<path d="M130.732 97.4082V183.376C130.732 232.278 194.617 247.26 194.617 247.26C194.617 247.26 258.5 232.276 258.5 183.376V97.4082H130.732Z" fill="white"/>
<path d="M147.553 99.9272V182.668C147.553 188.194 148.78 193.412 151.211 198.305H238.021C240.452 193.413 241.679 188.195 241.679 182.668V99.9272H147.553Z" fill="#D80027"/>
<path d="M223.462 157.619H201.828V143.196H216.251V128.774H201.828V114.35H187.405V128.774H172.984V143.196H187.405V157.619H165.77V172.042H187.405V186.465H201.828V172.042H223.462V157.619Z" fill="white"/>
<path d="M170.885 218.437C180.179 224.277 189.727 227.67 194.616 229.177C199.505 227.669 209.054 224.278 218.348 218.437C227.72 212.547 234.292 205.809 238.022 198.304C233.767 195.287 228.679 193.67 223.463 193.676C221.488 193.676 219.569 193.91 217.726 194.339C213.817 185.457 204.944 179.253 194.618 179.253C184.291 179.253 175.42 185.457 171.511 194.339C169.63 193.9 167.705 193.677 165.773 193.676C160.558 193.67 155.469 195.287 151.214 198.304C154.941 205.809 161.512 212.547 170.885 218.437Z" fill="#0052B4"/>
</g>
<defs>
<clipPath id="clip0_2_930">
<rect width="517" height="344.666" fill="white"/>
</clipPath>
</defs>
</svg>
