<svg width="517" height="345" viewBox="0 0 517 345" fill="none" xmlns="http://www.w3.org/2000/svg">
<g clip-path="url(#clip0_2_1067)">
<path d="M0 0.00390625H517V344.663H0V0.00390625Z" fill="white"/>
<path d="M0 0.00390625H517V114.89H0V0.00390625Z" fill="#D80027"/>
<path d="M0 229.777H517V344.663H0V229.777Z" fill="#6DA544"/>
<path d="M228.528 217.291H288.472V191.814L276.483 197.809L258.5 179.827L240.517 197.809L228.528 191.814V217.291ZM194.233 187.319L197.023 195.906H206.051L198.747 201.212L201.537 209.797L194.233 204.491L186.929 209.797L189.719 201.212L182.415 195.906H191.442L194.233 187.319ZM202.883 157.349L205.673 165.934H214.7L207.397 171.24L210.187 179.827L202.883 174.52L195.578 179.827L198.368 171.24L191.065 165.934H200.092L202.883 157.349ZM227.61 134.871L230.4 143.456H239.427L232.124 148.762L234.914 157.349L227.61 152.042L220.305 157.349L223.095 148.762L215.792 143.456H224.819L227.61 134.871ZM322.766 187.319L319.976 195.906H310.949L318.253 201.212L315.463 209.797L322.766 204.491L330.071 209.797L327.281 201.212L334.585 195.906H325.557L322.766 187.319ZM314.117 157.349L311.327 165.934H302.299L309.603 171.24L306.813 179.827L314.117 174.52L321.421 179.827L318.631 171.24L325.935 165.934H316.908L314.117 157.349ZM289.39 134.871L286.6 143.456H277.572L284.876 148.762L282.086 157.349L289.39 152.042L296.694 157.349L293.904 148.762L301.208 143.456H292.181L289.39 134.871ZM258.5 123.63L261.29 132.216H270.318L263.014 137.523L265.804 146.108L258.5 140.803L251.196 146.108L253.986 137.523L246.682 132.216H255.71L258.5 123.63Z" fill="#FFDA44"/>
</g>
<defs>
<clipPath id="clip0_2_1067">
<rect width="517" height="344.666" fill="white"/>
</clipPath>
</defs>
</svg>
