<svg width="517" height="345" viewBox="0 0 517 345" fill="none" xmlns="http://www.w3.org/2000/svg">
<g clip-path="url(#clip0_2_1084)">
<path d="M0 0.00390625H517V344.663H0V0.00390625Z" fill="#496E2D"/>
<path d="M360.696 99.3064C369.175 75.6739 359.65 49.9713 339.208 37.1695C342.955 37.6546 346.64 38.542 350.198 39.8161C377.464 49.5987 391.637 79.6292 381.854 106.896C372.071 134.163 342.041 148.335 314.774 138.552C311.218 137.274 307.809 135.617 304.607 133.609C328.524 136.723 352.217 122.94 360.696 99.3064ZM313.671 30.6929L306.302 40.2119L294.973 36.1466L301.75 46.0948L294.383 55.6139L305.938 52.2433L312.715 62.1915L313.08 50.1612L324.636 46.7895L313.305 42.7252L313.671 30.6929Z" fill="white"/>
<path d="M333.564 61.712L326.197 71.2311L314.866 67.1657L321.644 77.114L314.276 86.633L325.831 83.2614L332.609 93.2106L332.972 81.1793L344.529 77.8066L333.198 73.7434L333.564 61.712ZM278.594 41.9893L271.227 51.5083L259.899 47.445L266.675 57.3922L259.308 66.9103L270.863 63.5397L277.64 73.4879L278.005 61.4565L289.56 58.0869L278.23 54.0206L278.594 41.9893ZM277.788 77.5219L270.42 87.041L259.09 82.9756L265.867 92.9239L258.5 102.443L270.056 99.0723L276.832 109.021L277.198 96.9892L288.753 93.6186L277.423 89.5533L277.788 77.5219ZM311.599 89.6522L304.231 99.1713L292.902 95.106L299.679 105.055L292.311 114.573L303.867 111.203L310.644 121.151L311.008 109.119L322.563 105.749L311.234 101.685L311.599 89.6522Z" fill="white"/>
<path d="M84.2932 0.00390625H174.206V344.663H84.2932V0.00390625Z" fill="#D80027"/>
<path d="M118.605 90.7355L103.551 79.522V63.6636L118.605 52.4502H139.895L154.949 63.6636V79.522L139.895 90.7355H118.605Z" fill="white"/>
<path d="M129.25 52.4502H118.605L103.551 63.6636V71.4166H129.25V52.4502ZM129.25 90.7355H139.895L154.949 79.522V71.4318H129.25V90.7355Z" fill="#FF9811"/>
<path d="M118.605 292.218L103.551 281.003V265.146L118.605 253.933H139.895L154.949 265.146V281.003L139.895 292.218H118.605Z" fill="white"/>
<path d="M129.25 253.933H118.605L103.551 265.146V272.899H129.25V253.933ZM129.25 292.218H139.895L154.949 281.003V272.914H129.25V292.218Z" fill="#FF9811"/>
<path d="M118.605 191.476L103.551 180.263V164.406L118.605 153.192H139.895L154.949 164.406V180.263L139.895 191.476H118.605ZM155.475 216.149H148.918V209.592H137.396L129.249 201.445L121.103 209.592H109.582V216.149H103.025V229.261H109.582V235.817H121.103L129.25 243.965L137.397 235.817H148.918V229.261H155.475V216.149ZM155.475 115.406H148.918V108.851H137.396L129.249 100.703L121.103 108.851H109.582V115.406H103.025V128.519H109.582V135.075H121.103L129.25 143.223L137.397 135.075H148.918V128.519H155.475V115.406Z" fill="#496E2D"/>
<path d="M121.753 164.837H136.738V179.822H121.753V164.837Z" fill="#D80027"/>
<path d="M129.25 129.453C133.388 129.453 136.743 126.098 136.743 121.959C136.743 117.821 133.388 114.466 129.25 114.466C125.111 114.466 121.756 117.821 121.756 121.959C121.756 126.098 125.111 129.453 129.25 129.453Z" fill="#D80027"/>
<path d="M129.25 230.201C133.389 230.201 136.743 226.846 136.743 222.708C136.743 218.569 133.389 215.214 129.25 215.214C125.111 215.214 121.757 218.569 121.757 222.708C121.757 226.846 125.111 230.201 129.25 230.201Z" fill="#D80027"/>
</g>
<defs>
<clipPath id="clip0_2_1084">
<rect width="517" height="344.666" fill="white"/>
</clipPath>
</defs>
</svg>
