<svg width="517" height="345" viewBox="0 0 517 345" fill="none" xmlns="http://www.w3.org/2000/svg">
<g clip-path="url(#clip0_2_1112)">
<path d="M0 0H517V344.667H0V0Z" fill="#E30A17"/>
<path d="M261.725 119.525C248.523 109.951 232.499 104.811 216.072 104.912C174.954 104.912 141.696 135.952 141.696 174.349C141.696 212.746 175.054 243.786 216.072 243.786C233.305 243.786 249.228 238.344 261.725 229.173C231.491 268.074 175.357 275.129 136.456 244.794C97.5548 214.459 90.5002 158.426 120.835 119.525C151.17 80.6237 207.203 73.5691 246.104 103.904C251.949 108.439 257.19 113.78 261.725 119.525ZM301.936 185.838L283.695 207.908L284.904 179.287L258.298 168.806L285.811 161.147L287.625 132.626L303.347 156.511L331.061 149.355L313.425 171.527L328.844 195.613L301.936 185.838Z" fill="white"/>
</g>
<defs>
<clipPath id="clip0_2_1112">
<rect width="517" height="344.667" fill="white"/>
</clipPath>
</defs>
</svg>
