<svg width="517" height="345" viewBox="0 0 517 345" fill="none" xmlns="http://www.w3.org/2000/svg">
<g clip-path="url(#clip0_2_1157)">
<path d="M0 0H517V344.667H0V0Z" fill="white"/>
<path d="M0 0H517V26.5051H0V0ZM0 53.0101H517V79.5152H0V53.0101ZM0 106.02H517V132.525H0V106.02ZM0 159.03H517V185.535H0V159.03ZM0 212.141H517V238.646H0V212.141ZM0 265.151H517V291.657H0V265.151ZM0 318.162H517V344.667H0V318.162Z" fill="#D80027"/>
<path d="M0 0H258.5V185.535H0V0Z" fill="#2E52B2"/>
<path d="M48.1727 139.983L44.1415 127.083L39.7072 139.983H26.4043L37.1877 147.743L33.1565 160.643L44.1415 152.681L54.8242 160.643L50.6922 147.743L61.6772 139.983H48.1727ZM104.912 139.983L100.78 127.083L96.547 139.983H83.2441L94.0275 147.743L89.9963 160.643L100.78 152.681L111.664 160.643L107.633 147.743L118.416 139.983H104.912ZM161.852 139.983L157.519 127.083L153.488 139.983H139.882L150.968 147.743L146.735 160.643L157.519 152.681L168.605 160.643L164.372 147.743L175.155 139.983H161.852ZM218.49 139.983L214.459 127.083L210.227 139.983H196.823L207.707 147.743L203.676 160.643L214.459 152.681L225.344 160.643L221.01 147.743L232.096 139.983H218.49ZM100.78 75.8871L96.547 88.7869H83.2441L94.0275 96.7485L89.9963 109.447L100.78 101.586L111.664 109.447L107.633 96.7485L118.416 88.7869H104.912L100.78 75.8871ZM44.1415 75.8871L39.7072 88.7869H26.4043L37.1877 96.7485L33.1565 109.447L44.1415 101.586L54.8242 109.447L50.6922 96.7485L61.6772 88.7869H48.1727L44.1415 75.8871ZM157.519 75.8871L153.488 88.7869H139.882L150.968 96.7485L146.735 109.447L157.519 101.586L168.605 109.447L164.372 96.7485L175.155 88.7869H161.852L157.519 75.8871ZM214.459 75.8871L210.227 88.7869H196.823L207.707 96.7485L203.676 109.447L214.459 101.586L225.344 109.447L221.01 96.7485L232.096 88.7869H218.49L214.459 75.8871ZM44.1415 24.8926L39.7072 37.5908H26.4043L37.1877 45.5524L33.1565 58.3514L44.1415 50.3898L54.8242 58.3514L50.6922 45.5524L61.6772 37.5908H48.1727L44.1415 24.8926ZM100.78 24.8926L96.547 37.5908H83.2441L94.0275 45.5524L89.9963 58.3514L100.78 50.3898L111.664 58.3514L107.633 45.5524L118.416 37.5908H104.912L100.78 24.8926ZM157.519 24.8926L153.488 37.5908H139.882L150.968 45.5524L146.735 58.3514L157.519 50.3898L168.605 58.3514L164.372 45.5524L175.155 37.5908H161.852L157.519 24.8926ZM214.459 24.8926L210.227 37.5908H196.823L207.707 45.5524L203.676 58.3514L214.459 50.3898L225.344 58.3514L221.01 45.5524L232.096 37.5908H218.49L214.459 24.8926Z" fill="white"/>
</g>
<defs>
<clipPath id="clip0_2_1157">
<rect width="517" height="344.667" fill="white"/>
</clipPath>
</defs>
</svg>
